<?xml version="1.0" standalone="no"?>
<!DOCTYPE svg PUBLIC "-//W3C//DTD SVG 20010904//EN"
 "http://www.w3.org/TR/2001/REC-SVG-20010904/DTD/svg10.dtd">
<svg version="1.0" xmlns="http://www.w3.org/2000/svg"
 width="261.000000pt" height="261.000000pt" viewBox="0 0 261.000000 261.000000"
 preserveAspectRatio="xMidYMid meet">
<metadata>
Created by potrace 1.11, written by Peter Selinger 2001-2013
</metadata>
<g transform="translate(0.000000,261.000000) scale(0.100000,-0.100000)"
fill="#000000" stroke="none">
<path d="M880 2501 c-55 -18 -141 -58 -150 -70 -3 -4 -20 -17 -37 -30 -41 -28
-111 -118 -151 -196 -53 -103 -136 -332 -147 -409 -3 -17 -8 -56 -13 -86 -24
-165 24 -354 134 -520 44 -67 161 -195 228 -249 82 -66 221 -124 325 -135 30
-3 55 -7 56 -8 7 -8 -56 -126 -78 -146 -13 -13 -48 -29 -77 -37 -50 -13 -83
-39 -76 -60 2 -5 -2 -21 -9 -35 -14 -28 -10 -69 8 -87 10 -10 12 -5 9 27 -2
22 0 40 5 40 5 0 29 18 54 40 43 39 96 59 121 46 7 -4 30 -17 51 -30 35 -21
36 -24 20 -38 -10 -9 -48 -26 -84 -38 -73 -23 -100 -45 -105 -85 -1 -15 -10
-42 -19 -61 -19 -40 -14 -77 15 -114 l19 -25 -6 52 c-5 45 -3 53 17 70 12 10
45 41 74 69 48 49 99 74 149 74 10 0 44 -13 77 -30 33 -16 68 -30 79 -30 18 0
59 -39 92 -90 16 -23 16 -21 0 30 -21 72 -70 122 -141 145 -30 9 -60 22 -66
29 -9 8 2 48 43 158 l56 146 58 22 c32 11 61 25 64 30 11 18 47 11 99 -19 108
-62 162 -139 274 -391 78 -174 114 -242 148 -279 13 -14 24 -29 24 -33 0 -14
62 -40 82 -35 10 3 31 -1 46 -9 36 -19 48 -18 72 6 41 41 10 129 -131 375
-104 180 -113 203 -101 230 8 17 2 47 -29 141 -42 126 -58 187 -66 244 -2 19
-9 53 -15 75 -5 22 -11 47 -13 55 -11 56 -60 209 -90 285 -99 244 -227 422
-378 525 -40 27 -43 38 -25 105 13 49 14 49 102 59 80 10 128 27 115 42 -19
23 -91 39 -186 43 -16 1 -23 9 -28 33 -9 40 -86 117 -148 147 -109 53 -244 65
-347 32z m227 -233 c49 -45 16 -113 -55 -111 -65 2 -96 72 -49 110 34 27 76
27 104 1z m162 -1546 c-17 -42 -39 -96 -50 -120 -17 -38 -21 -41 -35 -28 -8 9
-30 23 -49 32 -19 9 -35 21 -34 28 0 6 17 45 37 86 l37 75 55 5 c30 3 58 4 62
3 3 -2 -7 -38 -23 -81z"/>
</g>
</svg>
