<svg xmlns="http://www.w3.org/2000/svg" viewBox="0 0 250 249.87"><defs><style>.cls-1{fill:#fff;}</style></defs><title>instagram</title><g id="Layer_2" data-name="Layer 2"><g id="Layer_1-2" data-name="Layer 1"><path class="cls-1" d="M120.94,0c14.22,0,24.3,0,34.38,0,8.77.06,17.55.32,26.3,1,10.91.82,21.49,3.14,31.27,8.2a63,63,0,0,1,31.2,35.63A89,89,0,0,1,249,69.37c.39,6,.62,11.92.74,17.9.46,23.9.21,47.8.13,71.7q0,11.21-.91,22.4c-.8,10.41-2.89,20.53-7.49,30-8,16.31-20.62,27.32-37.79,33.17a90,90,0,0,1-23.28,4.4c-6,.39-11.92.59-17.89.73-19.71.44-39.43,0-59.14.2-6.67.05-13.33-.09-20-.31-9.45-.32-18.92-.56-28.21-2.63-11.08-2.46-21.29-6.75-30-14.17A63.84,63.84,0,0,1,5.91,205,90.7,90.7,0,0,1,1,180.49c-.4-6-.63-11.92-.74-17.89C-.19,138.65.06,114.71.14,90.77c0-7.51.32-15,.92-22.52.85-10.62,3-20.92,7.86-30.5A62.89,62.89,0,0,1,44.85,5.88,88.38,88.38,0,0,1,69.63,1C75.46.58,81.31.4,87.15.21,99.79-.2,112.44.15,120.94,0Zm6.63,227.35c8.43-.15,20,.17,31.6-.18,6.62-.2,13.24-.35,19.85-.78a65.57,65.57,0,0,0,19.62-4,40.38,40.38,0,0,0,23-21.93c3.33-7.47,4.52-15.41,5-23.48.39-7.06.7-14.13.72-21.19.05-21.34.26-42.68-.11-64-.12-7-.31-14-.78-21a69,69,0,0,0-3.21-17.32,40.63,40.63,0,0,0-20.84-24.34c-8-4-16.66-5.38-25.48-5.85-6.93-.38-13.88-.7-20.82-.71-21.51-.05-43-.27-64.51.11-6.91.12-13.81.31-20.7.78a65,65,0,0,0-19.73,4.09A40.4,40.4,0,0,0,28.3,49.5c-3.3,7.44-4.49,15.34-4.93,23.37-.39,7.09-.7,14.2-.72,21.31,0,21.34-.27,42.68.11,64,.12,7,.31,13.89.77,20.82a64.94,64.94,0,0,0,4.17,20A40.4,40.4,0,0,0,50.07,221.9c7.12,3,14.66,4.26,22.31,4.69q10.83.61,21.67.75C104.17,227.46,114.3,227.37,127.57,227.37Z"/><path class="cls-1" d="M189.2,124.92a64.2,64.2,0,1,1-64-64.18A64.2,64.2,0,0,1,189.2,124.92ZM125,166.6a41.66,41.66,0,1,0-41.64-41.71A41.75,41.75,0,0,0,125,166.6Z"/><path class="cls-1" d="M206.55,58.33a15,15,0,0,1-15.06,15.15,15.26,15.26,0,0,1-15-15.16,15,15,0,0,1,15-14.93A14.82,14.82,0,0,1,206.55,58.33Z"/></g></g></svg>