<svg xmlns="http://www.w3.org/2000/svg" viewBox="0 0 250 249.52"><defs><style>.cls-1{fill:#fff;}</style></defs><title>linkedin</title><g id="Layer_2" data-name="Layer 2"><g id="Layer_1-2" data-name="Layer 1"><path class="cls-1" d="M235.61,249.52H14.42c-.08-.32-.33-.34-.6-.41-8.75-2.27-13.83-10-13.82-19Q.15,125.1.06,20.06a29,29,0,0,1,.38-5.65C1.93,6.67,8.88,0,17.17,0q107.7,0,215.4,0a15.37,15.37,0,0,1,4,.42C243.81,2.35,250,9.36,250,17.22q-.06,107.81,0,215.61c0,4.07-1.76,7.47-4.29,10.54S239.44,248.24,235.61,249.52ZM133.55,109.78l-.53-.18c0-4.7-.06-9.39,0-14.09,0-1.46-.26-2-1.88-2q-15.79.12-31.59,0c-1.59,0-1.89.48-1.89,2q.06,57.54,0,115.09c0,1.61.39,2,2,2q16.41-.12,32.83,0c1.7,0,2.13-.41,2.13-2.12-.07-19.49,0-39-.06-58.47a53.53,53.53,0,0,1,.88-11.17c1.2-5.7,3.24-11,8.33-14.4,4.23-2.86,9-3.44,14-3.37,8,.11,13.76,4.17,16.26,11.75a43.78,43.78,0,0,1,2,13.62q.09,31,0,62c0,1.88.54,2.21,2.28,2.2q16.41-.12,32.82,0c1.56,0,1.93-.42,1.91-1.94-.28-24.05.43-48.1-.39-72.15a86.35,86.35,0,0,0-2.56-18.88c-2.92-11.25-8.68-20.4-19.81-25.07A52.49,52.49,0,0,0,159,91.73a37,37,0,0,0-22.56,13.91C135.39,107,134.5,108.39,133.55,109.78ZM74.31,153.21q0-28.82,0-57.64c0-1.58-.36-2-2-2q-16.52.12-33,0c-1.48,0-2,.28-2,1.88q.07,57.63,0,115.27c0,1.52.36,1.94,1.91,1.93q16.41-.1,32.82,0c1.74,0,2.27-.33,2.27-2.2C74.27,191.36,74.31,172.28,74.31,153.21ZM34.45,55.9c-.21,11.71,9.86,21.48,21.61,21.3A21.38,21.38,0,1,0,34.45,55.9Z"/></g></g></svg>