<svg id="Layer_1" data-name="Layer 1" xmlns="http://www.w3.org/2000/svg" viewBox="0 0 168.41 219.73"><defs><style>.cls-1{fill:#fff;}</style></defs><title>logo_white</title><path class="cls-1" d="M168.39,213.68a17.45,17.45,0,0,0-.83-4.07,56.16,56.16,0,0,0-2.86-7c-2.12-4.42-4.44-8.68-6.83-12.87s-4.79-8.35-7.12-12.53-4.43-8.16-6.45-12.33a3.51,3.51,0,0,0,1.35-1.23,4.87,4.87,0,0,0,.47-3.87c-.13-.48-.25-.82-.36-1.16l-.34-1-1.37-4.16c-.92-2.77-1.82-5.58-2.76-8.31s-1.8-5.44-2.52-8.19c-.36-1.37-.69-2.74-1-4.12s-.53-2.82-.79-4.25c-.51-2.85-1-5.74-1.67-8.64-.32-1.47-.7-2.89-1.06-4.3s-.73-2.84-1.13-4.25c-1.56-5.66-3.27-11.28-5.32-16.79a162,162,0,0,0-7-16.19,108.07,108.07,0,0,0-9.08-15.15A88.64,88.64,0,0,0,100.12,50a63.64,63.64,0,0,0-11.34-8.53,11.53,11.53,0,0,1,0-3.16,20.54,20.54,0,0,1,.59-2.67c.27-.86.58-1.78.84-2.71s.5-2.07.68-3.12a19.94,19.94,0,0,1,3-.55,9.81,9.81,0,0,1,1.09-.07c3.15,0,10.21-1.23,11.94-2.1a9.2,9.2,0,0,1,4-.74c-2.23-4.15-9.58-4.72-14.72-4.89h0c-1.77-.13-3.62-.32-5.29-.51a20,20,0,0,0-1.68-5.27c-.25-.44-.46-.9-.74-1.33s-.56-.88-.89-1.26-.63-.79-1-1.15l-1-1.07a38.08,38.08,0,0,0-9.67-6.57A43.74,43.74,0,0,0,64.74.63,40.36,40.36,0,0,0,53,.26a45.74,45.74,0,0,0-5.81,1.09A47.85,47.85,0,0,0,22.57,16.91C17.48,23,14,30,11.07,37.12A202.22,202.22,0,0,0,3.45,58.68,84.33,84.33,0,0,0,0,81.67a66.54,66.54,0,0,0,4.38,23A80.84,80.84,0,0,0,15.8,124.89a101.39,101.39,0,0,0,16,16.73,69.85,69.85,0,0,0,9.58,6.64,53.64,53.64,0,0,0,10.77,4.67,64,64,0,0,0,11.41,2.31c1.68.2,3.35.34,5,.44l-.11.23c-.87,1.81-1.72,3.64-2.62,5.44S64,165,63,166.68a9.53,9.53,0,0,1-1.7,2.29,13.24,13.24,0,0,1-2.17,1.88,13.63,13.63,0,0,1-5.38,1.86,26.71,26.71,0,0,0-3,.59,5.09,5.09,0,0,0-2.68,1.63,5.34,5.34,0,0,0-1.37,2.79,3.24,3.24,0,0,0,.35,1.58,14.78,14.78,0,0,0-1.4,2.31,6.23,6.23,0,0,0-.61,3.26A8.38,8.38,0,0,0,46.17,188l1.53,2.78-.44-3.18c-.26-1.88-.18-4.1,1.22-5.25A10.7,10.7,0,0,1,51,180.88a3.75,3.75,0,0,0,.71-.55,5.89,5.89,0,0,0,.53-.64,11.42,11.42,0,0,1,1-1.1,16.92,16.92,0,0,1,2.3-1.93,8.77,8.77,0,0,1,2.61-1.35,7.33,7.33,0,0,1,1.46-.21,7.49,7.49,0,0,0,1.54-.25,2.77,2.77,0,0,0,.88-.43c.42.11.83.22,1.24.36a9.94,9.94,0,0,1,1.25.52,3.33,3.33,0,0,1,.54.35l.54.45a26.21,26.21,0,0,0,2.28,1.63,17.09,17.09,0,0,0,2.49,1.36,8.82,8.82,0,0,0,1.37.46,4.3,4.3,0,0,1,.66.25,16.73,16.73,0,0,1-1.82,1.66,15.07,15.07,0,0,1-3.7,2.08,33.38,33.38,0,0,1-4.14,1.35,43.78,43.78,0,0,0-4.3,1.28,7.5,7.5,0,0,0-3.74,2.69,14.06,14.06,0,0,0-1.15,1.95,4.87,4.87,0,0,0-.53,2.25,4,4,0,0,0,.29,1.32c-.08.14-.18.27-.26.41a25.8,25.8,0,0,0-2.07,4.1,9.92,9.92,0,0,0-.56,2.33,8.4,8.4,0,0,0,.13,2.45,11.48,11.48,0,0,0,2.07,4.27L55,211.06l-1-3.77c-.71-2.71-.92-6,1.1-7.92a7,7,0,0,1,1.66-1.26c.63-.37,1.34-.7,2-1.19a5.74,5.74,0,0,0,1-.9,3.94,3.94,0,0,0,.38-.53l.3-.46a17,17,0,0,1,1.36-1.74,27.83,27.83,0,0,1,3.2-3.13,13.49,13.49,0,0,1,3.77-2.3c.17-.06.34-.13.52-.18l.52-.12c.36-.09.75-.13,1.13-.21a12.83,12.83,0,0,0,2.25-.58,4,4,0,0,0,1.28-.76c.65.08,1.28.18,1.91.31a16,16,0,0,1,2,.54,5.19,5.19,0,0,1,.89.42l.89.55c1.2.72,2.44,1.39,3.71,2a27.73,27.73,0,0,0,4,1.56,13.53,13.53,0,0,0,2.12.45,4,4,0,0,1,.48.08,3.63,3.63,0,0,1,.45.1,5.87,5.87,0,0,1,.86.37,10.67,10.67,0,0,1,3,2.58,22.09,22.09,0,0,1,2.3,3.32l2.25,4-1-4.39a25,25,0,0,0-1.51-4.52,7.7,7.7,0,0,0-1.33-2.13c-.47-.53-1-1.16-1.52-1.73a19,19,0,0,0-3.64-3.1,17.74,17.74,0,0,0-4.38-2c-.39-.1-.77-.22-1.17-.3l-1.17-.22-1.09-.21c-.36-.07-.7-.18-1-.27a5,5,0,0,1-1.77-.91,2.17,2.17,0,0,1-.79-1.51,5.57,5.57,0,0,1,.25-2c.19-.7.45-1.41.72-2.12l1.6-4.32q3.21-8.64,6.33-17.32c.16-.42.31-.84.46-1.27a49.57,49.57,0,0,0,9.41-3.51,45.93,45.93,0,0,0,4.4-2.57,53.42,53.42,0,0,1,11.83,6.62c.23.18.48.35.7.53l.65.58,1.3,1.14,1.15,1.26c.19.22.39.41.58.64l.54.7a64.45,64.45,0,0,1,4.07,5.77,114,114,0,0,1,6.69,12.55c2,4.33,3.85,8.75,5.81,13.16s3.95,8.86,6.31,13.17a67.13,67.13,0,0,0,3.88,6.33,28.21,28.21,0,0,0,5.17,5.88,11.17,11.17,0,0,0,1.91,1.22,6.39,6.39,0,0,0,2.61.69,5.3,5.3,0,0,0,2.91-.76l.05,0c.19.12.45.29.7.48a11,11,0,0,0,1.93,1.19,7.55,7.55,0,0,0,2.47.72,5,5,0,0,0,2.44-.38,6.44,6.44,0,0,0,.8-.47,5,5,0,0,0,1.74-2.64A7.45,7.45,0,0,0,168.39,213.68Zm-86-55.24c-1,2.77-2,5.55-3.1,8.3s-2.12,5.52-3.36,8.15a19.08,19.08,0,0,1-1,1.86,7.22,7.22,0,0,1-.61.86l-.08.1a13,13,0,0,0-1.89-2A11.68,11.68,0,0,0,69.57,174a14.58,14.58,0,0,0-1.53-.53l-.7-.22-.66-.27a3.27,3.27,0,0,1-1-.75,1.47,1.47,0,0,1-.31-1.07,8.3,8.3,0,0,1,1-2.74l1.34-2.84c1.55-3.24,3-6.5,4.56-9.75.94,0,1.89,0,2.84,0a56.83,56.83,0,0,0,8.62-.86C83.24,156.11,82.81,157.28,82.39,158.44ZM68.52,27.14c0,3.47-3.16,6.29-7,6.29s-7-2.82-7-6.29,3.15-6.3,7-6.3S68.52,23.67,68.52,27.14Z"/></svg>