<svg xmlns="http://www.w3.org/2000/svg" viewBox="0 0 494.59 436.37"><defs><style>.cls-1{isolation:isolate;}.cls-2{fill:#453d3d;}.cls-3{fill:#f73900;}.cls-4,.cls-8{fill:#fff;}.cls-5{opacity:0.5;}.cls-5,.cls-6{mix-blend-mode:overlay;}.cls-6{opacity:0.75;}.cls-7,.cls-9{fill:none;}.cls-7,.cls-8,.cls-9{stroke:#000;stroke-miterlimit:10;}.cls-7{stroke-width:4.66px;}.cls-8{stroke-width:1.18px;}.cls-9{stroke-width:10px;}</style></defs><title>logo_header_color</title><g class="cls-1"><g id="Layer_2" data-name="Layer 2"><g id="Kleur"><path class="cls-2" d="M363,349.6c-9.69-17.51-17.89-30.66-25.2-47.72,2.85,2.1,4.63,1,4.57-1.39-.08-2.66-3-13.8-5.54-20.3s-5.61-11.95-8.41-32.31c-1.7-12.39-5.65-25.64-9.57-36.16l.52.09L309.9,182s-12.25-23.36-15.25-28.49a22.51,22.51,0,0,0-3.46-4.38,123.86,123.86,0,0,0-23.42-28.59,105.11,105.11,0,0,0-13.83-10.35c-.65-3-.57-6.73,1.08-12.08a46.34,46.34,0,0,0,1.55-6.89,30.66,30.66,0,0,1,7.76-1.33c5,0,16.23-2,19-3.34a14.76,14.76,0,0,1,6.4-1.18c-3.54-6.6-15.25-7.19-23.42-7.78-3.42-.24-7-.63-10.06-1a28.56,28.56,0,0,0-3.59-9c-5.46-8.78-26.78-23.32-52.16-21a72,72,0,0,0-41,18.41c-11.71,10.51-19,24.47-24.77,38.91-7.71,19.42-14.67,39.46-16.5,60.4-1.34,15.35.13,31.09,5.69,45.45,6.82,17.61,19.32,32.22,32.37,45.55,12.45,12.72,26.48,24.42,44,29.18a122.83,122.83,0,0,0,26.43,3.92c19.55.95,35.44-3.66,47.73-11.29l1.31.49,5.51,2.49,1.52.44c7.55,3.47,14.91,8,19.88,13.77,14.56,16.92,28.33,50.57,32.85,62.18s13,23.61,17.12,28.53,8.66,2.16,10,1.18,2-1.77,5.31.78,8.07,3.94,9.44-.78S375.2,371.64,363,349.6Z"/><path class="cls-3" d="M301.56,244.93s-9.33,21.79-24.42,30.43-24.53,11.75-33.66,12.44-29.89,1.5-42.34-3.06-18.49-7-25-12S145.38,247,134.23,229.23a119.76,119.76,0,0,1-16.52-43.18c-1.43-8.42,1.47-33.56,4-43.12s3.51-13.27,5.69-19.49,18.76-15.75,54-11.77,60.34,15.21,62.5,27.46c0,0,.11,1,.15,1.15a55.23,55.23,0,0,0,1.17,5.4c.5,1.5,1.24,4,1.24,4l1.39,3.52,1.68,4.13,1.92,4.38,6.15,12.3,10.62,19.29,14.66,23.36L295.86,237Z"/><ellipse cx="211.18" cy="86.66" rx="8.85" ry="7.67"/><path d="M244.13,93.29a2,2,0,0,0,.25.53,1.83,1.83,0,0,0,1.63.64,10,10,0,0,0,3.08-.86c1.17-.47,2.36-.91,3.56-1.31a54.39,54.39,0,0,1,7.42-2,23.42,23.42,0,0,1,4.26-.45c5,0,16.23-2,19-3.34a14.76,14.76,0,0,1,6.4-1.18c-3.54-6.6-15.23-7.51-23.42-7.78-6.78-.22-10.44-1.55-11.32,0s-.81,5.46-3.1,6.42a23.29,23.29,0,0,0-5.41,2.67A6.44,6.44,0,0,0,244,92.81,4.21,4.21,0,0,0,244.13,93.29Z"/><path class="cls-4" d="M207,81.37s-.49,3.42,6.46,3.66,7.45,1.77,7.77,3.54-.4-4.64-4.83-6.56A12.34,12.34,0,0,0,207,81.37Z"/><path d="M263.13,347.58,257.89,342l-6.79-4L241.85,336s-4.36-1.47-4.5-4.28,3.52-12.76,3.52-12.76L252,289.16l.28-.11,1.09-3a20.29,20.29,0,0,1-3.8,1.24,6.47,6.47,0,0,1-2.1.11L246.22,291l-2.75,7.32-5.21,15.15L235.31,321l-5.71,8.81L224.37,334l-3.1,1.58-9.1,3-5.88,1.28s-4.25,2.21-5,2.77-2.22,3.62-3.2,5.6.37,5.23.37,5.23-.95.38-3.23,6.48,1.17,11.57,1.17,11.57l0-2.06s1.29-6.7,1.55-7.27,7.24-6,7.24-6a40.44,40.44,0,0,0,6-6.7c3.33-4.51,11.3-8,11.3-8v-.06l2.39-.39a32.61,32.61,0,0,0,4.43-.92,12,12,0,0,0,2-1.21,40.23,40.23,0,0,1,4.59.75,40,40,0,0,1,4.89,2.09s5.66,3.19,7.62,3.76,8,2.21,8,2.21a44.3,44.3,0,0,1,6,3.28c1.54,1.23,4.34,3.57,4.34,3.57Z"/><path d="M229,324.57l-4.15-3.24-5.89-2.07s-2.75-1.32-2.64-3.26,3.22-8.52,3.22-8.52L227,291.86l.19,0,1.51-3.19a7.19,7.19,0,0,1-4.42-1.09L223.16,290l-.32.85L219.9,297l-4.48,10.23L212.09,312l-6.37,4.77-9.86,2.59-.46.06-.4.16c-.34.07-2,.39-3,.63s-2.75,2.66-3.79,4.27,0,4.62,0,4.62l.33-.1a26.55,26.55,0,0,0-1.87,3.43,10.19,10.19,0,0,0-.07,8l.14-1.42s1.32-4.51,1.53-4.88,5.17-3.62,5.17-3.62a27.21,27.21,0,0,0,4.39-4.17c2.51-2.87,8-4.68,8-4.68v0l1.59-.1a20.9,20.9,0,0,0,3-.32,8.32,8.32,0,0,0,1.42-.69,24.65,24.65,0,0,1,2.95.84,25.66,25.66,0,0,1,3,1.78,42.49,42.49,0,0,0,4.71,3.12c1.25.53,5.1,2.09,5.1,2.09a28.05,28.05,0,0,1,3.69,2.68c.92.95,2.59,2.75,2.59,2.75L232,328.75Z"/><path class="cls-5" d="M256.51,124s7.23-4.28,2.46-9.84-5.25-3.45-5.25-3.45l2.25,3.84,1.8,4.68S257.79,123.87,256.51,124Z"/><path class="cls-6" d="M341.48,309.85s-10.05,1.11-15.14-13.94-17.58-30.7-24.08-38.66S262.17,191.88,251.5,164c0,0,16.53,32.43,18.93,35.67S286.92,226,286.92,226s16.34,24.5,22.18,29.51,14.39,18.45,14.39,18.45l7.8,16,8.76,15Z"/><path d="M247.49,287q-1.55,4.22-3.08,8.43c-1.65,4.41-3.24,8.82-4.93,13.2s-3.37,8.77-5.34,12.94a24.93,24.93,0,0,1-1.58,3,9,9,0,0,1-1,1.37c-.35.47-.72.9-1.09,1.35a30.67,30.67,0,0,1-4.82,4.78,24.12,24.12,0,0,1-5.87,3.3,53.79,53.79,0,0,1-6.58,2.14,68.28,68.28,0,0,0-6.84,2.05,11.91,11.91,0,0,0-6,4.27,24.51,24.51,0,0,0-1.83,3.1,7.89,7.89,0,0,0-.84,3.58,7.19,7.19,0,0,0,1,3.18c.08-.12.17-.23.26-.34a6.75,6.75,0,0,1-.59-2.85c.1-2.26,1.57-4.17,3-6a10.74,10.74,0,0,1,5.53-3.5c2.17-.71,4.46-1.18,6.76-1.71a47.57,47.57,0,0,0,6.9-2,26.27,26.27,0,0,0,6.46-3.44,31.93,31.93,0,0,0,5.24-5.08c.38-.46.78-.92,1.14-1.39a12.86,12.86,0,0,0,1.08-1.5,26.63,26.63,0,0,0,1.76-3.25A267.93,267.93,0,0,0,246.14,296c1.06-3.22,2.07-6.46,3.06-9.71A6.3,6.3,0,0,1,247.49,287Z"/><path d="M227.24,334c-4.27,2.08-8.62,4-12.88,6a30.49,30.49,0,0,0-10.9,8.4,41.08,41.08,0,0,0-3.85,5.77,38.87,38.87,0,0,0-3,6.23,15.25,15.25,0,0,0-.73,3.2,10.61,10.61,0,0,0,.2,3.18,16.09,16.09,0,0,0,2.93,5.88l-2.08,1a22.32,22.32,0,0,1-.8-7.63,12.87,12.87,0,0,1,.91-3.89,9.6,9.6,0,0,1,1-1.8,13.39,13.39,0,0,1,1.29-1.53,14,14,0,0,1,3.18-2.31c1.12-.61,2.2-1.09,3.09-1.7a6.11,6.11,0,0,0,1.16-1,5.5,5.5,0,0,0,.47-.61l.54-.8a32.07,32.07,0,0,1,2.41-2.87,41.87,41.87,0,0,1,5.52-5,22.6,22.6,0,0,1,6.58-3.54c.31-.08.61-.18.92-.25l1-.15c.62-.09,1.21-.11,1.81-.19a20.14,20.14,0,0,0,3.51-.64,5.66,5.66,0,0,0,2.91-1.84,11.22,11.22,0,0,0,1.71-3.16,11.26,11.26,0,0,1-1.42,3.38,6.19,6.19,0,0,1-3,2.22,20.73,20.73,0,0,1-3.58.93c-.6.12-1.22.2-1.8.33l-.83.19c-.28.08-.55.2-.82.29a21.58,21.58,0,0,0-6,3.66,42,42,0,0,0-5.1,5,29.65,29.65,0,0,0-2.16,2.78l-.47.72a8.27,8.27,0,0,1-.61.85,8.11,8.11,0,0,1-1.51,1.42c-1.1.78-2.24,1.31-3.24,1.89a11.8,11.8,0,0,0-2.64,2c-3.21,3-2.87,8.28-1.74,12.59l1.56,6-3.64-4.95a18.46,18.46,0,0,1-3.28-6.8,13,13,0,0,1-.21-3.89,15.83,15.83,0,0,1,.89-3.71,41,41,0,0,1,3.29-6.52,38.82,38.82,0,0,1,4.23-5.91,28.92,28.92,0,0,1,5.44-4.87,34.41,34.41,0,0,1,6.39-3.4C218.35,337.31,222.76,335.61,227.24,334Z"/><path d="M269.45,358.06a40.87,40.87,0,0,0-2.39-7.18,12.51,12.51,0,0,0-2.13-3.4c-.75-.84-1.56-1.83-2.41-2.74a29.7,29.7,0,0,0-5.79-4.92,27.47,27.47,0,0,0-7-3.13c-.61-.16-1.22-.34-1.84-.48l-1.87-.35-1.73-.32c-.58-.11-1.11-.3-1.67-.44a8,8,0,0,1-2.82-1.44,3.44,3.44,0,0,1-1.25-2.4,8.71,8.71,0,0,1,.4-3.2c.3-1.11.71-2.24,1.13-3.37l2.55-6.87q5.11-13.74,10.07-27.53c.59-1.62,1.15-3.24,1.73-4.87a6.37,6.37,0,0,1-1.31,0c-.59,1.45-1.19,2.9-1.77,4.36Q246,303.4,240.65,317.06L238,323.89c-.44,1.15-.87,2.33-1.22,3.57a11,11,0,0,0-.49,4,5.83,5.83,0,0,0,2,3.92,10.37,10.37,0,0,0,3.63,1.92c.62.16,1.25.37,1.87.5l1.87.36,1.73.33c.57.12,1.13.29,1.7.43a25.12,25.12,0,0,1,6.38,2.82,27.47,27.47,0,0,1,5.37,4.51c.82.87,1.55,1.78,2.45,2.74a10.37,10.37,0,0,1,1.77,2.77c0,.09.07.18.11.26a18.39,18.39,0,0,0-5.23-4.24,9.4,9.4,0,0,0-1.7-.67,12.58,12.58,0,0,0-1.78-.31,20.2,20.2,0,0,1-3.13-.57,42.43,42.43,0,0,1-6.14-2.19c-2-.87-4-1.86-5.91-2.89l-1.45-.79a8.37,8.37,0,0,0-1.63-.67,23.78,23.78,0,0,0-3.3-.74c-.95-.14-1.92-.25-2.88-.33a7.84,7.84,0,0,1-.61.54c1.13.14,2.25.32,3.35.54a23,23,0,0,1,3.14.86,8.32,8.32,0,0,1,1.41.66l1.43.87a65.48,65.48,0,0,0,5.89,3.18,43.43,43.43,0,0,0,6.28,2.49,20.8,20.8,0,0,0,3.37.72,5.82,5.82,0,0,1,.77.13,4.29,4.29,0,0,1,.71.16,7.45,7.45,0,0,1,1.37.59,16.62,16.62,0,0,1,4.72,4.09,35.79,35.79,0,0,1,3.66,5.28l3.57,6.29Z"/><path d="M224,287.69c-.59,1.23-1.18,2.46-1.76,3.69-1.4,2.89-2.75,5.79-4.17,8.66s-2.81,5.75-4.38,8.47a15.34,15.34,0,0,1-2.71,3.64,18.17,18.17,0,0,1-12,5.94,45,45,0,0,0-4.7,1,7.87,7.87,0,0,0-4.26,2.59,8.41,8.41,0,0,0-2.18,4.43,6.12,6.12,0,0,0,1.18,3.67l.07-.13a6.15,6.15,0,0,1-.76-3.49,7.78,7.78,0,0,1,2.38-3.86,6.92,6.92,0,0,1,3.87-2c1.48-.34,3-.49,4.61-.69a18.77,18.77,0,0,0,13.09-6.09,17.5,17.5,0,0,0,3-4A189.23,189.23,0,0,0,223.53,292c.59-1.38,1.14-2.78,1.71-4.17A6.77,6.77,0,0,1,224,287.69Z"/><path d="M209.53,316.87c-2.95,1.17-6,2.2-8.92,3.33a20,20,0,0,0-7.67,5.08,28.88,28.88,0,0,0-2.87,3.69,24.93,24.93,0,0,0-2.34,4,8.27,8.27,0,0,0-.75,4.23,11.25,11.25,0,0,0,1.48,4.16l-1.73.65a16.07,16.07,0,0,1,0-5.27,9.44,9.44,0,0,1,.85-2.62,8.2,8.2,0,0,1,.78-1.2,11,11,0,0,1,.95-1c1.38-1.26,3.23-1.71,4.45-2.36a4.12,4.12,0,0,0,.82-.6,8.27,8.27,0,0,0,.74-.86,22,22,0,0,1,1.79-1.82,20.59,20.59,0,0,1,8.61-5,11.28,11.28,0,0,1,2.5-.14,13.25,13.25,0,0,0,2.36-.17,3.68,3.68,0,0,0,2-1.06,7.79,7.79,0,0,0,1.35-2,8.28,8.28,0,0,1-1.14,2.21,4.07,4.07,0,0,1-2.12,1.35,13.06,13.06,0,0,1-2.45.41,9.4,9.4,0,0,0-2.32.34,14.15,14.15,0,0,0-4.16,2.13,28.89,28.89,0,0,0-3.66,3.07,19.84,19.84,0,0,0-1.57,1.75,11.36,11.36,0,0,1-.84,1,5.78,5.78,0,0,1-1.13.87c-1.63.88-3.05,1.24-4.09,2.27-2.21,1.84-2.34,5.37-1.92,8.35l.7,5.05-2.44-4.41a13.11,13.11,0,0,1-1.66-4.91,9.8,9.8,0,0,1,1-5.18,26.54,26.54,0,0,1,2.61-4.25,25.91,25.91,0,0,1,3.18-3.77,20,20,0,0,1,8.4-4.9C203.4,318.48,206.44,317.63,209.53,316.87Z"/><path d="M234.5,331.26a9.07,9.07,0,0,0-1.16-2.53c-.42-.62-.88-1.37-1.38-2.06a19.59,19.59,0,0,0-3.49-3.85,17.82,17.82,0,0,0-4.44-2.68,20,20,0,0,0-2.43-.85l-1.11-.35-1.05-.43a5.1,5.1,0,0,1-1.65-1.2,2.37,2.37,0,0,1-.48-1.7,13.38,13.38,0,0,1,1.53-4.35l2.14-4.52c2.88-6,5.66-12.09,8.47-18.15l.19-.42a6.31,6.31,0,0,1-1-.44l-.18.36c-3,6-6.06,11.89-9,17.88l-2.22,4.48a14.71,14.71,0,0,0-1.75,5.05,4.3,4.3,0,0,0,.88,3,6.91,6.91,0,0,0,2.29,1.74c.4.18.81.34,1.22.51l1.24.39a23,23,0,0,1,2.21.77,16.37,16.37,0,0,1,7.19,5.85l1.41,2.07a6,6,0,0,1,.68,1.31,11.13,11.13,0,0,0-2.54-2.49,5.93,5.93,0,0,0-2.25-1,12.31,12.31,0,0,1-2-.59,26.24,26.24,0,0,1-3.86-1.93c-1.25-.73-2.45-1.56-3.66-2.39l-.89-.64a5.51,5.51,0,0,0-1-.59,15.36,15.36,0,0,0-2.13-.74c-.61-.17-1.23-.31-1.86-.43a6.42,6.42,0,0,1-.53.38q1.13.27,2.22.63a15.86,15.86,0,0,1,2,.83,5.09,5.09,0,0,1,.86.56l.87.71a44.18,44.18,0,0,0,3.62,2.6,27.38,27.38,0,0,0,4,2.15,13.11,13.11,0,0,0,2.19.74,4.72,4.72,0,0,1,1.74.82,11.19,11.19,0,0,1,2.71,3.14,24.6,24.6,0,0,1,2,3.82l.74,1.79a5.81,5.81,0,0,1,1-.51l-.19-1.67A30,30,0,0,0,234.5,331.26Z"/><path d="M244.86,93.05c.08.12.13.31.19.37a.77.77,0,0,0,.3.18,2.21,2.21,0,0,0,1.07,0,14,14,0,0,0,2.63-.88c1.87-.7,3.71-1.5,5.62-2.09a59.64,59.64,0,0,1,5.83-1.6,27.48,27.48,0,0,1,3.08-.49l1.49-.11c.46,0,.94-.11,1.41-.16a90.75,90.75,0,0,0,11.31-2.45c.92-.26,1.83-.54,2.69-.84.43-.15.84-.31,1.21-.47.2-.08.29-.16.44-.23s.54-.28.81-.4a14.77,14.77,0,0,1,3.43-1c.57-.11,1.13-.19,1.7-.25s1.08-.09,1.79-.09l-2.65,4.18a8,8,0,0,0-1.73-1.82,16.72,16.72,0,0,0-2.38-1.6,27.28,27.28,0,0,0-6.18-2.16A63.05,63.05,0,0,0,270,79.93c-1.17-.15-2.36-.27-3.55-.38s-2.49-.25-3.71-.44-2.44-.39-3.62-.57c-.59-.1-1.17-.19-1.71-.24a5.12,5.12,0,0,0-1.29,0c-.1,0,0,0,0,0a2,2,0,0,0-.27.54c-.18.48-.34,1.06-.51,1.66a8.26,8.26,0,0,1-1.87,3.71,3.83,3.83,0,0,1-1,.7,9.44,9.44,0,0,1-.91.36l-1.67.64a12.34,12.34,0,0,0-3,1.59A5.62,5.62,0,0,0,244.86,93.05Zm-1.47.47a7.17,7.17,0,0,1,2.41-7.39,14,14,0,0,1,3.3-2l1.68-.75a6.38,6.38,0,0,0,.77-.35,1.45,1.45,0,0,0,.44-.35,6.38,6.38,0,0,0,1-2.83c.13-.58.23-1.19.42-1.86a5.18,5.18,0,0,1,.44-1.13,2.73,2.73,0,0,1,1.36-1.12,6.31,6.31,0,0,1,2.31-.33c.67,0,1.29,0,1.91.06,1.22.07,2.41.13,3.6.16s2.35,0,3.54,0,2.46,0,3.7,0a60.2,60.2,0,0,1,7.53.48,30.32,30.32,0,0,1,7.7,2,14.64,14.64,0,0,1,3.75,2.26A12.12,12.12,0,0,1,292.21,84l2.66,4.84-5.31-.66c-.28,0-.77,0-1.17,0s-.83,0-1.24.06a10.48,10.48,0,0,0-2.28.44l-.54.2a8.78,8.78,0,0,1-.92.34c-.56.18-1.09.31-1.61.43-1,.23-2,.42-3.05.58a91.92,91.92,0,0,1-12.05,1.09c-.52,0-1,0-1.54,0l-1.47,0a20.58,20.58,0,0,0-2.8.16,44.77,44.77,0,0,0-5.68,1.09c-1.88.49-3.72,1.13-5.56,1.78a15.11,15.11,0,0,1-3,.93,3.84,3.84,0,0,1-1.85-.11,2.17,2.17,0,0,1-.93-.63A3.67,3.67,0,0,1,243.39,93.52Z"/><ellipse class="cls-7" cx="211.18" cy="86.66" rx="8.85" ry="7.67"/><path d="M237.3,54.64A35,35,0,0,1,242.6,57a42.31,42.31,0,0,1,5,3.15A30.13,30.13,0,0,1,255.72,69l.74,1.39.36.69.28.75.55,1.49a13.65,13.65,0,0,1,.38,1.56c.11.52.23,1.06.32,1.57l.18,1.45c.12,1,.22,1.93.32,2.9.19,2,.32,3.91.34,5.93a27.72,27.72,0,0,1-.63,6.22c-.24,1-.53,2-.78,2.87s-.48,1.79-.71,2.72c-.49,1.82-.91,3.63-1.24,5.41a19.26,19.26,0,0,0-.38,5.07,4.56,4.56,0,0,0,.19,1,3.3,3.3,0,0,0,.19.55l.26.62c.35.84.74,1.71,1.14,2.6s.79,1.8,1.14,2.76a14.07,14.07,0,0,1,.83,3.13,7,7,0,0,1,0,1.88,5.44,5.44,0,0,1-.74,1.85,5.16,5.16,0,0,1-3,2.11,18.42,18.42,0,0,1-6.06.28,54.54,54.54,0,0,1-5.75-.85c1.92-.14,3.85-.26,5.73-.46a18.31,18.31,0,0,0,5.3-1.15,2.68,2.68,0,0,0,1.45-1.29,2.29,2.29,0,0,0,.21-.85,4.33,4.33,0,0,0-.15-1,23.14,23.14,0,0,0-2.22-4.77c-.46-.83-1-1.66-1.42-2.55-.12-.23-.24-.45-.35-.69s-.22-.45-.34-.78a8.41,8.41,0,0,1-.49-1.79,21.45,21.45,0,0,1,.08-6.37c.27-2,.69-3.94,1.13-5.84s1-3.88,1.42-5.53a23.74,23.74,0,0,0,.57-5.2c.05-1.81,0-3.68-.13-5.55-.06-.94-.1-1.88-.18-2.83l-.1-1.42L254,75.64a10.19,10.19,0,0,0-.21-1.25l-.35-1.24-.17-.62-.25-.61-.49-1.21c-.37-.8-.83-1.57-1.26-2.35s-1-1.52-1.53-2.24S248.59,64.64,248,64l-.93-1-1-1c-.63-.7-1.34-1.31-2-2s-1.42-1.25-2.16-1.85C240.41,56.89,238.89,55.74,237.3,54.64Z"/><path d="M381.13,383.24a26.84,26.84,0,0,0-1.32-6.47,89.75,89.75,0,0,0-4.53-11.06c-3.38-7-7.07-13.8-10.86-20.47s-7.63-13.27-11.33-19.92-7.25-13.34-10.53-20.16c-1-2-1.92-4.07-2.84-6.12a5.39,5.39,0,0,1-4.08-2.81,51.71,51.71,0,0,1-4.47-10.37,126.85,126.85,0,0,1-6.87-13.2l4.81,13.27c2.56,7.21,5.31,14.47,8.43,21.53,6.12,14.22,13.78,27.61,21,41,3.65,6.7,7.29,13.36,10.47,20.16a85.28,85.28,0,0,1,4.1,10.18,20.39,20.39,0,0,1,1,4.74,4.91,4.91,0,0,1-.13,1.65,1.76,1.76,0,0,1-.25.55,2.58,2.58,0,0,1-.29,0,5.09,5.09,0,0,1-1.55-.47,10,10,0,0,1-1.81-1.11,14,14,0,0,0-3.35-2L366,382a7.5,7.5,0,0,0-.87-.15,5.41,5.41,0,0,0-2,.2,8.19,8.19,0,0,0-2.07,1c-.43.18-.48.27-.83.24a6.29,6.29,0,0,1-3.12-1.53,38.4,38.4,0,0,1-6.9-7.82c-2.11-3-4.05-6.18-5.93-9.42-7.47-13-13.09-27.27-20.15-41a170.81,170.81,0,0,0-11.73-20.09,110.39,110.39,0,0,0-7.21-9.22l-1-1.11c-.33-.36-.71-.71-1.06-1.06L301,290c-.76-.64-1.55-1.24-2.32-1.87l-1.17-.92c-.4-.3-.82-.55-1.23-.83a85.7,85.7,0,0,0-21-9.93L274,276a6.73,6.73,0,0,1-.88,1.62l1.47.59a86.13,86.13,0,0,1,19.69,10.9c.36.29.75.55,1.1.84l1,.92,2.06,1.82,1.84,2c.3.34.62.66.91,1l.87,1.11a105.39,105.39,0,0,1,6.47,9.19A183.53,183.53,0,0,1,319.15,326c3.18,6.88,6.12,13.91,9.23,20.93s6.28,14.08,10,20.93a107.29,107.29,0,0,0,6.16,10.07,44.89,44.89,0,0,0,8.23,9.34,16.69,16.69,0,0,0,3,1.94,9.94,9.94,0,0,0,4.14,1.1,8.44,8.44,0,0,0,4.63-1.21l.08-.05a11.41,11.41,0,0,1,1.1.77,17.54,17.54,0,0,0,3.07,1.89,11.71,11.71,0,0,0,3.93,1.14,7.85,7.85,0,0,0,2.52-.15,6.44,6.44,0,0,0,2.63-1.2,8,8,0,0,0,2.78-4.19A11.88,11.88,0,0,0,381.13,383.24Z"/><path d="M345.72,297.62c-.2-.76-.38-1.31-.56-1.85l-.55-1.66-2.17-6.62c-1.47-4.4-2.89-8.87-4.38-13.2s-2.87-8.67-4-13c-.57-2.18-1.09-4.36-1.53-6.56s-.85-4.47-1.26-6.74c-.82-4.53-1.63-9.13-2.66-13.75-.51-2.33-1.11-4.59-1.68-6.84s-1.16-4.51-1.8-6.75c-2.49-9-5.2-17.93-8.46-26.69a256.88,256.88,0,0,0-11.14-25.74,173.34,173.34,0,0,0-14.44-24.09A141.31,141.31,0,0,0,272.6,123a101.09,101.09,0,0,0-19.53-14.48,5.29,5.29,0,0,1,.15,2.47,100.67,100.67,0,0,1,17.2,14.26,146.42,146.42,0,0,1,17.16,21.3,185.64,185.64,0,0,1,13.31,23.93c7.76,16.56,13.49,34.05,18.08,51.81.59,2.22,1.13,4.45,1.66,6.68s1.09,4.46,1.53,6.66c.92,4.43,1.63,9,2.41,13.54.39,2.29.8,4.59,1.25,6.9s1,4.67,1.59,7c1.18,4.6,2.59,9.09,4.08,13.52s2.86,8.78,4.29,13.17l1.63,5c-.3-.63-.61-1.27-.91-1.91-1.9-4.12-3.67-8.39-5.64-12.68-.5-1.08-1-2.12-1.54-3.22s-1.13-2.19-1.74-3.25c-1.23-2.12-2.57-4.14-4-6.09s-2.86-3.85-4.37-5.6l-4.48-5.36-4.41-5.31c-1.44-1.76-2.84-3.56-4.21-5.38-2.76-3.64-5.41-7.38-8-11.16-5.26-7.56-10.48-15.19-15.44-22.95q-3.76-5.81-7.59-11.58l-7.2-11.8-3.61-5.91c-1.21-2-2.43-3.92-3.56-5.93-2.3-4-4.53-8-6.65-12.12s-4.19-8.21-6-12.44c-.9-2.12-1.75-4.26-2.47-6.45a36.82,36.82,0,0,1-1.68-6.71,37.34,37.34,0,0,0,1.09,6.88c.54,2.26,1.18,4.5,1.93,6.7,1.51,4.41,3.27,8.71,5.12,13s3.88,8.45,5.95,12.61,4.35,8.2,6.55,12.29l6.69,12.22q3.54,6,7.14,11.95c4.74,8,9.7,15.83,14.76,23.62,2.56,3.88,5.19,7.74,7.94,11.54q2.06,2.85,4.22,5.64c1.46,1.87,2.92,3.67,4.35,5.45,2.84,3.59,5.86,7.15,8.41,10.77,1.28,1.82,2.49,3.67,3.57,5.56.54.94,1.05,1.9,1.52,2.87s1,2,1.42,3.05c1.87,4.13,3.61,8.42,5.56,12.72.49,1.07,1,2.15,1.51,3.22s1,2.05,1.76,3.39a10.13,10.13,0,0,0,1.62,2.05,7.31,7.31,0,0,0,2.79,1.71,6.67,6.67,0,0,0,3.69.18,5.87,5.87,0,0,0,3.48-2.5A7.65,7.65,0,0,0,345.72,297.62ZM340,299.38h0Z"/><path d="M300.47,245.69A67.25,67.25,0,0,1,266.66,279a80.13,80.13,0,0,1-34,6.78,137.55,137.55,0,0,1-17.51-1.39,96,96,0,0,1-16.95-3.9,79.18,79.18,0,0,1-15.59-7.27,105.67,105.67,0,0,1-14.1-10.14,154.22,154.22,0,0,1-23.73-25.73A124,124,0,0,1,128,207a97.75,97.75,0,0,1-6.26-33.74c-.12-11.49,1.91-23,5-34.34s7.29-22.43,11.59-33.56c4.24-11,9.38-21.51,16.6-30.4a69.61,69.61,0,0,1,12.3-11.83A70.81,70.81,0,0,1,182,54.52a74.58,74.58,0,0,1,8.07-2.9,70.77,70.77,0,0,1,8.39-1.8,61.84,61.84,0,0,1,17.08,0,63.75,63.75,0,0,1,16.56,4.75,57.46,57.46,0,0,1,14.63,9.1l1.54,1.46c.51.49.95,1,1.43,1.53s.82,1.08,1.25,1.61.73,1.18,1.1,1.76a28.72,28.72,0,0,1,2.87,8,41.86,41.86,0,0,1-.26,17.26c-.3,1.43-.7,2.83-1.07,4.35a31.75,31.75,0,0,0-.73,4.57,18.78,18.78,0,0,0,1.44,9.14c.6,1.42,1.36,2.74,2.05,4a9.08,9.08,0,0,1,1.29,4.06,2.88,2.88,0,0,1-.77,1.87,3.71,3.71,0,0,1-.76.73,5.17,5.17,0,0,1-1,.42,19.81,19.81,0,0,1-4.42.64,20,20,0,0,0,4.5-.34,4.67,4.67,0,0,0,1.1-.39,3.59,3.59,0,0,0,.92-.75,3.41,3.41,0,0,0,1-2.13,9.74,9.74,0,0,0-1.07-4.51c-.62-1.39-1.26-2.72-1.73-4.1a17.46,17.46,0,0,1-.85-8.5,32.89,32.89,0,0,1,.93-4.25c.42-1.37.93-2.82,1.34-4.31A43.64,43.64,0,0,0,258,77.43a32.25,32.25,0,0,0-2.81-9c-.39-.7-.73-1.42-1.17-2.1s-.9-1.41-1.42-2-1-1.26-1.54-1.83l-1.65-1.71A60.52,60.52,0,0,0,234,50.31a69.26,69.26,0,0,0-17.68-5.78,64.24,64.24,0,0,0-18.73-.6,74.11,74.11,0,0,0-9.22,1.73,77.45,77.45,0,0,0-8.92,2.92A76.55,76.55,0,0,0,149.31,70.4C141.22,80,135.6,91.26,131,102.53a322.59,322.59,0,0,0-12.11,34.28c-3.28,11.76-5.54,24-5.48,36.55a105.45,105.45,0,0,0,7,36.53,128.42,128.42,0,0,0,18.15,32.18,161.5,161.5,0,0,0,25.35,26.6,110.27,110.27,0,0,0,15.24,10.56,85.89,85.89,0,0,0,17.12,7.42,103.12,103.12,0,0,0,18.14,3.68,130.4,130.4,0,0,0,18.34.88,84.5,84.5,0,0,0,35.67-8.53,68.39,68.39,0,0,0,33.29-36A6.54,6.54,0,0,1,300.47,245.69Z"/><path class="cls-8" d="M255.85,83.31a2.49,2.49,0,0,0-.07.53,1.1,1.1,0,0,0,.2.73,1.2,1.2,0,0,0,1,.36,9.08,9.08,0,0,0,2.83-.85,9.35,9.35,0,0,1,2.16-.74,2.52,2.52,0,0,0,1.81-1.12,1.09,1.09,0,0,0,.16-.8c-.15-.58-.91-.79-1.43-.89a3.18,3.18,0,0,0-1.7.1,2.87,2.87,0,0,0-.39.2,8.51,8.51,0,0,1-2.64.69,2.67,2.67,0,0,0-1.37.69A2.63,2.63,0,0,0,255.85,83.31Z"/></g><g id="Border"><path class="cls-9" d="M355.94,5H138.65A25,25,0,0,0,117,17.5L8.35,205.68a25,25,0,0,0,0,25L117,418.87a25,25,0,0,0,21.65,12.5H355.94a25,25,0,0,0,21.65-12.5L486.24,230.68a25,25,0,0,0,0-25L377.59,17.5A25,25,0,0,0,355.94,5Z"/></g></g></g></svg>