<svg xmlns="http://www.w3.org/2000/svg" viewBox="0 0 93.96 190"><defs><style>.cls-1{fill:#f73900;}</style></defs><title>logo_r_hover</title><g id="Layer_2" data-name="Layer 2"><g id="Layer_1-2" data-name="Layer 1"><path class="cls-1" d="M54.28,114.1a.94.94,0,0,1,.47-1.31C77.85,103.14,94,83.26,94,58.63,94,26.33,67.36,0,34.79,0H10.86a.94.94,0,0,0-.94.94V38.06a.94.94,0,0,0,.94.94H31.09A20.63,20.63,0,0,1,51.55,59.46C51.55,70.77,42.12,81,31.09,81H10.86a.94.94,0,0,0-.94.94v32.22a7.05,7.05,0,0,0,.74,3.16l35.26,70.24A5,5,0,0,0,50.26,190h36.1c4.61,0,6.51-4.34,4.61-7.87Z"/><path class="cls-1" d="M35.43,89.32a3.74,3.74,0,0,0-.18-.86,12.74,12.74,0,0,0-.6-1.46c-.45-.93-.93-1.83-1.44-2.71s-1-1.75-1.5-2.63-.93-1.72-1.35-2.6a.64.64,0,0,0,.28-.26,1,1,0,0,0,.1-.81c0-.1,0-.17-.08-.25l-.07-.21-.29-.88-.57-1.75c-.2-.57-.38-1.14-.54-1.72-.07-.29-.14-.58-.2-.87s-.11-.59-.17-.89c-.1-.6-.21-1.21-.35-1.82-.06-.31-.14-.61-.22-.91s-.15-.59-.24-.89c-.33-1.19-.69-2.37-1.12-3.53a35.38,35.38,0,0,0-1.47-3.41,23.29,23.29,0,0,0-1.91-3.18,18.7,18.7,0,0,0-2.45-2.8,13.41,13.41,0,0,0-2.38-1.8,2.09,2.09,0,0,1,0-.66,3.48,3.48,0,0,1,.12-.56l.18-.57c.06-.22.1-.44.14-.66a4.83,4.83,0,0,1,.62-.12H20a9.43,9.43,0,0,0,2.51-.44,2.05,2.05,0,0,1,.85-.16c-.47-.87-2-1-3.1-1h0c-.37,0-.76-.06-1.11-.1a4.37,4.37,0,0,0-.36-1.11l-.15-.28c-.07-.09-.12-.19-.19-.27s-.13-.16-.21-.24L18,46.64a8.52,8.52,0,0,0-2-1.38,9.56,9.56,0,0,0-2.34-.76,8.58,8.58,0,0,0-2.48-.08,10.09,10.09,0,0,0-1.22.23A8.58,8.58,0,0,0,8.74,45a10.09,10.09,0,0,0-4,2.88,15.66,15.66,0,0,0-2.42,4.25,41.36,41.36,0,0,0-1.6,4.54A17.45,17.45,0,0,0,0,61.55a14,14,0,0,0,.92,4.83,17.32,17.32,0,0,0,2.4,4.26,21.93,21.93,0,0,0,3.36,3.52,14.24,14.24,0,0,0,2,1.4,11.36,11.36,0,0,0,2.26,1,14.4,14.4,0,0,0,2.4.49c.35,0,.71.07,1.06.09l0,0c-.18.39-.36.77-.55,1.15s-.37.76-.58,1.12a1.85,1.85,0,0,1-.35.48,3.38,3.38,0,0,1-.46.4,2.92,2.92,0,0,1-1.13.39c-.21,0-.42.06-.63.12a1,1,0,0,0-.56.35,1.1,1.1,0,0,0-.29.58,1,1,0,0,0,.07.34,3.22,3.22,0,0,0-.29.48,1.35,1.35,0,0,0-.13.69,2,2,0,0,0,.22.65l.33.58-.1-.67a1.23,1.23,0,0,1,.26-1.1,2.26,2.26,0,0,1,.54-.3.79.79,0,0,0,.15-.12l.11-.13a1.51,1.51,0,0,1,.21-.23,3.72,3.72,0,0,1,.48-.41,1.79,1.79,0,0,1,.55-.28,1.06,1.06,0,0,1,.31,0,1.64,1.64,0,0,0,.32,0,.66.66,0,0,0,.19-.09l.26.07.26.11.12.08.11.09a4.21,4.21,0,0,0,.48.35,5.21,5.21,0,0,0,.52.28,1.66,1.66,0,0,0,.29.1l.14,0a3.09,3.09,0,0,1-.38.35,3.73,3.73,0,0,1-.78.44,8,8,0,0,1-.87.28,7.84,7.84,0,0,0-.91.27,1.58,1.58,0,0,0-.78.57,2.8,2.8,0,0,0-.25.41,1.08,1.08,0,0,0-.11.47,1.27,1.27,0,0,0,.06.28.22.22,0,0,1-.05.08,6.44,6.44,0,0,0-.44.87,2.5,2.5,0,0,0-.11.49,1.75,1.75,0,0,0,0,.51,2.52,2.52,0,0,0,.44.9l.48.66-.21-.8a1.7,1.7,0,0,1,.23-1.66,1.56,1.56,0,0,1,.35-.27,2.79,2.79,0,0,0,.43-.25.89.89,0,0,0,.2-.19.44.44,0,0,0,.08-.11l.06-.09c.09-.13.19-.25.29-.37a6,6,0,0,1,.67-.66,3,3,0,0,1,.8-.48l.11,0,.11,0,.23,0a2.81,2.81,0,0,0,.48-.12.92.92,0,0,0,.27-.16l.4.06a2.77,2.77,0,0,1,.41.12l.19.08.19.12q.38.23.78.42a6,6,0,0,0,.83.33,2.24,2.24,0,0,0,.45.09l.1,0,.09,0,.18.08a2.32,2.32,0,0,1,.63.54,5.43,5.43,0,0,1,.48.7l.48.83L20.65,86a5.05,5.05,0,0,0-.32-.95,1.67,1.67,0,0,0-.28-.45l-.32-.36A3.5,3.5,0,0,0,18,83.16l-.24-.06-.25,0-.23,0L17.1,83a1,1,0,0,1-.37-.19.44.44,0,0,1-.17-.32,1.27,1.27,0,0,1,.05-.42c0-.15.1-.3.15-.45l.34-.91c.45-1.21.9-2.42,1.33-3.64,0-.09.07-.18.1-.27a10,10,0,0,0,2-.74,8.65,8.65,0,0,0,.93-.54,11.47,11.47,0,0,1,2.49,1.4l.14.11.14.12.27.24.24.27.13.13.11.15a14.71,14.71,0,0,1,.86,1.21,23.78,23.78,0,0,1,1.4,2.64c.42.91.81,1.84,1.22,2.77s.84,1.86,1.33,2.77a15.35,15.35,0,0,0,.82,1.33,6,6,0,0,0,1.09,1.24,2.51,2.51,0,0,0,.4.26,1.48,1.48,0,0,0,.55.14,1.05,1.05,0,0,0,.61-.16h0l.15.11a2.26,2.26,0,0,0,.4.25,1.59,1.59,0,0,0,.52.15,1.35,1.35,0,0,0,.34,0,1.27,1.27,0,0,0,.18-.06l.16-.1a1,1,0,0,0,.37-.56A1.69,1.69,0,0,0,35.43,89.32ZM17.33,77.7c-.21.58-.43,1.17-.65,1.74s-.44,1.17-.71,1.72c-.06.13-.13.27-.2.39l-.13.18,0,0a2.65,2.65,0,0,0-.4-.42,2.17,2.17,0,0,0-.58-.36,2.13,2.13,0,0,0-.33-.11l-.14,0L14,80.75a.61.61,0,0,1-.22-.15.31.31,0,0,1-.06-.23,1.7,1.7,0,0,1,.2-.57l.28-.6c.33-.68.64-1.37,1-2h.6A11,11,0,0,0,17.6,77ZM14.42,50.07a1.42,1.42,0,0,1-1.48,1.33,1.33,1.33,0,1,1,0-2.65A1.41,1.41,0,0,1,14.42,50.07Z"/></g></g></svg>