<svg xmlns="http://www.w3.org/2000/svg" xmlns:xlink="http://www.w3.org/1999/xlink" viewBox="0 0 770 638.15"><defs><style>.cls-1{fill:none;}.cls-2{fill:#b3b3b3;}.cls-3{clip-path:url(#clip-path);}.cls-4{fill:#999;}.cls-5{fill:#fff;}.cls-6{fill:#3fa9f5;}.cls-7{fill:#3183bf;}.cls-8{fill:#ccc;}</style><clipPath id="clip-path"><rect class="cls-1" x="284.03" y="522.58" width="193.05" height="17.38"/></clipPath></defs><title>mac</title><g id="Layer_2" data-name="Layer 2"><g id="Design_Mac" data-name="Design Mac"><path class="cls-2" d="M497.61,627c-4.1-2.61-17.33-10.87-22.88-15.65s-7.07-8.6-7.9-17.41-7.68-75-7.68-75H310.85s-6.84,66.25-7.68,75-2.35,12.63-7.9,17.41-18.78,13-22.88,15.65-3.75,3.49-3.75,3.49v1.16c0,.36,0,.36.9,1.82s3.21,1.55,3.21,1.55h224.5s2.31-.09,3.21-1.55.9-1.46.9-1.82v-1.16S501.71,629.6,497.61,627Z"/><g class="cls-3"><path class="cls-4" d="M497.61,627c-4.1-2.61-17.33-10.87-22.88-15.65s-7.07-8.6-7.9-17.41-7.68-75-7.68-75H310.85s-6.84,66.25-7.68,75-2.35,12.63-7.9,17.41-18.78,13-22.88,15.65-3.75,3.49-3.75,3.49v1.16c0,.36,0,.36.9,1.82s3.21,1.55,3.21,1.55h224.5s2.31-.09,3.21-1.55.9-1.46.9-1.82v-1.16S501.71,629.6,497.61,627Z"/></g><rect width="770" height="528.13" rx="21.82" ry="21.82"/><path class="cls-2" d="M0,458H770a0,0,0,0,1,0,0V510a18.17,18.17,0,0,1-18.17,18.17H18.17A18.17,18.17,0,0,1,0,510V458A0,0,0,0,1,0,458Z"/><rect class="cls-5" x="31.07" y="31.07" width="707.87" height="397.2"/><path class="cls-4" d="M501.36,634.41v-3.93c-.14,3.33-9,3.84-9,3.84H277.65s-8.87-.51-9-3.84v3.93s-.69,3.74,9,3.74h214.7C502.05,638.15,501.36,634.41,501.36,634.41Z"/><path d="M400.52,512.22a3.31,3.31,0,0,0-.16-.75,9.78,9.78,0,0,0-.52-1.28c-.39-.82-.82-1.6-1.26-2.38s-.89-1.53-1.32-2.3-.81-1.51-1.18-2.28a.67.67,0,0,0,.25-.22,1,1,0,0,0,.08-.72,1,1,0,0,0-.07-.21l-.06-.19-.25-.77c-.17-.51-.33-1-.51-1.53s-.33-1-.46-1.51c-.07-.25-.13-.51-.18-.76l-.15-.78c-.09-.53-.19-1.06-.31-1.6-.05-.27-.12-.53-.19-.79l-.21-.78c-.29-1-.6-2.08-1-3.1a30.1,30.1,0,0,0-1.29-3,20.24,20.24,0,0,0-1.68-2.79,15.6,15.6,0,0,0-2.14-2.45,11.48,11.48,0,0,0-2.09-1.58,2.25,2.25,0,0,1,0-.58,4.31,4.31,0,0,1,.11-.49c.05-.16.11-.33.15-.5a3.75,3.75,0,0,0,.13-.58c.19,0,.37-.08.54-.1h.2a8.2,8.2,0,0,0,2.21-.39,1.63,1.63,0,0,1,.74-.13c-.41-.77-1.77-.87-2.72-.9h0l-1-.1a3.78,3.78,0,0,0-.31-1l-.14-.24a2,2,0,0,0-.16-.24l-.18-.21-.19-.2a7.23,7.23,0,0,0-1.79-1.21,7.65,7.65,0,0,0-4.22-.74c-.36.05-.71.12-1.07.2s-.69.21-1,.34a8.89,8.89,0,0,0-3.5,2.53,13.71,13.71,0,0,0-2.12,3.73,38.06,38.06,0,0,0-1.4,4,15.49,15.49,0,0,0-.64,4.24,12.18,12.18,0,0,0,.81,4.23,14.87,14.87,0,0,0,2.1,3.73,19.11,19.11,0,0,0,2.94,3.09,12.64,12.64,0,0,0,1.77,1.22,9.65,9.65,0,0,0,2,.86,12,12,0,0,0,2.11.43l.92.08,0,0-.48,1c-.17.34-.33.67-.51,1a1.83,1.83,0,0,1-.31.42,2.49,2.49,0,0,1-.4.34,2.59,2.59,0,0,1-1,.35,3.7,3.7,0,0,0-.54.11.9.9,0,0,0-.49.3,1,1,0,0,0-.26.51.57.57,0,0,0,.07.29,2.34,2.34,0,0,0-.26.43,1.11,1.11,0,0,0-.11.6,1.54,1.54,0,0,0,.19.57l.28.51-.08-.59a1,1,0,0,1,.23-1,2.24,2.24,0,0,1,.47-.27l.13-.1.1-.12c.05-.07.12-.13.18-.2a3.62,3.62,0,0,1,.42-.36,1.49,1.49,0,0,1,.49-.24,1.09,1.09,0,0,1,.26,0,1.47,1.47,0,0,0,.29-.05.35.35,0,0,0,.16-.08l.23.07.23.09.1.07.1.08a3.19,3.19,0,0,0,.42.3,2.94,2.94,0,0,0,.46.25,1.06,1.06,0,0,0,.25.09l.12,0a2.42,2.42,0,0,1-.33.31,2.89,2.89,0,0,1-.69.38,6.15,6.15,0,0,1-.76.25,7.92,7.92,0,0,0-.79.24,1.42,1.42,0,0,0-.69.49,3.35,3.35,0,0,0-.21.36.87.87,0,0,0-.1.42.69.69,0,0,0,.05.24s0,0,0,.08a5.29,5.29,0,0,0-.39.75,2.07,2.07,0,0,0-.1.43,1.37,1.37,0,0,0,0,.45,2,2,0,0,0,.38.79l.42.58-.18-.7a1.5,1.5,0,0,1,.2-1.46,1.47,1.47,0,0,1,.31-.23c.11-.07.24-.13.37-.22a1,1,0,0,0,.18-.17l.07-.09.05-.09a3.92,3.92,0,0,1,.25-.32,5.39,5.39,0,0,1,.59-.58,2.51,2.51,0,0,1,.7-.42l.09,0,.1,0,.21,0a2.75,2.75,0,0,0,.41-.11.72.72,0,0,0,.24-.14,2.14,2.14,0,0,1,.35.06,1.48,1.48,0,0,1,.36.1l.17.07.16.1a7.14,7.14,0,0,0,1.41.66,1.8,1.8,0,0,0,.39.08l.09,0,.09,0a.94.94,0,0,1,.15.06,1.92,1.92,0,0,1,.55.48,4.21,4.21,0,0,1,.43.61l.41.73-.19-.81a4.77,4.77,0,0,0-.28-.83,1.22,1.22,0,0,0-.25-.4l-.27-.31a3.37,3.37,0,0,0-.68-.57,3.42,3.42,0,0,0-.8-.37l-.22-.05-.21,0-.21,0-.19-.05a.94.94,0,0,1-.33-.17.4.4,0,0,1-.14-.28,1,1,0,0,1,.05-.37,3,3,0,0,1,.13-.39l.29-.79c.4-1.07.79-2.13,1.17-3.2a1.55,1.55,0,0,0,.08-.23,9.12,9.12,0,0,0,1.74-.65,8.13,8.13,0,0,0,.81-.47,9.86,9.86,0,0,1,2.18,1.22l.13.1.12.1.24.21.21.24.11.11.1.13c.27.34.51.7.75,1.07a23.12,23.12,0,0,1,1.23,2.31c.37.8.71,1.61,1.07,2.43s.73,1.63,1.16,2.42q.33.6.72,1.17a5.3,5.3,0,0,0,1,1.08,3,3,0,0,0,.35.23,1.21,1.21,0,0,0,.48.12.89.89,0,0,0,.54-.14h0l.13.09a3,3,0,0,0,.35.22,1.55,1.55,0,0,0,.46.13,1,1,0,0,0,.29,0l.16,0a1.19,1.19,0,0,0,.15-.09,1,1,0,0,0,.32-.48A1.6,1.6,0,0,0,400.52,512.22ZM384.67,502c-.2.51-.38,1-.58,1.53s-.39,1-.62,1.5a1.83,1.83,0,0,1-.18.34l-.11.16v0a2.47,2.47,0,0,0-.35-.37,2.14,2.14,0,0,0-.52-.32,1.52,1.52,0,0,0-.28-.09l-.13,0-.12,0a.72.72,0,0,1-.19-.14.34.34,0,0,1-.06-.2,1.52,1.52,0,0,1,.18-.5l.25-.53.84-1.8h.52a9.42,9.42,0,0,0,1.59-.16C384.82,501.61,384.74,501.82,384.67,502Zm-2.56-24.2a1.3,1.3,0,1,1-1.3-1.16A1.24,1.24,0,0,1,382.11,477.84Z"/><rect class="cls-6" x="31.07" y="31.07" width="707.87" height="397.2"/><path class="cls-7" d="M737.82,45.1H31.62a.55.55,0,0,1-.55-.55V36.6H738.93V44A1.1,1.1,0,0,1,737.82,45.1Z"/><path class="cls-8" d="M737.82,39.57H31.62a.55.55,0,0,1-.55-.55v-8H738.93v7.39A1.1,1.1,0,0,1,737.82,39.57Z"/></g></g></svg>