<svg xmlns="http://www.w3.org/2000/svg" viewBox="0 0 770 638.15"><defs><style>.cls-1{fill:#b3b3b3;}.cls-2{fill:#999;}.cls-3{fill:none;}.cls-4{fill:#fff;}.cls-5{fill:#3fa9f5;}.cls-6{fill:#3183bf;}.cls-7{fill:#ccc;}</style></defs><title>mac_svg2</title><g id="Layer_2" data-name="Layer 2"><g id="Mac_Empty" data-name="Mac Empty"><path class="cls-1" d="M497.61,627c-4.1-2.61-17.33-10.87-22.88-15.65s-7.07-8.6-7.9-17.41-7.68-75-7.68-75H310.85s-6.84,66.25-7.68,75-2.35,12.63-7.9,17.41-18.78,13-22.88,15.65-3.75,3.49-3.75,3.49v1.16c0,.36,0,.36.9,1.82s3.21,1.55,3.21,1.55h224.5s2.31-.09,3.21-1.55.9-1.46.9-1.82v-1.16S501.71,629.6,497.61,627Z"/><path class="cls-2" d="M497.61,627c-4.1-2.61-17.33-10.87-22.88-15.65s-7.07-8.6-7.9-17.41-7.68-75-7.68-75H310.85s-6.84,66.25-7.68,75-2.35,12.63-7.9,17.41-18.78,13-22.88,15.65-3.75,3.49-3.75,3.49v1.16c0,.36,0,.36.9,1.82s3.21,1.55,3.21,1.55h224.5s2.31-.09,3.21-1.55.9-1.46.9-1.82v-1.16S501.71,629.6,497.61,627Z"/><rect class="cls-3" x="284.03" y="522.58" width="193.05" height="17.38"/><rect width="770" height="528.13" rx="21.82" ry="21.82"/><path class="cls-1" d="M0,458H770a0,0,0,0,1,0,0V510a18.17,18.17,0,0,1-18.17,18.17H18.17A18.17,18.17,0,0,1,0,510V458A0,0,0,0,1,0,458Z"/><rect class="cls-4" x="31.07" y="31.07" width="707.87" height="397.2"/><path class="cls-2" d="M501.36,634.41v-3.93c-.14,3.33-9,3.84-9,3.84H277.65s-8.87-.51-9-3.84v3.93s-.69,3.74,9,3.74h214.7C502.05,638.15,501.36,634.41,501.36,634.41Z"/><path d="M400.52,512.22a3.31,3.31,0,0,0-.16-.75,9.78,9.78,0,0,0-.52-1.28c-.39-.82-.82-1.6-1.26-2.38s-.89-1.53-1.32-2.3-.81-1.51-1.18-2.28a.67.67,0,0,0,.25-.22,1,1,0,0,0,.08-.72,1,1,0,0,0-.07-.21l-.06-.19-.25-.77c-.17-.51-.33-1-.51-1.53s-.33-1-.46-1.51c-.07-.25-.13-.51-.18-.76l-.15-.78c-.09-.53-.19-1.06-.31-1.6-.05-.27-.12-.53-.19-.79l-.21-.78c-.29-1-.6-2.08-1-3.1a30.1,30.1,0,0,0-1.29-3,20.24,20.24,0,0,0-1.68-2.79,15.6,15.6,0,0,0-2.14-2.45,11.48,11.48,0,0,0-2.09-1.58,2.25,2.25,0,0,1,0-.58,4.31,4.31,0,0,1,.11-.49c.05-.16.11-.33.15-.5a3.75,3.75,0,0,0,.13-.58c.19,0,.37-.08.54-.1h.2a8.2,8.2,0,0,0,2.21-.39,1.63,1.63,0,0,1,.74-.13c-.41-.77-1.77-.87-2.72-.9h0l-1-.1a3.78,3.78,0,0,0-.31-1l-.14-.24a2,2,0,0,0-.16-.24l-.18-.21-.19-.2a7.23,7.23,0,0,0-1.79-1.21,7.65,7.65,0,0,0-4.22-.74c-.36.05-.71.12-1.07.2s-.69.21-1,.34a8.89,8.89,0,0,0-3.5,2.53,13.71,13.71,0,0,0-2.12,3.73,38.06,38.06,0,0,0-1.4,4,15.49,15.49,0,0,0-.64,4.24,12.18,12.18,0,0,0,.81,4.23,14.87,14.87,0,0,0,2.1,3.73,19.11,19.11,0,0,0,2.94,3.09,12.64,12.64,0,0,0,1.77,1.22,9.65,9.65,0,0,0,2,.86,12,12,0,0,0,2.11.43l.92.08,0,0-.48,1c-.17.34-.33.67-.51,1a1.83,1.83,0,0,1-.31.42,2.49,2.49,0,0,1-.4.34,2.59,2.59,0,0,1-1,.35,3.7,3.7,0,0,0-.54.11.9.9,0,0,0-.49.3,1,1,0,0,0-.26.51.57.57,0,0,0,.07.29,2.34,2.34,0,0,0-.26.43,1.11,1.11,0,0,0-.11.6,1.54,1.54,0,0,0,.19.57l.28.51-.08-.59a1,1,0,0,1,.23-1,2.24,2.24,0,0,1,.47-.27l.13-.1.1-.12c.05-.07.12-.13.18-.2a3.62,3.62,0,0,1,.42-.36,1.49,1.49,0,0,1,.49-.24,1.09,1.09,0,0,1,.26,0,1.47,1.47,0,0,0,.29-.05.35.35,0,0,0,.16-.08l.23.07.23.09.1.07.1.08a3.19,3.19,0,0,0,.42.3,2.94,2.94,0,0,0,.46.25,1.06,1.06,0,0,0,.25.09l.12,0a2.42,2.42,0,0,1-.33.31,2.89,2.89,0,0,1-.69.38,6.15,6.15,0,0,1-.76.25,7.92,7.92,0,0,0-.79.24,1.42,1.42,0,0,0-.69.49,3.35,3.35,0,0,0-.21.36.87.87,0,0,0-.1.42.69.69,0,0,0,.05.24s0,0,0,.08a5.29,5.29,0,0,0-.39.75,2.07,2.07,0,0,0-.1.43,1.37,1.37,0,0,0,0,.45,2,2,0,0,0,.38.79l.42.58-.18-.7a1.5,1.5,0,0,1,.2-1.46,1.47,1.47,0,0,1,.31-.23c.11-.07.24-.13.37-.22a1,1,0,0,0,.18-.17l.07-.09.05-.09a3.92,3.92,0,0,1,.25-.32,5.39,5.39,0,0,1,.59-.58,2.51,2.51,0,0,1,.7-.42l.09,0,.1,0,.21,0a2.75,2.75,0,0,0,.41-.11.72.72,0,0,0,.24-.14,2.14,2.14,0,0,1,.35.06,1.48,1.48,0,0,1,.36.1l.17.07.16.1a7.14,7.14,0,0,0,1.41.66,1.8,1.8,0,0,0,.39.08l.09,0,.09,0a.94.94,0,0,1,.15.06,1.92,1.92,0,0,1,.55.48,4.21,4.21,0,0,1,.43.61l.41.73-.19-.81a4.77,4.77,0,0,0-.28-.83,1.22,1.22,0,0,0-.25-.4l-.27-.31a3.37,3.37,0,0,0-.68-.57,3.42,3.42,0,0,0-.8-.37l-.22-.05-.21,0-.21,0-.19-.05a.94.94,0,0,1-.33-.17.4.4,0,0,1-.14-.28,1,1,0,0,1,.05-.37,3,3,0,0,1,.13-.39l.29-.79c.4-1.07.79-2.13,1.17-3.2a1.55,1.55,0,0,0,.08-.23,9.12,9.12,0,0,0,1.74-.65,8.13,8.13,0,0,0,.81-.47,9.86,9.86,0,0,1,2.18,1.22l.13.1.12.1.24.21.21.24.11.11.1.13c.27.34.51.7.75,1.07a23.12,23.12,0,0,1,1.23,2.31c.37.8.71,1.61,1.07,2.43s.73,1.63,1.16,2.42q.33.6.72,1.17a5.3,5.3,0,0,0,1,1.08,3,3,0,0,0,.35.23,1.21,1.21,0,0,0,.48.12.89.89,0,0,0,.54-.14h0l.13.09a3,3,0,0,0,.35.22,1.55,1.55,0,0,0,.46.13,1,1,0,0,0,.29,0l.16,0a1.19,1.19,0,0,0,.15-.09,1,1,0,0,0,.32-.48A1.6,1.6,0,0,0,400.52,512.22ZM384.67,502c-.2.51-.38,1-.58,1.53s-.39,1-.62,1.5a1.83,1.83,0,0,1-.18.34l-.11.16v0a2.47,2.47,0,0,0-.35-.37,2.14,2.14,0,0,0-.52-.32,1.52,1.52,0,0,0-.28-.09l-.13,0-.12,0a.72.72,0,0,1-.19-.14.34.34,0,0,1-.06-.2,1.52,1.52,0,0,1,.18-.5l.25-.53.84-1.8h.52a9.42,9.42,0,0,0,1.59-.16C384.82,501.61,384.74,501.82,384.67,502Zm-2.56-24.2a1.3,1.3,0,1,1-1.3-1.16A1.24,1.24,0,0,1,382.11,477.84Z"/><rect class="cls-5" x="31.07" y="31.07" width="707.87" height="397.2"/><path class="cls-6" d="M737.82,45.1H31.62a.55.55,0,0,1-.55-.55V36.6H738.93V44A1.1,1.1,0,0,1,737.82,45.1Z"/><path class="cls-7" d="M737.82,39.57H31.62a.55.55,0,0,1-.55-.55v-8H738.93v7.39A1.1,1.1,0,0,1,737.82,39.57Z"/><path d="M325,331.66l-1.2-1.52c-1.16-1.37-2.3-2.76-3.55-4.09a27.1,27.1,0,0,0-1.91-2c-.33-.32-.65-.64-1-.95l-1.13-.87a18.52,18.52,0,0,0-5-2.65c-.91-.23-1.81-.53-2.74-.69a21.77,21.77,0,0,0-2.78-.35,39.64,39.64,0,0,0-10.95,1,89.88,89.88,0,0,0-10.45,3c-3.4,1.18-6.75,2.47-10.08,3.81a22.88,22.88,0,0,1-10,1.72,17.53,17.53,0,0,1-9.31-3.54,21.19,21.19,0,0,1-6.37-7.88,17.12,17.12,0,0,1-1.41-4.86l-.1-.63v-.62c0-.42,0-.82,0-1.26l.24-2.65c.17-1.77.39-3.53.62-5.31.11-.88.23-1.78.3-2.7a5.84,5.84,0,0,0-.4-2.93,7.11,7.11,0,0,0-2-2.11c-.69-.56-1.38-1.12-2-1.7-.3-.27-.58-.55-.85-.84-.27,0-.54,0-.82,0h-.2a13.42,13.42,0,0,0,1.25,1.45c.65.65,1.33,1.25,2,1.84a6.18,6.18,0,0,1,1.6,1.82,4.72,4.72,0,0,1,.19,2.34c-.09.85-.23,1.73-.38,2.61-.29,1.76-.58,3.54-.81,5.32-.13.89-.24,1.78-.33,2.68,0,.45,0,.95-.06,1.42v.72l.08.7a19,19,0,0,0,1.43,5.43,22.44,22.44,0,0,0,6.79,8.77A19.75,19.75,0,0,0,264,330.27a24.73,24.73,0,0,0,11-1.8c3.32-1.32,6.64-2.57,10-3.72a85.25,85.25,0,0,1,10.16-2.95,38.88,38.88,0,0,1,10.32-1,19.54,19.54,0,0,1,2.54.28c.84.13,1.64.39,2.47.58a16.61,16.61,0,0,1,4.46,2.27l1,.75c.32.28.63.59.95.88.64.58,1.26,1.2,1.86,1.85,1.24,1.25,2.4,2.59,3.58,3.92.71.83,1.41,1.68,2.12,2.53A4.67,4.67,0,0,1,325,331.66Z"/><path d="M261.43,275.07a4.28,4.28,0,0,1,.17,3.67,10.26,10.26,0,0,1-2,3.23,27.32,27.32,0,0,1-5.82,4.76,58.41,58.41,0,0,1-6.49,3.73,16.14,16.14,0,0,1-3.7,1.27,5.63,5.63,0,0,1-2.17,0,3.54,3.54,0,0,1-2-1.26,5.85,5.85,0,0,1-1.15-4.1,7,7,0,0,1,1.52-3.86,6.52,6.52,0,0,1,3.54-2.17c.33-.06.69-.12,1-.16l.91-.1,1.81-.21c2.42-.33,4.85-.72,7.22-1.27a24.4,24.4,0,0,0,3.51-1,7.91,7.91,0,0,0,1.62-.81,1.71,1.71,0,0,0,1-1.43,1.83,1.83,0,0,1-.79,1.64,8.57,8.57,0,0,1-1.58,1,26.06,26.06,0,0,1-3.47,1.42,56.31,56.31,0,0,1-7.24,1.8l-1.84.33-.93.13-.81.15a5,5,0,0,0-2.6,1.72c-1.31,1.63-1.53,4.28-.31,5.79a1.79,1.79,0,0,0,1,.68,4,4,0,0,0,1.49,0,15.37,15.37,0,0,0,3.3-1.09,72.33,72.33,0,0,0,6.46-3.38,29.94,29.94,0,0,0,5.92-4.18,9.59,9.59,0,0,0,2.17-2.82A4.3,4.3,0,0,0,261.43,275.07Z"/><path d="M261.33,273.69a2.89,2.89,0,0,0-1.07-1.41,8.77,8.77,0,0,0-1.51-1,16.71,16.71,0,0,0-3.39-1.22c-1.15-.32-2.34-.57-3.54-.84l-3.57-.83c-1.19-.28-2.38-.57-3.57-.88a35.8,35.8,0,0,1-3.61-1.1,5.22,5.22,0,0,0-3-.25,2.21,2.21,0,0,0-1.11.62,2.41,2.41,0,0,0-.44,1.24c-.31,2.09.56,4.52,2.48,5a14.35,14.35,0,0,0,3.4.21H246c2.45,0,4.9.06,7.35.18,1.22.07,2.45.17,3.67.29a14.81,14.81,0,0,1,3.61.71,37,37,0,0,0-7.29-.13l-7.31.33-3.66.15-1.84.06c-.3,0-.64,0-1,0a4.81,4.81,0,0,1-1-.18,4.94,4.94,0,0,1-3.2-2.81,7.67,7.67,0,0,1-.57-4.06,4,4,0,0,1,.87-2.13,3.81,3.81,0,0,1,2-1.16,6.57,6.57,0,0,1,4.13.39c2.1.85,4.56,1.46,6.87,2.18s4.67,1.34,7,2.18a18.19,18.19,0,0,1,3.35,1.63C260,271.59,261.11,272.44,261.33,273.69Z"/><path d="M234,246.08a5.64,5.64,0,0,1-1.42-.64,2.18,2.18,0,0,1-1.08-1.4,1.85,1.85,0,0,1,.22-1,4.31,4.31,0,0,1,.41-.75,2.76,2.76,0,0,1,1.55-1.08,8.55,8.55,0,0,1,3.3,0c1,.12,2,.27,3,.43a17.6,17.6,0,0,1,3.07.8,5.47,5.47,0,0,1,1.55.89,4.16,4.16,0,0,1,1,1.5,3.66,3.66,0,0,1,.3,1.79,2.14,2.14,0,0,1-.36,1,1.76,1.76,0,0,1-.85.59,3.49,3.49,0,0,1-.86.09c-.26,0-.51,0-.78,0a5.23,5.23,0,0,1-1.52-.28,7.43,7.43,0,0,0,1.49-.21l.72-.17a2.17,2.17,0,0,0,.63-.22c.6-.31.4-1.21,0-1.93a3.53,3.53,0,0,0-.79-.91,4.33,4.33,0,0,0-1.12-.51,19.6,19.6,0,0,0-2.81-.63l-3-.52a9.22,9.22,0,0,0-2.73-.27,1.65,1.65,0,0,0-1,.47,3.27,3.27,0,0,0-.66,1,1.65,1.65,0,0,0,.53,1.08A8.94,8.94,0,0,0,234,246.08Z"/><path d="M248.22,233.6a12.36,12.36,0,0,1,3.11,1.59,8.29,8.29,0,0,1,2.51,2.65,4.69,4.69,0,0,1,.62,1.88,7.08,7.08,0,0,1,0,1c0,.3-.08.62-.15.92a12.66,12.66,0,0,1-1.33,3.41,12.27,12.27,0,0,1-2.34,2.85,9.82,9.82,0,0,1-3.25,1.77,9.59,9.59,0,0,1-7-.78,12.34,12.34,0,0,0,6.51-.52,9.7,9.7,0,0,0,4.52-4.21,11.41,11.41,0,0,0,1.24-2.92c.07-.25.12-.51.19-.76s0-.45,0-.68a4.18,4.18,0,0,0-.32-1.39,8.63,8.63,0,0,0-1.83-2.6A23,23,0,0,0,248.22,233.6Z"/><path d="M364.88,240.66c-.11,2.66-.3,5.32-.64,8a73.4,73.4,0,0,1-5.85,22.65,42.83,42.83,0,0,1-6.24,9.79,45.53,45.53,0,0,1-8.69,7.75c-3.21,2.21-6.67,4.21-10.08,6.15s-6.95,3.78-10.45,5.63c-7,3.7-14.07,7.28-21.14,10.86l-21.21,10.76c7.23-3.24,14.4-6.63,21.59-10s14.29-6.87,21.38-10.42a193.61,193.61,0,0,0,20.82-11.67,46.72,46.72,0,0,0,9.06-8A44.35,44.35,0,0,0,360,272a75.1,75.1,0,0,0,5.85-23.23c.34-2.94.52-5.89.61-8.84A7.14,7.14,0,0,1,364.88,240.66Z"/><path d="M278.56,171.06c-3.73-.78-7.43-1.65-11.17-2.38-1.86-.38-3.72-.77-5.58-1.06a7.87,7.87,0,0,0-2.59-.15,7.2,7.2,0,0,0-2.27,1.25,50.33,50.33,0,0,0-7.68,8.18,17.42,17.42,0,0,1-2.07,2.15,6.33,6.33,0,0,1-2.87,1.56,3.26,3.26,0,0,1-1.91-.2,5.44,5.44,0,0,1-.8-.51c-.2-.21-.44-.42-.61-.64a8.86,8.86,0,0,1-1.39-2.87,5.49,5.49,0,0,1,0-3.33,6.32,6.32,0,0,1,1.9-2.65,24.75,24.75,0,0,1,5-3.11c1.72-.86,3.38-1.7,5.08-2.59a16.51,16.51,0,0,1,5.57-2,11.92,11.92,0,0,1,5.88.93c1.8.74,3.58,1.65,5.35,2.5C271.94,167.89,275.27,169.6,278.56,171.06Zm0,0c-3.66-1.63-7.29-3-10.73-4.34-1.73-.66-3.38-1.43-5.12-2.06a10.73,10.73,0,0,0-5.31-.64,16.92,16.92,0,0,0-5,2.06c-1.65.91-3.37,1.83-5,2.7a24.39,24.39,0,0,0-4.64,2.92,4.51,4.51,0,0,0-1.39,1.92,3.84,3.84,0,0,0,0,2.3,7.08,7.08,0,0,0,1.06,2.25,1.57,1.57,0,0,0,1.64.74,4.73,4.73,0,0,0,2.07-1.16,18.34,18.34,0,0,0,1.91-1.93c1.2-1.42,2.47-2.94,3.79-4.32a29,29,0,0,1,4.37-3.88,8.37,8.37,0,0,1,2.78-1.35,5,5,0,0,1,.85-.08c.26,0,.53,0,.78.08.48.08,1,.15,1.43.25,1.89.39,3.74.85,5.59,1.33C271.27,168.86,274.93,169.89,278.56,171.06Z"/><path d="M391.77,194.54a33.26,33.26,0,0,0-.79-4.39,16.85,16.85,0,0,0-1.81-4.18,16.2,16.2,0,0,0-6.57-6.12,17.89,17.89,0,0,0-8.67-1.92,14.63,14.63,0,0,0-4.38.82,14.83,14.83,0,0,0-2.95,1.56c-.1.34-.19.68-.31,1a14.74,14.74,0,0,1,3.54-1.74,13.55,13.55,0,0,1,4.11-.5,15.85,15.85,0,0,1,13.65,7.81,15.35,15.35,0,0,1,1.49,3.77,35.1,35.1,0,0,1,.65,4.12,61.4,61.4,0,0,1,.31,8.47c-.19,5.62-1,11.33-3.39,16.3a18.5,18.5,0,0,1-2.1,3.48,38.73,38.73,0,0,1-2.74,3.18,69.25,69.25,0,0,1-6.25,5.72c-2.19,1.81-4.49,3.5-6.85,5.09-1.18.79-2.38,1.55-3.59,2.26s-2.51,1.5-3.71,2.34a32.32,32.32,0,0,0-3.5,2.73c-.27.25-.56.54-.8.78l-.75.72c-.52.47-1.08,1-1.6,1.5a14.29,14.29,0,0,0-1.47,1.73c-.11.15-.22.31-.32.47l-.16.23-.12.15a1.74,1.74,0,0,1-.61.48,2.54,2.54,0,0,1-3.1-.67,2.73,2.73,0,0,1-.47-1.71,8.06,8.06,0,0,1,.38-2,26.63,26.63,0,0,1,1.26-4.06,7.51,7.51,0,0,1,2.65-3.18,16.9,16.9,0,0,1,3.84-1.88,16.81,16.81,0,0,0-4,1.59,7.91,7.91,0,0,0-3,3.19,26.77,26.77,0,0,0-1.55,4.09c-.45,1.28-1,3.06,0,4.61a3.79,3.79,0,0,0,4.63,1.25,3.18,3.18,0,0,0,1.1-.8l.23-.27.16-.21c.09-.14.2-.27.3-.4a13.23,13.23,0,0,1,1.4-1.5c.5-.47,1.05-.91,1.6-1.39.28-.24.56-.48.84-.75s.49-.47.76-.7a30,30,0,0,1,3.39-2.47c1.19-.77,2.4-1.46,3.67-2.15s2.52-1.47,3.75-2.26c2.44-1.57,4.82-3.26,7.11-5.07a67,67,0,0,0,6.52-5.87c1-1.08,2-2.14,2.92-3.34a20.75,20.75,0,0,0,2.37-3.89c2.55-5.48,3.36-11.43,3.49-17.27A62.5,62.5,0,0,0,391.77,194.54Z"/><path d="M367.79,232.64a69.18,69.18,0,0,0,6.89-7.13,37.87,37.87,0,0,0,5.4-8.14,29.19,29.19,0,0,0,2.28-9.37,82.43,82.43,0,0,0,.23-9.83c-.08-3.21-.52-6.5-2.46-8.9a16.66,16.66,0,0,0-7.82-5.07c-1.47-.42-3.15-.53-4.27.28s-1.27,2.54-1.31,4.14,0,3.3,0,5c0,.84,0,1.67-.06,2.51a4.77,4.77,0,0,1-.72,2.37,4.63,4.63,0,0,0,.45-2.38c0-.83-.07-1.65-.14-2.47-.15-1.65-.38-3.29-.45-5a11.86,11.86,0,0,1,.14-2.58,4,4,0,0,1,1.35-2.45,4.76,4.76,0,0,1,2.64-1,9.08,9.08,0,0,1,2.66.25,18.09,18.09,0,0,1,4.77,2,14.46,14.46,0,0,1,4,3.35,11.73,11.73,0,0,1,2.3,4.78,24.84,24.84,0,0,1,.61,5.11,78.84,78.84,0,0,1-.33,10.06,28.15,28.15,0,0,1-2.73,9.78C378,224,373.12,228.71,367.79,232.64Z"/><path d="M273.78,192.79c-1.77-.61-3.51-1.28-5.29-1.85s-3.52-1.17-5.28-1.62a13.81,13.81,0,0,0-2.59-.42,3.67,3.67,0,0,0-2.19.54,2.89,2.89,0,0,0-1.13,1.78,9.86,9.86,0,0,0-.13,2.53,11,11,0,0,0,.38,2.55,2.54,2.54,0,0,0,1.09,1.68l.18.08.22,0a1.52,1.52,0,0,0,.47,0,9,9,0,0,0,1.25-.33c.86-.28,1.73-.6,2.59-.91Zm0,0a94.13,94.13,0,0,1-9.9,5.32c-.86.39-1.72.77-2.62,1.09a9.78,9.78,0,0,1-1.44.45,3,3,0,0,1-.91.08l-.48,0-.47-.17a3.17,3.17,0,0,1-.82-.52,3.65,3.65,0,0,1-.57-.7,5.66,5.66,0,0,1-.68-1.49,12.87,12.87,0,0,1-.48-3,11.86,11.86,0,0,1,.21-3,4.47,4.47,0,0,1,1.9-2.75,5.15,5.15,0,0,1,3.17-.69,12.06,12.06,0,0,1,2.89.64A55.57,55.57,0,0,1,273.78,192.79Z"/><path d="M253.37,188.54a8.3,8.3,0,0,1,4.25-5.23,7.22,7.22,0,0,1,3.52-.55l.89.12c.29.06.57.15.86.23.58.15,1.09.36,1.62.55a42.88,42.88,0,0,1,11.65,6.75c-2-1.07-4-2-6-3s-4-1.85-6.09-2.64a14.91,14.91,0,0,0-1.53-.55c-.26-.07-.51-.16-.76-.22l-.77-.12a6.62,6.62,0,0,0-3.06.29A9.26,9.26,0,0,0,253.37,188.54Z"/><path d="M256.43,197.3a7.72,7.72,0,0,0-1.21.35,2.77,2.77,0,0,0-1.35,1.37,4.62,4.62,0,0,0-.35,1.7,10.29,10.29,0,0,0,.44,3.19c.19-1,.28-2.1.48-3.08s.51-1.82,1.28-2.11a10.08,10.08,0,0,1,1.37-.43A3.43,3.43,0,0,1,256.43,197.3Z"/><path d="M237,186.06l-.4.08a2.7,2.7,0,0,1-1-.08,2.5,2.5,0,0,1-1.44-1.12,6.82,6.82,0,0,1-.87-1.87,14.1,14.1,0,0,1-.54-2.08,12.57,12.57,0,0,1-.3-2.12,6.1,6.1,0,0,1,1.6-3.88,5.3,5.3,0,0,0-2.52,3.83,13.11,13.11,0,0,0,.64,4.63,7.43,7.43,0,0,0,1.1,2.15,3.24,3.24,0,0,0,2.15,1.36,3.42,3.42,0,0,0,1.28-.06c.15-.07.3-.12.44-.17A3.93,3.93,0,0,1,237,186.06Z"/><path d="M319.25,164.74a111.8,111.8,0,0,1-28.64-22.06,124,124,0,0,1-11.53-14c-1.76-2.47-3.4-5-5-7.6s-3.1-5.29-4.87-7.84a40.18,40.18,0,0,0-2.85-3.71,14.88,14.88,0,0,0-3.63-3.18,5.38,5.38,0,0,0-2.51-.79,3.8,3.8,0,0,0-1.38.22,5.53,5.53,0,0,0-1.18.63,5.4,5.4,0,0,0-2.17,4.47,11.49,11.49,0,0,0,.32,2.64,1.92,1.92,0,0,1,.92-.61,10.18,10.18,0,0,1-.09-2,4.16,4.16,0,0,1,1.79-3.4,2.78,2.78,0,0,1,1.72-.53,4.15,4.15,0,0,1,1.79.67,14.55,14.55,0,0,1,3.13,3,42.1,42.1,0,0,1,2.62,3.64c1.63,2.53,3.08,5.18,4.61,7.85s3.18,5.3,4.92,7.84A122.62,122.62,0,0,0,288.9,144.3a116.16,116.16,0,0,0,13.78,12.35,100.6,100.6,0,0,0,15.73,9.72,90,90,0,0,0,17.27,6.52,91.09,91.09,0,0,0,18.16,2.79A99.54,99.54,0,0,1,319.25,164.74Z"/><path d="M365.67,180.09a42.31,42.31,0,0,1-7.42,13.12,19.33,19.33,0,0,1-5.74,4.48,13.9,13.9,0,0,1-7,1.36,21.14,21.14,0,0,1-13.2-5.63,34.66,34.66,0,0,1-8.2-12.35,88.71,88.71,0,0,1-4.5-14.56c-.06-.26-.11-.52-.17-.77a3.82,3.82,0,0,1-.7-.23,6.87,6.87,0,0,1-1.31-.74c.13.7.25,1.41.39,2.12a83.35,83.35,0,0,0,4.23,15,36.37,36.37,0,0,0,8.68,13.23,23.31,23.31,0,0,0,14.69,6.12,16,16,0,0,0,8-1.74,19.89,19.89,0,0,0,6.22-5.13,41.25,41.25,0,0,0,7.12-13.94,74.22,74.22,0,0,0,3-15.2A85.28,85.28,0,0,1,365.67,180.09Z"/><path d="M310,78.06a1.52,1.52,0,0,1-.54-.43,1.85,1.85,0,0,1-1.26-.55,67.26,67.26,0,0,0-7-.51,54.08,54.08,0,0,0-15.84,2,47.59,47.59,0,0,0-14.46,6.86,51.46,51.46,0,0,0-6.19,5.1,65.22,65.22,0,0,0-5.36,5.92,44.93,44.93,0,0,0-4.5,6.63,28.66,28.66,0,0,0-1.7,3.68,21.73,21.73,0,0,0-1,4,26.14,26.14,0,0,0,0,7.7,2.39,2.39,0,0,1,1.35-.49,24.65,24.65,0,0,1,.28-6.92,21.44,21.44,0,0,1,2.75-7A46.6,46.6,0,0,1,261,97.75,57,57,0,0,1,272.22,87.3,48.26,48.26,0,0,1,286,80.76a55.42,55.42,0,0,1,15.18-2.06,74.66,74.66,0,0,1,12.38,1.1C312.37,79.21,311.17,78.62,310,78.06Z"/><path d="M467.65,116.14c-2.28-1.22-4.51-2.51-6.68-3.9A102.89,102.89,0,0,1,448.68,103c-3.87-3.39-7.6-7-11.37-10.56s-7.4-7.28-11.34-10.74a98.06,98.06,0,0,0-12.58-9.5c-2.18-1.48-4.54-2.68-6.82-4L403,66.42l-1.78-.87-1.83-.75A115.75,115.75,0,0,0,369,57c-2.59-.4-5.21-.55-7.82-.74l-3.91-.28-4-.08a69.78,69.78,0,0,0-15.7,1.75A61.85,61.85,0,0,0,309.81,72c-.6.56-1.17,1.13-1.76,1.71a1.71,1.71,0,0,1,.45,0c.22-.07.44-.13.67-.18a2.22,2.22,0,0,1,1,0l.56-.49a63.79,63.79,0,0,1,12.83-8.38,61.87,61.87,0,0,1,14.48-4.86,73.91,73.91,0,0,1,15.21-1.38l3.83.13,3.84.33c2.57.22,5.14.41,7.67.83a115,115,0,0,1,29.65,7.79l1.77.73,1.73.83,3.45,1.66c2.21,1.27,4.5,2.42,6.62,3.85s4.24,2.85,6.33,4.34,4,3.15,6,4.84c3.91,3.33,7.59,6.94,11.41,10.51s7.62,7.06,11.66,10.4A104.45,104.45,0,0,0,460,113.81c2.43,1.47,4.93,2.82,7.47,4.08A4.12,4.12,0,0,1,467.65,116.14Z"/><path d="M476.2,192.59a50.78,50.78,0,0,0-2.39-8.21,54.5,54.5,0,0,0-4.68-9.16,9.16,9.16,0,0,1,.32,1.93,3.36,3.36,0,0,1-.21,1.35,53.17,53.17,0,0,1,2.85,6.52,45.6,45.6,0,0,1-.3,32,36.36,36.36,0,0,1-9,13.41,28.41,28.41,0,0,1-14.2,7.29,37.39,37.39,0,0,1-16.27-.93,57,57,0,0,1-15.28-6.55,48.65,48.65,0,0,0,7.16,4.41,55.53,55.53,0,0,0,7.8,3.25,37.28,37.28,0,0,0,16.9,1.63,29.8,29.8,0,0,0,15.4-7.46A38.33,38.33,0,0,0,474,217.93a45.07,45.07,0,0,0,3.1-16.82A51.83,51.83,0,0,0,476.2,192.59Z"/><path d="M469.38,172.24a48.32,48.32,0,0,0-3.32-10.4c-.73-1.66-1.52-3.29-2.29-4.89a19.63,19.63,0,0,1-1.65-5,42.27,42.27,0,0,1-.81-7l-.34.07a41.38,41.38,0,0,0,.31,7,19.65,19.65,0,0,0,1.47,5.29c.71,1.66,1.42,3.29,2.06,5a53.86,53.86,0,0,1,2.93,10.17,24.51,24.51,0,0,1-.23,10.31,16.71,16.71,0,0,1-5.33,8.56,27.18,27.18,0,0,1-9.08,5.07A54.21,54.21,0,0,1,442.75,199c-1.75.35-3.54.46-5.32.7l-5.36.43a66.12,66.12,0,0,0,21.46-2.32,27.06,27.06,0,0,0,9.75-5.09,18.45,18.45,0,0,0,5.94-9.38A25.92,25.92,0,0,0,469.38,172.24Z"/><path d="M460.13,357.41a5.14,5.14,0,0,1,.47-1.11c-2.57-1.64-5.08-3.36-7.48-5.23a62.18,62.18,0,0,1-16.58-18.85c-4.18-7.31-6.73-15.47-9-23.7a237.23,237.23,0,0,1-5-25.08c-.78-5.09-1.44-10.21-2-15.33a5.6,5.6,0,0,1-1.45-.22c.48,5.28,1,10.54,1.7,15.8a198.6,198.6,0,0,0,4.72,25.39c2.21,8.28,4.74,16.66,9,24.3a64.52,64.52,0,0,0,17.3,19.39c1.75,1.28,3.54,2.5,5.31,3.75l1.33.93,1.39.83.14.08A5.39,5.39,0,0,1,460.13,357.41Z"/><path d="M561.53,278.8a334.28,334.28,0,0,0-2.8-38.05l-.61-4.74-.31-2.36-.4-2.36-1.62-9.41c-.48-3.15-1.26-6.24-1.91-9.36s-1.3-6.24-2.08-9.32L549.31,194l-1.24-4.61-1.47-4.55-2.93-9.09c-.45-1.53-1-3-1.62-4.52l-1.72-4.49-2-4.39-1-2.19c-.34-.73-.73-1.43-1.09-2.15l-2.23-4.27-2.48-4.14a85.51,85.51,0,0,0-11.91-15.18,67.74,67.74,0,0,0-15.48-11.54A61.72,61.72,0,0,0,486,116.59q-2.81-.5-5.63-.72a3.52,3.52,0,0,1,1,1.65c1.45.21,2.9.45,4.34.76a60.55,60.55,0,0,1,17.45,6.52,64.73,64.73,0,0,1,14.61,11.49,89.53,89.53,0,0,1,11.21,14.9l2.36,4,2.11,4.18c.35.71.72,1.39,1,2.1l.93,2.16,1.86,4.3,1.64,4.41c.54,1.47,1.12,2.92,1.56,4.44l2.87,9,1.42,4.51L546,194.9l2.42,9.14c.78,3.06,1.39,6.15,2.09,9.22s1.45,6.14,1.93,9.26l1.65,9.31.41,2.33.32,2.35.65,4.68c1,6.24,1.52,12.52,2.17,18.8.31,3.14.44,6.3.69,9.44l.34,4.72.19,4.74c.1,3.15.31,6.31.33,9.46l.05,6,0,0a11.64,11.64,0,0,1,2.24,3.38Q561.73,288.27,561.53,278.8Z"/><path d="M365.41,203.55a3.94,3.94,0,0,1,.12-1.52,1.41,1.41,0,0,1,1.19-1.07,6.22,6.22,0,0,1,3,.92,15.19,15.19,0,0,1,4.64,4,15.77,15.77,0,0,1,2.6,5.64,13.8,13.8,0,0,1,.16,6.3,9.12,9.12,0,0,1-3.57,5.34,13.33,13.33,0,0,1-5.79,2.38c-1,.15-2.11.09-2.95.21a1.65,1.65,0,0,0-1,.5l-.21.23-.24.32a6,6,0,0,1-.55.58,7.12,7.12,0,0,1-2.71,1.53,5.61,5.61,0,0,1-3,.15,6.53,6.53,0,0,0,5.09-2.28c.15-.18.29-.36.42-.55l.18-.29.26-.36a2.84,2.84,0,0,1,1.52-1c1.12-.26,2.05-.23,3-.44a12.62,12.62,0,0,0,5-2.37,7.42,7.42,0,0,0,2.84-4.4,12.22,12.22,0,0,0-.07-5.51,14.73,14.73,0,0,0-6.07-9.33,5.8,5.8,0,0,0-2.51-1.19,1.09,1.09,0,0,0-1,.71A4,4,0,0,0,365.41,203.55Z"/><path d="M354.63,228.42a2.7,2.7,0,0,1-.95-1.33,2.84,2.84,0,0,1,.08-1.75,8.47,8.47,0,0,1,2-2.59,12.27,12.27,0,0,0,2.37-5.24,10.14,10.14,0,0,0,.21-1.42,4.89,4.89,0,0,0,0-.66l0-.34a1.9,1.9,0,0,1,0-.53,4.44,4.44,0,0,1,1.79-3.22,3,3,0,0,1,.91-.45,1.79,1.79,0,0,1,1.12,0,3,3,0,0,1,1.42,1.23,3.49,3.49,0,0,1,.34,3.21,3.59,3.59,0,0,0-1-2.69,2,2,0,0,0-1-.63,1.09,1.09,0,0,0-.86.38,3.18,3.18,0,0,0-1,2.18,2,2,0,0,0,0,.25l.06.44a6.84,6.84,0,0,1,0,.9,13.3,13.3,0,0,1-.21,1.68,11.28,11.28,0,0,1-3.11,5.83c-.89.81-1.71,1.19-2.19,2A2.42,2.42,0,0,0,354.63,228.42Z"/><path d="M460.92,355.81a2.71,2.71,0,0,0-.42-1,2.85,2.85,0,0,0-.76-.75,3.44,3.44,0,0,0-.93-.4,8.18,8.18,0,0,0-3.55,0,3.88,3.88,0,0,1,.4,1,6.89,6.89,0,0,1,2.81.12,1.82,1.82,0,0,1,1.33,2,9.91,9.91,0,0,1-.69,3.07,32.28,32.28,0,0,1-1.28,3.05,29.14,29.14,0,0,1-1.63,2.86,41.42,41.42,0,0,1-8.79,9.82,19.49,19.49,0,0,1-5.57,3.17,8.31,8.31,0,0,1-5.93.08,27.4,27.4,0,0,1-5.68-3.14c-1.84-1.23-3.59-2.61-5.35-4-7-5.62-13.69-11.67-20.66-17.41-3.5-2.85-7.05-5.66-10.66-8.38a103.49,103.49,0,0,0-11.43-7.48c-8-4.39-17-7.42-26.24-7.27a62.35,62.35,0,0,0-13.57,1.65,57.59,57.59,0,0,0-12.76,4.84,121.3,121.3,0,0,0-11.62,6.81l.33,0a5.46,5.46,0,0,1,.82.06c3.57-2.11,7.22-4.08,11-5.82a58,58,0,0,1,12.57-4.42A60.42,60.42,0,0,1,355.87,333a53.25,53.25,0,0,1,25.22,7.33c7.74,4.37,14.68,10.12,21.64,15.81s13.71,11.63,20.82,17.27c1.8,1.39,3.59,2.78,5.51,4.05a28.86,28.86,0,0,0,6.16,3.31,9.22,9.22,0,0,0,3.69.61,11.66,11.66,0,0,0,3.59-.74,21.14,21.14,0,0,0,6-3.62,42.62,42.62,0,0,0,8.92-10.45,27.87,27.87,0,0,0,1.64-3.05c.46-1.05.91-2.1,1.27-3.21a10.84,10.84,0,0,0,.67-3.51A3.7,3.7,0,0,0,460.92,355.81Z"/><path d="M329.79,342.23c1.35-.44,2.71-.85,4.09-1.19,1.11-.32,2.24-.51,3.37-.74s2.27-.4,3.41-.55a30,30,0,0,1,6.81-.32,39.62,39.62,0,0,1,13.17,3.41c8.4,3.73,15.79,9.5,22.44,15.87A151.35,151.35,0,0,1,401,379.84a241.61,241.61,0,0,1,14.48,23.73q6.6,12.26,12.09,25.08,1.81,4.32,3.47,8.72c1,0,2,.07,3,.12-1.25-3.35-2.58-6.65-4-9.93q-5.56-12.92-12.31-25.25a244,244,0,0,0-14.75-23.93,145.38,145.38,0,0,0-18.44-21.28c-6.88-6.4-14.5-12.2-23.24-16a41.39,41.39,0,0,0-13.82-3.37,31.35,31.35,0,0,0-7.12.42c-1.17.17-2.34.34-3.49.61s-2.31.47-3.44.82a59.15,59.15,0,0,0-10.21,3.81c1.89-.43,3.87-.8,6-1.15Z"/><path d="M305,445.71l.93,0c-2.65-8.79-5.65-17.59-10.12-25.64a94.8,94.8,0,0,1,5.39,13.13C302.62,437.3,303.84,441.49,305,445.71Z"/><path d="M339.15,338.9a5.53,5.53,0,0,1-2.15.42,6,6,0,0,1-1-.1c-2.25.79-4.51,1.54-6.78,2.21-5.73,1.62-11.59,3.09-17.42,2.93s-12-.62-18.08-.62A117.77,117.77,0,0,0,275.57,345a85.22,85.22,0,0,0-8.94,1.94,64.74,64.74,0,0,0-8.63,3.09,57,57,0,0,0-8,4.42c-.86.6-1.71,1.23-2.54,1.87a31.34,31.34,0,0,1,3.83-1.21,7.19,7.19,0,0,1,.89-.15,61.59,61.59,0,0,1,6.57-3.24,73.78,73.78,0,0,1,8.44-2.79,86.55,86.55,0,0,1,8.74-1.73,120.67,120.67,0,0,1,17.84-1.13c6,0,12,.36,18,.49.75,0,1.55-.05,2.32-.08a22.42,22.42,0,0,0,2.32-.17c1.52-.25,3.07-.38,4.55-.75s3-.63,4.45-1.08,2.93-.82,4.36-1.32c4.21-1.4,8.34-3,12.39-4.74l-1.73.34A6.52,6.52,0,0,1,339.15,338.9Z"/><path d="M214.42,446.25a147.17,147.17,0,0,1-1.49-21.18,117.54,117.54,0,0,1,1.33-18.47,98.74,98.74,0,0,1,4.36-18,70.35,70.35,0,0,1,8.25-16.44l.64-1,.7-.9,1.42-1.82a17.85,17.85,0,0,1,1.48-1.74,20.26,20.26,0,0,1,1.59-1.62,34.8,34.8,0,0,1,7.42-5.3,49.93,49.93,0,0,1,17.66-5.23,72.62,72.62,0,0,1,9.33-.48,69.6,69.6,0,0,1,9.34.66,70.14,70.14,0,0,0-18.76-1.11,51,51,0,0,0-18.35,4.63,35.25,35.25,0,0,0-8,5.37c-.6.53-1.19,1.08-1.74,1.67a20.8,20.8,0,0,0-1.6,1.8L226.5,369l-.76.92-.69,1a73.18,73.18,0,0,0-9,16.8,93.11,93.11,0,0,0-4.86,18.4,121.44,121.44,0,0,0-1.62,18.93A144.35,144.35,0,0,0,211,446.44C212.11,446.34,213.26,446.28,214.42,446.25Z"/><path d="M559.45,422.43q-7.34-7.86-15.14-15.22.42.69.81,1.44l1.25,1.22q6.57,6.56,12.79,13.44A2.94,2.94,0,0,1,559.45,422.43Z"/><path d="M476.88,359.49l-2.3-1.27c-1.45-.81-2.94-1.54-4.41-2.32s-2.94-1.51-4.5-2.16a23.85,23.85,0,0,0-4.85-1.54,19.73,19.73,0,0,0-5.09,0l-2.29.21c.19.08.39.15.58.24a3.14,3.14,0,0,1,.93.65l.86-.05a17.75,17.75,0,0,1,4.79.18,22.4,22.4,0,0,1,4.53,1.59c1.47.67,2.92,1.47,4.36,2.26s2.9,1.55,4.32,2.37l3.41,2A3.55,3.55,0,0,1,476.88,359.49Z"/><path d="M467.24,438.43a141.69,141.69,0,0,1,3.26-16.23c.84-3.15,1.86-6.26,2.91-9.4l3.1-9.41c2-6.3,4-12.63,5.49-19.14.36-1.63.69-3.29.93-4.95s.46-3.29.63-4.95a49.21,49.21,0,0,0,.33-5c0-.4,0-.81,0-1.23A10.17,10.17,0,0,1,482,367a22.39,22.39,0,0,1,.06,2.32c0,1.6-.21,3.23-.41,4.84a83.38,83.38,0,0,1-1.71,9.64c-1.58,6.34-3.69,12.59-5.76,18.85L471,412c-1.06,3.12-2.12,6.29-3,9.52a138.68,138.68,0,0,0-3.48,16.87Z"/><path d="M324.43,341.26a7.88,7.88,0,0,1,1.16-.91,1.86,1.86,0,0,1,.43-.2c-.12-1.74-.23-3.47-.29-5.21l-.11-3.42,0-3.42c0-2.28.11-4.56.25-6.84a116.74,116.74,0,0,1,1.57-13.64,64.84,64.84,0,0,0-2.94,13.52A89.09,89.09,0,0,0,324,335C324.06,337.09,324.22,339.17,324.43,341.26Z"/><path d="M329.49,315.92a52.08,52.08,0,0,1,5.79-12,29.35,29.35,0,0,1,4.29-5.23c.85-.77,1.69-1.5,2.52-2.2s1.63-1.48,2.41-2.26a125.58,125.58,0,0,0,9.05-9.68c1.44-1.68,2.84-3.39,4.18-5.16a52.56,52.56,0,0,0,3.77-5.47,59.46,59.46,0,0,1-7.24,11.21,106.66,106.66,0,0,1-8.94,9.95c-.81.78-1.65,1.52-2.49,2.26s-1.73,1.43-2.53,2.14A33.75,33.75,0,0,0,336,304.4,53.12,53.12,0,0,0,332.5,310C331.39,311.91,330.41,313.9,329.49,315.92Z"/><path d="M418.05,202.76c2.44,3.81,4.88,7.61,7,11.55a48.85,48.85,0,0,1,5.05,12.4,19.47,19.47,0,0,1,.4,6.58,14.48,14.48,0,0,1-.84,3.18l-.09.17a3.26,3.26,0,0,1,.69.22l.06-.11a15.42,15.42,0,0,0,1-3.34,19.75,19.75,0,0,0-.28-6.9,50,50,0,0,0-5-12.73c-2.13-4-4.53-7.88-6.91-11.73s-5-7.59-7.66-11.26c-5.3-7.35-10.85-14.52-16.35-21.69-2.77-3.63-5.69-7.07-8.57-10.57l-8.66-10.44-8.7-10.42L365,132.43c-1.36-1.76-2.84-3.58-4.3-5.28-5.88-6.9-11.93-13.64-18.07-20.3s-12.45-13.16-19-19.44A53.17,53.17,0,0,0,312.86,79a17.53,17.53,0,0,0-6.5-2.32,8.93,8.93,0,0,0-4.83.71,3.09,3.09,0,0,1,.86.41,4.75,4.75,0,0,1,.64-.2,9.21,9.21,0,0,1,3.23-.12,17.48,17.48,0,0,1,6.15,2.34,52.45,52.45,0,0,1,10.4,8.45c6.43,6.33,12.58,13,18.67,19.64s12.1,13.44,17.93,20.33c1.48,1.75,2.84,3.44,4.24,5.27s2.84,3.54,4.28,5.29l8.65,10.46,8.72,10.4c2.88,3.48,5.84,6.92,8.57,10.48,5.55,7.15,11.11,14.28,16.44,21.57C413,195.32,415.61,199,418.05,202.76Z"/><path d="M477,122.82a26.25,26.25,0,0,0-.74-5.25,13.9,13.9,0,0,0-2.23-5c-.15-.18-.29-.37-.44-.56l-.52-.5a6,6,0,0,0-1.16-.9,5.07,5.07,0,0,0-2.91-.8,5,5,0,0,0-2.8,1,21.44,21.44,0,0,0-2.07,1.69c-.53.48-1,1-1.54,1.48a3.64,3.64,0,0,1,1,.75c.47-.39.94-.8,1.42-1.18,1.37-1,2.73-2.21,4-2.12a4.66,4.66,0,0,1,3.59,2.17,12.75,12.75,0,0,1,2,4.36,30.83,30.83,0,0,1,1,4.92,102.31,102.31,0,0,1,.5,10.26A45,45,0,0,0,477,122.82Z"/><path d="M431.42,231a71.12,71.12,0,0,1-12.23-3.72,43.27,43.27,0,0,1-5.63-2.89,24.2,24.2,0,0,1-4.79-4c-2.84-3-4.44-7-5.49-11.11s-1.88-8.4-3.36-12.54a35,35,0,0,0-6.43-11.45,17.32,17.32,0,0,0-2.34-2.35,18.48,18.48,0,0,0-2.68-2,8.65,8.65,0,0,0-1.48-.77,13.89,13.89,0,0,0-1.53-.67,17.22,17.22,0,0,0-3.23-.76,17,17,0,0,0-3.9,0,15,15,0,0,1,2.29.67c.49.05,1,.12,1.48.22,4.19.64,7.76,3.28,10.35,6.53a36.24,36.24,0,0,1,3.44,5.28,39.83,39.83,0,0,1,2.45,5.84c1.37,4,2.14,8.23,3.23,12.46a35.61,35.61,0,0,0,2.22,6.23,21.53,21.53,0,0,0,3.75,5.55,29.14,29.14,0,0,0,11.15,7,71.87,71.87,0,0,0,12.59,3.32h.06A3.57,3.57,0,0,1,431.42,231Z"/><path d="M434.09,253.17a16.31,16.31,0,0,1-2.16,7.63,12.16,12.16,0,0,1-9.64,6.59,15,15,0,0,1-6-.91,12.51,12.51,0,0,1-5.08-3.08c-2.82-2.84-4.37-6.86-5.23-10.93a57.64,57.64,0,0,1-1.13-12.61,89.07,89.07,0,0,1,1-12.73,39.17,39.17,0,0,1,1.38-6.16c0-.09.06-.19.1-.29a3,3,0,0,1-1.09-1.47,10.13,10.13,0,0,1-.44,1.2,37.59,37.59,0,0,0-1.75,6.4c-1.62,8.56-2.14,17.43-.4,26.16a31.3,31.3,0,0,0,2.08,6.38A18.72,18.72,0,0,0,409.7,265a14.7,14.7,0,0,0,6,3.43,15.89,15.89,0,0,0,6.79.79,12.39,12.39,0,0,0,6.33-2.6,14.78,14.78,0,0,0,4.16-5.28,17.42,17.42,0,0,0,1.62-6.41,14.61,14.61,0,0,0-.07-2.29A3.06,3.06,0,0,1,434.09,253.17Z"/><path d="M434.37,238.08a3.69,3.69,0,0,1-1.49-.38,5.61,5.61,0,0,1-.6-.37c.23.68.46,1.37.66,2.06a24.9,24.9,0,0,1,1.22,8.89,12,12,0,0,1-3.36,7.91,17.49,17.49,0,0,1-7.87,4.21,34,34,0,0,1-9.18,1.11,30.46,30.46,0,0,0,9.38-.27,17.58,17.58,0,0,0,8.62-4.07,13.07,13.07,0,0,0,4.07-8.75,26.31,26.31,0,0,0-1.18-9.53C434.55,238.62,434.45,238.35,434.37,238.08Z"/><path d="M554.27,428.12l-.44-1.7-.57-1.67c-.38-1.11-.73-2.24-1.13-3.34l-1.35-3.27a74.52,74.52,0,0,0-6.91-12.32,77.61,77.61,0,0,0-9-10.88c-1.55-1.56-3.14-3.07-4.79-4.54a4.32,4.32,0,0,1-.54-.14c-.88-.32-1.74-.66-2.59-1a89.71,89.71,0,0,1,16.21,17.11,78.6,78.6,0,0,1,12,25.2Z"/><path d="M521.13,341.11a114.56,114.56,0,0,0,5.42,13.07A124.89,124.89,0,0,0,541.81,378l17.39,22a201,201,0,0,1,16,22.9,84.47,84.47,0,0,1,6.78,15.39h1.49A86.77,86.77,0,0,0,576.75,422c-4.48-8.34-10.18-15.88-15.85-23.33l-17.24-22.18a122.47,122.47,0,0,1-15.19-23.27,124.07,124.07,0,0,1-9.39-26.16,135.19,135.19,0,0,1-3.65-27.64,130.66,130.66,0,0,1,1.84-27.91,131.18,131.18,0,0,0,.05,56A111.43,111.43,0,0,0,521.13,341.11Z"/><path d="M577.89,426.12a2.37,2.37,0,0,1,.28.44,19.8,19.8,0,0,1,1.51,4.35c.57-9.15.69-18.32.47-27.47a365.47,365.47,0,0,0-3.49-41.79,404.67,404.67,0,0,0-8.16-41.13,280,280,0,0,0-13-39.86c-.68-1.61-1.38-3.22-2.14-4.8l-1.12-2.38L551,271.13c-1.6-3.12-3.22-6.16-4.78-9.27a207.22,207.22,0,0,1-8.13-19.18,167.75,167.75,0,0,1-5.83-20q-1.15-5.1-1.88-10.27a82.34,82.34,0,0,1-.93-10.4,103.89,103.89,0,0,0,2.2,20.79A166.91,166.91,0,0,0,537,243.05a203.29,203.29,0,0,0,7.87,19.45c1.51,3.15,3.14,6.28,4.66,9.39l1.16,2.32,1.06,2.37c.73,1.57,1.39,3.17,2,4.78,2.61,6.43,4.89,13,7,19.61s4,13.33,5.63,20.08A403.77,403.77,0,0,1,574.33,362,352.08,352.08,0,0,1,577.89,426.12Z"/><path d="M466.84,146.33c-.64.11-1.27.2-1.89.35a26.85,26.85,0,0,0-3.78,1.13,3.31,3.31,0,0,1,.46,1.53,32,32,0,0,1,3.66-1.33c.64-.19,1.29-.35,1.94-.5A3.57,3.57,0,0,1,466.84,146.33Z"/><path d="M270.23,193.33a7.47,7.47,0,0,1-.24,1.49,3.18,3.18,0,0,1,.65-.28,7.5,7.5,0,0,0,.18-1.17,7,7,0,0,0-.16-2.09,3.7,3.7,0,0,1-.58-.1A7.38,7.38,0,0,1,270.23,193.33Z"/><path d="M246.15,280.7a6.14,6.14,0,0,1,1.11-.19l-.15-1.38q-.23-2.65-.42-5.31a6.27,6.27,0,0,1-1.14.1c.09,1.77.23,3.55.42,5.32C246,279.73,246.09,280.21,246.15,280.7Z"/><path d="M329.54,333.26a11.94,11.94,0,0,1,2.33-8.17,13.33,13.33,0,0,1,3.14-3c1.2-.85,2.51-1.51,3.72-2.2,4.91-2.89,9.72-6,14.47-9.15s9.52-6.33,14.22-9.57c2.35-1.62,4.69-3.26,7-5a65.08,65.08,0,0,0,6.7-5.34,56.2,56.2,0,0,1-6.34,5.8c-2.23,1.8-4.52,3.52-6.82,5.24-4.6,3.4-9.33,6.63-14.09,9.82s-9.63,6.2-14.68,8.95c-1.29.67-2.58,1.26-3.74,2a13.09,13.09,0,0,0-3.11,2.78A12.05,12.05,0,0,0,329.54,333.26Z"/><path d="M337.78,304.53c2.61-2.29,5.3-4.48,8-6.65s5.44-4.31,8.22-6.38,5.55-4.13,8.28-6.23c1.37-1,2.72-2.13,4-3.27a23.34,23.34,0,0,0,3.61-3.69c-1.74,3-4.46,5.36-7,7.66s-5.39,4.39-8.16,6.48-5.54,4.15-8.37,6.15S340.69,302.63,337.78,304.53Z"/><path d="M374.3,304.69l-7,4.83c-4.67,3.23-9.28,6.55-13.92,9.82l-6.89,5L343,326.85c-.57.41-1.15.83-1.72,1.28a17.07,17.07,0,0,0-1.66,1.4,22.46,22.46,0,0,0-4.93,6.56,2.11,2.11,0,0,1,.66.05,22,22,0,0,1,4.87-5.94c2.14-1.74,4.54-3.31,6.84-5L354,320.3c4.59-3.35,9.21-6.65,13.78-10l6.83-5.1c2.25-1.73,4.52-3.43,6.75-5.2C379,301.51,376.66,303.12,374.3,304.69Z"/><path d="M260.47,106.28a73.24,73.24,0,0,0-13.7,21.06q-3,6.57-5.65,13.26c-1.77,4.47-3.47,9-5,13.57a89.77,89.77,0,0,0-3.5,14.13c-.17,1.21-.31,2.44-.39,3.65a34.72,34.72,0,0,0-.13,3.72,21.51,21.51,0,0,0,1.67,7.37,51.66,51.66,0,0,0,3.45,6.45,20.08,20.08,0,0,1,2.38,6.35,17.49,17.49,0,0,1-.2,6.72A27.77,27.77,0,0,1,237,209c-2.15,4.25-4.46,8.43-7,12.47-1.26,2-2.54,4-3.94,5.91l-.53.68c-.17.21-.34.4-.59.73a6.89,6.89,0,0,0-.93,1.86,14.53,14.53,0,0,0-.64,3.77,17,17,0,0,0,.23,3.77c.06.32.12.61.21,1a7.11,7.11,0,0,0,.38,1,11.42,11.42,0,0,0,1,1.66,18.38,18.38,0,0,0,5.51,5,28.74,28.74,0,0,0,3.34,1.58c1.12.46,2.23.92,3.4,1.31a8.91,8.91,0,0,0,.92.27,2,2,0,0,1,.63.26,2.44,2.44,0,0,1,.86,1.11,8.44,8.44,0,0,1,.47,3.3,33.62,33.62,0,0,1-1.07,7c-.33,1.35-.7,2.68-1.1,4a4.34,4.34,0,0,1,.72,0c.43-1.27.83-2.54,1.19-3.82a35,35,0,0,0,1.35-7.16,9.4,9.4,0,0,0-.45-3.79,3.59,3.59,0,0,0-1.29-1.69,3,3,0,0,0-1-.45c-.28-.08-.52-.15-.8-.25-1.1-.4-2.2-.87-3.28-1.35a29.42,29.42,0,0,1-3.13-1.55,16.84,16.84,0,0,1-5-4.69,9.64,9.64,0,0,1-.83-1.45,4.73,4.73,0,0,1-.42-1.51,15.36,15.36,0,0,1-.14-3.39,12.23,12.23,0,0,1,.63-3.28,5.26,5.26,0,0,1,.68-1.34c.11-.14.35-.4.56-.65l.59-.72c1.5-1.95,2.85-3.95,4.14-6,2.57-4.09,4.93-8.3,7.13-12.59a29.86,29.86,0,0,0,2.64-6.95,19.81,19.81,0,0,0,.27-7.56,22.3,22.3,0,0,0-2.58-7.07,50,50,0,0,1-3.29-6.23,19.38,19.38,0,0,1-1.46-6.59,31.45,31.45,0,0,1,.11-3.46c.07-1.18.19-2.34.35-3.5a86.86,86.86,0,0,1,3.31-13.78c1.43-4.54,3.09-9,4.82-13.46s3.59-8.86,5.53-13.23a75.09,75.09,0,0,1,6.6-12.56,72.14,72.14,0,0,1,6.61-8.57A2.61,2.61,0,0,1,260.47,106.28Z"/><path d="M550.16,397.69a44.36,44.36,0,0,1,4.56,9.65c1.17,3.36,1.8,6.9,2.67,10.4s1.75,7,2.88,10.41c.58,1.71,1.19,3.42,1.94,5.08a25.07,25.07,0,0,0,2.67,4.79c.09.14.2.26.3.4l1.42,0c-.29-.33-.57-.67-.83-1a24.47,24.47,0,0,1-2.59-4.58c-.73-1.61-1.34-3.28-1.92-5-1.14-3.38-2.07-6.84-3-10.3s-1.64-7-2.9-10.41a40.84,40.84,0,0,0-4.88-9.64,28.55,28.55,0,0,0-7.49-7.69A29.85,29.85,0,0,1,550.16,397.69Z"/><path d="M466.29,143.6a29,29,0,0,0-10.51,3.18,65.36,65.36,0,0,0-9.94,6.29,97.76,97.76,0,0,0-8.91,7.61,96.81,96.81,0,0,1,9.15-7.29,67.64,67.64,0,0,1,10-6,27.94,27.94,0,0,1,10.34-2.83A3,3,0,0,1,466.29,143.6Z"/><path d="M545.92,403.85a42.41,42.41,0,0,0-7.57-9.07,36.53,36.53,0,0,0-10-6.34,52.1,52.1,0,0,0-11.44-3.16,40.55,40.55,0,0,1-11-3.22,70.07,70.07,0,0,1-19.25-12.55,45.33,45.33,0,0,1-7.37-8.67,25,25,0,0,1-4-10.34,93.45,93.45,0,0,1-.61-11.52c0-3.88.11-7.77.28-11.65.7-15.55,2.2-31.09,4.07-46.57.92-7.74,1.94-15.46,3.19-23.14.63-3.84,1.3-7.67,2.12-11.45l2.52-11.44c3.27-15.29,6.35-30.74,7-46.49a90.26,90.26,0,0,0-1.69-23.57,34.29,34.29,0,0,0-4.4-11.1,21.66,21.66,0,0,0-6.43-6.57,3.64,3.64,0,0,1-.78,1.21,20.45,20.45,0,0,1,5.85,6.22,32.57,32.57,0,0,1,4,10.64,88.07,88.07,0,0,1,1.25,23.06c-1,15.49-4,30.81-7.4,46l-2.59,11.43c-.85,3.85-1.55,7.71-2.21,11.58-1.3,7.73-2.37,15.48-3.34,23.25-1.81,15.55-3.21,31.14-3.84,46.81-.14,3.92-.23,7.84-.2,11.77a97,97,0,0,0,.69,11.87,27.46,27.46,0,0,0,4.41,11.32,47.7,47.7,0,0,0,7.92,9,72.49,72.49,0,0,0,20.05,12.59,49.84,49.84,0,0,0,5.62,2c1,.28,1.94.51,2.92.71s2,.31,2.93.46a50.45,50.45,0,0,1,11.15,2.86,35.39,35.39,0,0,1,9.86,5.84,41.24,41.24,0,0,1,7.64,8.65,61.24,61.24,0,0,1,4.92,9.13,2.56,2.56,0,0,1,.68.38A61.66,61.66,0,0,0,545.92,403.85Z"/><path d="M256.58,190.41c-.76,0-1.54,0-2.22-.1s-1.24-.6-1.62-1.44-.64-1.71-1-2.6a8.79,8.79,0,0,0,.24,2.88,3.25,3.25,0,0,0,.72,1.42,2.47,2.47,0,0,0,1.52.78,10.45,10.45,0,0,0,2,0A3.62,3.62,0,0,1,256.58,190.41Z"/><path d="M483.32,143.93l-.07-1.71-.09-3.48-.18-7c-.09-2.33-.2-4.66-.35-7a39.56,39.56,0,0,0-.94-7.06,6.68,6.68,0,0,0-2.06-3.19,8.76,8.76,0,0,0-3.27-1.76,11.91,11.91,0,0,0-2.7-.45,3.32,3.32,0,0,1,.56,1.11,10,10,0,0,1,1.8.41,6.31,6.31,0,0,1,4.37,4.25,47.59,47.59,0,0,1,.69,6.78q.17,3.46.22,7l.13,7,.07,3.5.07,1.77a5.58,5.58,0,0,1-.1,1.49,3.46,3.46,0,0,1-4.19,2.74,13.33,13.33,0,0,1-1.54-.52l-.4-.15-.25-.09a1.27,1.27,0,0,0-.62-.07,1.15,1.15,0,0,0-.53.25l-.12.07a2,2,0,0,1-.29.13,8,8,0,0,1-3.07.44,3.28,3.28,0,0,1-2.48-1,2,2,0,0,1-.12-.5c0-.25-.06-.53-.09-.81,0-.56-.08-1.13-.1-1.7-.08-2.3-.09-4.62-.1-6.94,0-4.64.1-9.29.19-13.94,0-2.33.06-4.64,0-7a2.42,2.42,0,0,0-.58-1.78,1,1,0,0,0-1,0,3.64,3.64,0,0,0-.73.54c-.12.11-.23.23-.34.35,0,.06.09.12.13.19.12-.12.25-.23.38-.34.41-.34,1-.72,1.35-.47a2.19,2.19,0,0,1,.34,1.49c-.12,2.29-.3,4.63-.44,6.95-.27,4.64-.51,9.29-.68,14-.08,2.33-.15,4.66-.1,7,0,.58,0,1.18.08,1.78,0,.3,0,.6.09.92a2.7,2.7,0,0,0,.36,1.16,3.66,3.66,0,0,0,1.77,1.32,6.76,6.76,0,0,0,1.94.39,9.16,9.16,0,0,0,3.79-.51,3.14,3.14,0,0,0,.5-.23l.09-.05.39.15a15.77,15.77,0,0,0,1.77.61,5.19,5.19,0,0,0,6.29-4.05A7.05,7.05,0,0,0,483.32,143.93Z"/><path d="M474.55,149.13Z"/><path d="M475,149.06Z"/><path d="M412.06,371.59a95.78,95.78,0,0,0,12.12,9.79,56.32,56.32,0,0,0,6.66,3.88,33.35,33.35,0,0,0,7.15,2.61,19.9,19.9,0,0,0,7.44.44,15.91,15.91,0,0,0,6.9-2.7,10.31,10.31,0,0,0,1.51-1.14,14.06,14.06,0,0,0,1.42-1.26l1.33-1.38c.41-.49.8-1,1.2-1.5l.61-.76c.19-.26.36-.53.54-.8l1.08-1.62c.36-.54.63-1.13,1-1.7l1-1.7c-.49,1.21-.95,2.44-1.52,3.62l-.92,1.75c-.16.29-.3.59-.47.88l-.54.83a22,22,0,0,1-5.37,5.9,16.77,16.77,0,0,1-7.44,3.24,21.21,21.21,0,0,1-8.1-.38,39.73,39.73,0,0,1-14.21-7.09A63.59,63.59,0,0,1,412.06,371.59Z"/><path d="M265.7,196.53l.33-.17a10.19,10.19,0,0,0,0-6.72l-.27,0a8.79,8.79,0,0,1-.08,6.92Z"/><path d="M260.19,198.81l.34-.14.38-.13a4.7,4.7,0,0,1-1.27-1.71,8.59,8.59,0,0,1-.7-3.85,8.75,8.75,0,0,1,.7-3.86,5.31,5.31,0,0,1,.47-.84h-.93c-.1.15-.21.29-.3.44a8.6,8.6,0,0,0,0,8.49A5.71,5.71,0,0,0,260.19,198.81Z"/><path d="M435.4,220.3a41,41,0,0,0-3-7.92,150.53,150.53,0,0,0-8.37-14.6c-3-4.72-6.19-9.34-9.41-13.91s-6.47-9.13-10-13.54c-7-8.72-14.1-17.37-21.17-26L362,118.48c-3.6-4.29-7.17-8.59-10.83-12.83s-7.56-8.3-11.59-12.2-8.15-7.7-12.48-11.26c-2.17-1.78-4.37-3.53-6.72-5.11a23.63,23.63,0,0,0-7.76-3.48,13.71,13.71,0,0,0-4.29-.36,8.76,8.76,0,0,0-2.13.48,11.41,11.41,0,0,0-1.9,1c-1.2.74-2.37,1.5-3.54,2.26l-.58.38a9.71,9.71,0,0,1,1.22-.1c1.07-.67,2.15-1.33,3.24-2,2.27-1.63,5.16-1.55,7.78-.87,5.39,1.31,9.7,5.06,14,8.6s8.3,7.44,12.25,11.38,7.74,8,11.38,12.23,7.18,8.55,10.75,12.86l21.29,25.91c7.11,8.62,14.24,17.25,21.28,25.91,3.47,4.33,6.73,8.89,10,13.42s6.44,9.13,9.53,13.77a151.38,151.38,0,0,1,8.51,14.36,39.89,39.89,0,0,1,3.07,7.67,36,36,0,0,1,1.28,8.15,19.23,19.23,0,0,1-1.53,8c-.15.35-.33.69-.5,1a1.9,1.9,0,0,1,.61.2c.17-.33.34-.64.5-1a19.84,19.84,0,0,0,1.78-8.29A36.51,36.51,0,0,0,435.4,220.3Z"/><path d="M361.08,129.25h0a13.69,13.69,0,0,0-6.93,1.3,9.1,9.1,0,0,1,3.39-.92,19.72,19.72,0,0,1,3.52-.07h.09C361.12,129.46,361.09,129.35,361.08,129.25Z"/><path d="M456,134.1a28.11,28.11,0,0,1-5.71,4.1,35,35,0,0,1-6.45,2.77A47.25,47.25,0,0,1,437,142.6c-9.29,1.49-18.82.93-28.11-.59a127,127,0,0,1-27.21-7.49,98.75,98.75,0,0,0-9.35-3.31,2.21,2.21,0,0,1,.34.83c2.94,1,5.82,2.09,8.66,3.31a122.32,122.32,0,0,0,27.37,7.82c9.38,1.44,19,2,28.46.33a48.62,48.62,0,0,0,6.92-1.83,34.66,34.66,0,0,0,6.5-3,28.53,28.53,0,0,0,5.64-4.38,26.6,26.6,0,0,0,4.26-5.69A28.78,28.78,0,0,1,456,134.1Z"/><path d="M430.86,237.09a16.19,16.19,0,0,1-1.13,4.4,16.67,16.67,0,0,1-5.43,6.92,22.23,22.23,0,0,1-3.85,2.37,25.19,25.19,0,0,1-4.24,1.7,20.89,20.89,0,0,0,8.62-3.34,16,16,0,0,0,6-7.2,17.11,17.11,0,0,0,1.14-4.61.61.61,0,0,0,0-.14A2.59,2.59,0,0,1,430.86,237.09Z"/><path d="M540.42,187.34c-.7-2.71-1.51-5.39-2.32-8.07l-1.41-4c-.45-1.32-.93-2.64-1.49-3.93l-1.63-3.88c-.57-1.28-1.21-2.53-1.82-3.8l-.92-1.89c-.33-.62-.69-1.22-1-1.84-.7-1.22-1.36-2.46-2.09-3.66-6-9.49-13.8-18-23.54-23.73a58.51,58.51,0,0,0-15.52-6.42,55.41,55.41,0,0,0-7.1-1.31c0,.12,0,.24,0,.36a54.46,54.46,0,0,1,6.93,1.5,58,58,0,0,1,15.2,6.64,70.66,70.66,0,0,1,23,23.58,117.79,117.79,0,0,1,12.85,30.66c.66,2.7,1.44,5.38,2,8.11s1.19,5.45,1.62,8.2,1,5.5,1.33,8.26l1,8.31A185.8,185.8,0,0,0,540.42,187.34Z"/><path d="M273.11,114a18.69,18.69,0,0,0,11.06,2.79c1.89-.14,3.83-.56,5.75-.8s3.88-.51,5.82-.7a103.74,103.74,0,0,1,23.43.31,66.59,66.59,0,0,1,22.35,7,49.87,49.87,0,0,1,9.61,6.74,46.61,46.61,0,0,1,7.62,8.86,50.91,50.91,0,0,0-17.65-14.8,67.91,67.91,0,0,0-22.09-6.6,109.61,109.61,0,0,0-23.19-.57c-1.94.14-3.87.31-5.8.53l-2.89.36c-1,.13-1.95.25-2.94.29A18.59,18.59,0,0,1,273.11,114Z"/><path d="M375.94,124.8a82.08,82.08,0,0,0,10.41,3.49,83.93,83.93,0,0,0,10.72,2.22c7.21,1,14.6,1.2,21.71-.36l2.65-.58.67-.14.65-.21,1.29-.42,2.58-.85,2.56-1c3.42-1.32,6.8-2.73,10.21-4.09s6.78-2.8,10.25-4.06a24.56,24.56,0,0,1,5.37-1.34,8.07,8.07,0,0,1,1.39,0,6.37,6.37,0,0,1,1.38.19,8.73,8.73,0,0,1,1.32.4c.43.18.84.4,1.25.59a9.19,9.19,0,0,0-5.3-.84,23.37,23.37,0,0,0-5.21,1.58c-3.4,1.35-6.73,2.88-10.1,4.35S433,126.58,429.58,128L427,129l-2.64.89-1.32.44-.66.22-.68.16-2.71.62c-.45.09-.9.21-1.36.28l-1.38.18-2.76.35c-.92.08-1.85.1-2.77.15s-1.85.13-2.77.08c-1.85,0-3.7,0-5.54-.26-.92-.09-1.84-.13-2.76-.27l-2.73-.42A78.15,78.15,0,0,1,375.94,124.8Z"/><path d="M362.8,60.93a85.11,85.11,0,0,0-22.08.83c-7.23,1.43-14.39,3.95-20.44,8.29a41.36,41.36,0,0,0-5.38,4.6,2.23,2.23,0,0,1,.59.41,40.85,40.85,0,0,1,5.3-4.26,53,53,0,0,1,20.15-7.89,89.25,89.25,0,0,1,21.79-1.08c1.82.16,3.65.24,5.47.46s3.64.4,5.44.69,3.63.53,5.43.85l5.41,1A126.21,126.21,0,0,0,362.8,60.93Z"/><path d="M362.39,74.11a71.3,71.3,0,0,0-19.95-2.48c-6.71.28-13.55,1.76-19.34,5.34-.55.34-1.09.71-1.62,1.08a3.12,3.12,0,0,1,.43.72c.55-.35,1.09-.7,1.65-1a36.51,36.51,0,0,1,9.14-3.64,46.75,46.75,0,0,1,9.78-1.29,65.55,65.55,0,0,1,9.9.42c1.64.24,3.29.44,4.92.75l2.44.49c.82.14,1.63.32,2.43.52,3.24.74,6.45,1.64,9.62,2.66,1.58.52,3.18,1,4.74,1.56l4.71,1.69A117,117,0,0,0,362.39,74.11Z"/><path d="M348.39,67.2a103.11,103.11,0,0,1,20.93-.84,111.44,111.44,0,0,1,20.77,3.11,93.39,93.39,0,0,1,10,3.18A74.92,74.92,0,0,1,409.71,77,71.44,71.44,0,0,1,426.62,89.3,84.72,84.72,0,0,0,418.3,83c-.71-.5-1.44-1-2.19-1.41s-1.46-.93-2.22-1.36c-1.52-.83-3-1.7-4.59-2.45s-3.15-1.47-4.72-2.2-3.19-1.35-4.84-1.91a93.38,93.38,0,0,0-9.94-3,119.55,119.55,0,0,0-20.54-3.35c-3.46-.29-6.94-.43-10.42-.44S351.87,66.91,348.39,67.2Z"/><path d="M340,105.5a35.74,35.74,0,0,0-5.05.74,45,45,0,0,1,5.05-.51A1.77,1.77,0,0,1,340,105.5Z"/><path d="M438.49,113.1a34.34,34.34,0,0,0-7,2.16c-4.54,1.87-8.91,4.09-13.27,6.31a28.38,28.38,0,0,1-6.71,2.58,31.22,31.22,0,0,1-7.15.79,50.75,50.75,0,0,1-14.28-2.3c-9.33-2.69-18.1-7.12-26.59-11.9a41.7,41.7,0,0,0-6.66-3.21,37.4,37.4,0,0,0-5.49-1.48,3.41,3.41,0,0,1,.79.82,34.6,34.6,0,0,1,4.45,1.36,40.91,40.91,0,0,1,6.46,3.29c8.43,5,17.26,9.42,26.72,12.25a51.83,51.83,0,0,0,14.6,2.24,28.38,28.38,0,0,0,14.28-3.64c4.3-2.31,8.61-4.62,13.07-6.58a35.41,35.41,0,0,1,6.87-2.39,10.16,10.16,0,0,1,7.08.8A9.94,9.94,0,0,0,438.49,113.1Z"/><path d="M289.91,136.59a63.31,63.31,0,0,0,8.52,6.9,57.45,57.45,0,0,0,9.52,5.35c6.62,2.92,14,4.5,21.14,3.41a54.18,54.18,0,0,0,5.34-1.06l5.36-1.24c3.58-.82,7.14-1.69,10.74-2.42a88.79,88.79,0,0,1,10.91-1.73,30,30,0,0,1,5.53.12,22.18,22.18,0,0,1,5.34,1.37,24.68,24.68,0,0,0-5.37-1.06,29.19,29.19,0,0,0-5.45.15,90.2,90.2,0,0,0-10.76,2L340,151l-5.35,1.29c-1.78.42-3.58.88-5.44,1.13a38.78,38.78,0,0,1-21.68-3.76A58,58,0,0,1,289.91,136.59Z"/><path d="M350.47,194.12a26.82,26.82,0,0,1-3.58-.26,24,24,0,0,1-3.47-.84,23.51,23.51,0,0,1-6.35-3.14A28.13,28.13,0,0,1,331.9,185a44.78,44.78,0,0,1-7.14-12.41c-.66-1.61-1.23-3.26-1.75-4.92a2.54,2.54,0,0,1-.72-.13c.47,1.81,1,3.61,1.62,5.37A43.31,43.31,0,0,0,331,185.75a28.88,28.88,0,0,0,5.46,5,21.61,21.61,0,0,0,6.7,3.13,26.12,26.12,0,0,0,14.51-.44A35,35,0,0,1,350.47,194.12Z"/><path d="M438.7,223.21a58.4,58.4,0,0,0,6.48.13,52.91,52.91,0,0,0,6.43-.51,37,37,0,0,0,12.2-3.65,20.59,20.59,0,0,0,8.9-8.72,21.51,21.51,0,0,0,2.09-6,24.21,24.21,0,0,0,.51-3.18c.12-1.07.13-2.15.22-3.24a25.27,25.27,0,0,1-2,12.84,20.38,20.38,0,0,1-9.16,9.37,34.06,34.06,0,0,1-12.64,3.5A48.08,48.08,0,0,1,438.7,223.21Z"/><path d="M463.1,157.4A39.52,39.52,0,0,1,466,169.06a27.51,27.51,0,0,1-1.41,12,19.09,19.09,0,0,1-3,5.34,19.62,19.62,0,0,1-4.57,4.06,23.85,23.85,0,0,1-2.69,1.42c-.47.2-.93.42-1.4.61l-1.43.48c-.95.35-1.95.49-2.92.75s-2,.31-3,.45c1-.27,1.94-.49,2.89-.76s1.91-.56,2.81-1a25.06,25.06,0,0,0,5.21-2.72,19.25,19.25,0,0,0,7-9.07,29.73,29.73,0,0,0,1.61-11.54,43.61,43.61,0,0,0-.64-5.9A47,47,0,0,0,463.1,157.4Z"/><path d="M265.65,107.72a23.76,23.76,0,0,1,4.24-3.7,36.46,36.46,0,0,1,4.87-2.85,40.44,40.44,0,0,1,10.82-3.29,46.2,46.2,0,0,1,11.33-.27A64.61,64.61,0,0,1,308,99.75,89.71,89.71,0,0,1,328.59,109q4.82,2.92,9.37,6.25c1.49,1.14,3,2.24,4.47,3.42l4.34,3.57-4.53-3.33c-1.51-1.1-3.08-2.12-4.61-3.19-3.09-2.1-6.26-4.09-9.5-5.94-.8-.48-1.63-.9-2.46-1.34l-2.46-1.32c-1.67-.83-3.34-1.65-5-2.42s-3.41-1.49-5.18-2.08c-.87-.31-1.74-.66-2.62-.94l-2.67-.81a63.45,63.45,0,0,0-10.9-2.21,50.15,50.15,0,0,0-11.09.11A39.93,39.93,0,0,0,275,101.69,31.3,31.3,0,0,0,265.65,107.72Z"/><path d="M396.79,103.28a66,66,0,0,0-8.47-3.19,78.87,78.87,0,0,0-17.86-2.81,110.91,110.91,0,0,0-18,.82c-2.54.33-5.07.75-7.58,1.24a3.08,3.08,0,0,1,.35.58c2.44-.37,4.88-.69,7.33-.92a121.53,121.53,0,0,1,17.89-.55c3,.13,5.95.38,8.9.78s5.87,1,8.77,1.73a66.84,66.84,0,0,1,8.47,2.84,60.64,60.64,0,0,1,8,4.11A52,52,0,0,0,396.79,103.28Z"/><path d="M410.41,136.2c2.27.13,4.54.24,6.81.24s4.53,0,6.79-.11a66.31,66.31,0,0,0,13.36-1.81,31.09,31.09,0,0,0,3.19-1l1.56-.61,1.47-.75c2-1,3.92-2.29,5.92-3.36s4-2.22,6.07-3.16a16.37,16.37,0,0,1,3.28-1.08,6.79,6.79,0,0,1,3.41.24,7.11,7.11,0,0,0-3.34.07,15.51,15.51,0,0,0-3.1,1.29c-2,1-3.93,2.23-5.86,3.42l-2.9,1.79c-1,.59-1.88,1.23-2.94,1.76l-1.54.82-1.62.64a32.53,32.53,0,0,1-3.3,1.07A56.62,56.62,0,0,1,424,137.24,80.59,80.59,0,0,1,410.41,136.2Z"/><path d="M461.9,152.81A35.12,35.12,0,0,1,457,166a31.5,31.5,0,0,1-4.63,5.92c-.85.94-1.84,1.72-2.77,2.57s-2,1.59-3,2.28a58.34,58.34,0,0,1-13.61,6.8c1.23-.35,2.46-.7,3.68-1.09s2.42-.85,3.61-1.36,2.36-1,3.48-1.66l1.7-.91,1.64-1a34.86,34.86,0,0,0,3.17-2.24c1-.86,2-1.65,2.88-2.6a32.69,32.69,0,0,0,4.87-6.06A35.18,35.18,0,0,0,462.49,155C462.26,154.29,462.09,153.57,461.9,152.81Z"/><path d="M552.81,261.29c-.86-1.7-1.62-3.44-2.38-5.19q-2.23-5.25-4-10.69a107.48,107.48,0,0,1-3-11c-.77-3.71-1.36-7.48-2-11.23-2.55-15-5.65-30-10.46-44.55a127.71,127.71,0,0,0-9.09-21.06c-.93-1.67-2-3.29-2.95-4.93-.5-.82-1.1-1.59-1.64-2.38s-1.2-1.51-1.8-2.27a46,46,0,0,0-8.51-7.75,69,69,0,0,0-20.71-9.74c-1.42-.4-2.86-.77-4.3-1.11a2.39,2.39,0,0,1,.19.53c1.32.35,2.64.72,3.94,1.13A68.7,68.7,0,0,1,506.47,141a48.19,48.19,0,0,1,8.27,7.68c.57.74,1.19,1.46,1.74,2.22s1.11,1.52,1.59,2.33c1,1.64,2,3.23,2.9,4.89A128.08,128.08,0,0,1,529.88,179c4.86,14.41,7.94,29.36,10.68,44.33.7,3.75,1.34,7.5,2.18,11.24a105.69,105.69,0,0,0,3.16,11c1.27,3.6,2.68,7.15,4.26,10.62.81,1.73,1.62,3.46,2.52,5.14a34.75,34.75,0,0,0,3,4.87A34.67,34.67,0,0,1,552.81,261.29Z"/><path d="M559.11,397.46a1.8,1.8,0,0,1,.38.16l.12-2.09a116.87,116.87,0,0,0-.66-19.16,117.16,117.16,0,0,0-10.69-36.75c-.66-1.46-1.41-2.88-2.15-4.3s-1.51-2.83-2.31-4.22c-1.54-2.8-3.41-5.48-4.95-8.19a69.82,69.82,0,0,1-7-17.5,143.42,143.42,0,0,1-3.54-18.68c-.46-3.14-.73-6.32-1.1-9.48s-.59-6.33-.82-9.51c-1-12.7-1.73-25.43-2.42-38.17l-1-19.11c-.14-3.17-.39-6.38-.64-9.57s-.71-6.37-1.3-9.53a98.38,98.38,0,0,0-5-18.56,64.43,64.43,0,0,0-9.3-16.81,48.59,48.59,0,0,0-6.61-7,46.66,46.66,0,0,0-7.82-5.57,44.44,44.44,0,0,0-8.8-3.79l-1-.27c0,.06,0,.13,0,.19l.93.28a44.52,44.52,0,0,1,8.65,4,45.94,45.94,0,0,1,7.61,5.68,47.72,47.72,0,0,1,6.36,7A64.11,64.11,0,0,1,515,173.19a96.91,96.91,0,0,1,4.69,18.39c.54,3.13.83,6.29,1.17,9.44s.46,6.33.58,9.52l.93,19.12c.64,12.74,1.28,25.48,2.27,38.22.23,3.19.58,6.37.86,9.55s.67,6.36,1.15,9.52a145,145,0,0,0,3.65,18.88,71.83,71.83,0,0,0,7.28,17.85c1.63,2.83,3.43,5.39,5,8.16.81,1.36,1.61,2.73,2.34,4.14s1.51,2.79,2.17,4.23A119.14,119.14,0,0,1,559.11,397.46Z"/><path d="M490.55,150.93c1.9,1.24,3,3.32,4,5.3a24.76,24.76,0,0,1,1.25,3.12,30.42,30.42,0,0,1,1,3.21l.8,3.27c.21,1.1.38,2.21.57,3.31.43,2.21.61,4.44.85,6.67s.33,4.47.44,6.7l.16,3.36v3.36c0,2.24,0,4.48,0,6.72l-.28,6.71c-.4,9-1.32,17.86-2.38,26.75l-.39,3.33-.47,3.32-.95,6.65L493.15,256c-2.7,17.67-4.93,35.42-6.2,53.24a262.62,262.62,0,0,0-.74,26.76c.08,2.23.2,4.46.33,6.69s.37,4.45.72,6.65a55.79,55.79,0,0,0,3.29,13A56,56,0,0,1,487,349.37c-.4-2.21-.6-4.44-.87-6.66s-.35-4.47-.47-6.7a258.53,258.53,0,0,1,.4-26.85c1.09-17.88,3.33-35.65,5.94-53.35l2-13.27,1-6.63.49-3.31.4-3.33.78-6.65c.26-2.22.55-4.43.71-6.66l.58-6.67.29-3.34.18-3.34.36-6.69c.08-2.23.07-4.46.11-6.69l0-3.35-.11-3.34c-.08-2.23-.11-4.46-.35-6.68s-.32-4.45-.7-6.65c-.17-1.1-.31-2.21-.5-3.31l-.72-3.27a30.09,30.09,0,0,0-.92-3.21,22.27,22.27,0,0,0-1.17-3.13C493.48,154.3,492.42,152.21,490.55,150.93Z"/><path d="M570.25,377.73c.76,6.94,1.17,13.92,1.43,20.9.2,5.47.2,11,0,16.43a2.45,2.45,0,0,1,.63.36c.28-5.6.4-11.21.26-16.82-.12-7-.57-14-1.28-21s-1.59-13.93-2.74-20.84a372.42,372.42,0,0,0-9.37-41,330.25,330.25,0,0,0-14-39.57c2.59,6.5,4.94,13.09,7.1,19.74s4.22,13.33,6.07,20.07A392.44,392.44,0,0,1,567.4,357Q569.19,367.31,570.25,377.73Z"/><path d="M459.1,229.88a30.37,30.37,0,0,1-11.63,4,49.51,49.51,0,0,1-11.92.06,2.3,2.3,0,0,1-.19.9,43.47,43.47,0,0,0,12.27.21,34.15,34.15,0,0,0,6.22-1.49,26.45,26.45,0,0,0,5.73-2.86,24.68,24.68,0,0,0,4.82-4.18l1-1.22.91-1.3a26.51,26.51,0,0,0,1.63-2.7A28.49,28.49,0,0,1,459.1,229.88Z"/><path d="M431,233.71a1.54,1.54,0,0,1,0-.48c-.72-.13-1.43-.25-2.14-.41-2.06-.41-4.08-.94-6.09-1.55a47.94,47.94,0,0,0,8.23,2.67A1.6,1.6,0,0,1,431,233.71Z"/><path d="M452.05,158a27,27,0,0,1-5,3.85,30,30,0,0,1-11.87,4c-8.39,1-16.91-.57-24.87-3.34q-3-1-5.9-2.31c-1-.42-1.92-.87-2.87-1.33l-1.43-.71-1.49-.65a28.63,28.63,0,0,0-6.45-1.91,3,3,0,0,1,.45,1.12,27,27,0,0,1,5.57,1.77l1.43.64,1.43.72c1,.48,1.92,1,2.9,1.38q2.94,1.32,6,2.39a67,67,0,0,0,12.5,3,45.12,45.12,0,0,0,12.87.09,30.47,30.47,0,0,0,12.06-4.39,27.79,27.79,0,0,0,4.92-4.12,30.67,30.67,0,0,0,3.81-5.14A34.72,34.72,0,0,1,452.05,158Z"/><path d="M382.42,155.31a58.64,58.64,0,0,0-21.06,6.32,67.62,67.62,0,0,1,12.05-4.09,53.69,53.69,0,0,1,9.41-1.46A3,3,0,0,1,382.42,155.31Z"/><path d="M436.16,227.59a3.87,3.87,0,0,1,0,.48,1,1,0,0,1,0,.25c1.11.07,2.21.11,3.32.13l3.64-.15c1.21-.11,2.42-.24,3.62-.37A70.57,70.57,0,0,1,436.16,227.59Z"/><path d="M430.58,226.64a45.14,45.14,0,0,1-5.12-1.56,32,32,0,0,1-6.3-3.3,29.52,29.52,0,0,1-9.5-10.45,33.37,33.37,0,0,1-2.82-6.59,34.75,34.75,0,0,1-1.54-7.06,32.76,32.76,0,0,0,3.56,14.07,29.47,29.47,0,0,0,9.64,11,33.88,33.88,0,0,0,6.58,3.33c1.17.37,2.32.82,3.52,1.08l1.78.44.18,0A3.34,3.34,0,0,1,430.58,226.64Z"/><path d="M329.46,118.39a2,2,0,0,1,.79.17l2.52,1.06-3.65-2.53a50.23,50.23,0,0,0-4.56-2.76l-4.63-2.64c-1.6-.78-3.22-1.51-4.83-2.26l-2.43-1.12c-.8-.4-1.67-.63-2.5-1l-5.06-1.73-5.21-1.22a49.47,49.47,0,0,0-10.65-1c-.45,0-.9,0-1.34,0l-1.33.14-2.67.29c-.88.13-1.75.37-2.62.55a15.12,15.12,0,0,0-2.58.7,24.77,24.77,0,0,0-9.28,5.11,25.63,25.63,0,0,1,9.44-4.56c.43-.11.84-.28,1.27-.36l1.29-.24c.86-.15,1.72-.37,2.59-.46l2.62-.21,1.31-.1c.43,0,.87,0,1.31,0a55.5,55.5,0,0,1,10.43,1.14l5.11,1.25,5,1.76c.82.31,1.68.52,2.47.9l2.41,1.09c1.6.73,3.21,1.43,4.8,2.18l4.62,2.58,2.31,1.28c.38.21.78.41,1.15.64l1.11.72Z"/><path d="M280.77,126.87a5.61,5.61,0,0,1,3.47-2.12,8.22,8.22,0,0,1,4.14.35,22.42,22.42,0,0,1,6.95,4.46c2.12,1.72,4.2,3.47,6.39,5.07a65.4,65.4,0,0,0,6.81,4.41c1.16.71,2.38,1.28,3.58,1.89.6.32,1.24.54,1.85.82s1.24.55,1.88.75a35,35,0,0,0,3.86,1.17l2,.47c.66.12,1.32.2,2,.31a35.06,35.06,0,0,0,16-1.53c-1.28.47-2.56,1-3.87,1.39-1.33.29-2.66.66-4,.88a34.07,34.07,0,0,1-8.26.16,40.43,40.43,0,0,1-15.6-5.29,79.45,79.45,0,0,1-13.2-9.81c-1-.93-2-1.82-3.1-2.63a16.58,16.58,0,0,0-1.67-1.1l-.88-.49-.92-.39a7.75,7.75,0,0,0-3.89-.58A5.69,5.69,0,0,0,280.77,126.87Z"/><path d="M344.91,187.56a12.9,12.9,0,0,0,7.58.13,14.3,14.3,0,0,0,6.33-4,23.81,23.81,0,0,0,2.43-3c.68-1.09,1.37-2.18,2-3.31s1.19-2.3,1.68-3.5,1-2.41,1.49-3.61c-.33,1.26-.72,2.5-1.09,3.77s-1,2.42-1.47,3.65a17.09,17.09,0,0,1-.91,1.75c-.34.57-.64,1.16-1,1.71a23.38,23.38,0,0,1-2.5,3.1,13.77,13.77,0,0,1-6.79,4.08,11.13,11.13,0,0,1-2,.29c-.33,0-.66.05-1,.05l-1-.06A11.15,11.15,0,0,1,344.91,187.56Z"/><path d="M395.51,179a31.13,31.13,0,0,0-15.1-6,48.42,48.42,0,0,0-12.15.17,2.76,2.76,0,0,1-.08.27,5.55,5.55,0,0,1-.4.81,48.73,48.73,0,0,1,12.48-.08,35.82,35.82,0,0,1,7.72,1.81,29.66,29.66,0,0,1,7,3.71,28.67,28.67,0,0,1,3.08,2.52c.48.46.92,1,1.39,1.44.22.25.46.48.68.73l.61.79a38.76,38.76,0,0,1,4.38,6.74A30.62,30.62,0,0,0,395.51,179Z"/><path d="M396.17,172.17l-.65-.13c-2.77-.57-5.51-1.25-8.24-2a90.79,90.79,0,0,0,9.13,2.81A2.55,2.55,0,0,1,396.17,172.17Z"/><path d="M437.24,172.57a56.64,56.64,0,0,1-16.59,2.31,96.38,96.38,0,0,1-14.19-.95c.15.2.3.4.48.61a3.48,3.48,0,0,1,.34.51,93.61,93.61,0,0,0,13.38,1,65.93,65.93,0,0,0,8.53-.66,42.76,42.76,0,0,0,8.33-2,33.18,33.18,0,0,0,7.7-3.72,28.81,28.81,0,0,0,6.29-5.72A32.58,32.58,0,0,1,437.24,172.57Z"/><path d="M458.44,176.44a20.54,20.54,0,0,1-4.88,6.46c-4.06,3.64-9.43,5.45-14.79,6.3a67.76,67.76,0,0,1-16.42.44c-1.65-.12-3.3-.31-4.94-.52a2.84,2.84,0,0,1,.48.81c1.45.24,2.91.44,4.38.61a70.28,70.28,0,0,0,8.34.45,53.17,53.17,0,0,0,8.35-.63,37.53,37.53,0,0,0,8.1-2.27,22.44,22.44,0,0,0,7.11-4.53,21.1,21.1,0,0,0,4.8-6.88,27.24,27.24,0,0,0,1.82-8.12A29.27,29.27,0,0,1,458.44,176.44Z"/><path d="M470.24,190.59a65.33,65.33,0,0,0-1.72-6.64c0,.07,0,.14,0,.21a2.15,2.15,0,0,1-.72,1.05c.51,1.86,1,3.73,1.34,5.62a47.79,47.79,0,0,1,1.08,11.36,22.67,22.67,0,0,1-.91,5.61,15.24,15.24,0,0,1-2.57,5.1A14.16,14.16,0,0,0,469.8,208a23,23,0,0,0,1.28-5.73A41.16,41.16,0,0,0,470.24,190.59Z"/><path d="M423.59,210.51a2.75,2.75,0,0,1-.21-.51c-.69,0-1.38-.06-2.06-.11-3-.2-5.91-.53-8.85-1a81.58,81.58,0,0,0,11.22,1.76Z"/><path d="M465.29,189.64a21.26,21.26,0,0,1-9.74,14.52,31.81,31.81,0,0,1-7.94,3.6,61.9,61.9,0,0,1-16.78,2.39,3.63,3.63,0,0,1,.28.92A59.29,59.29,0,0,0,448,208.88a32.63,32.63,0,0,0,8.18-3.82,22.14,22.14,0,0,0,6.43-6.36,23.12,23.12,0,0,0,3.2-8.4c.06-.46.13-.91.19-1.37A2.64,2.64,0,0,1,465.29,189.64Z"/><path d="M527.85,228.81c.27,4.75.58,9.49,1,14.22s.83,9.46,1.37,14.18c1.07,9.43,2.32,18.84,4.12,28.16.84,4.66,1.82,9.3,3,13.9.54,2.31,1.19,4.58,1.83,6.87s1.36,4.53,2.14,6.77A93.09,93.09,0,0,0,546.75,326,45.32,45.32,0,0,0,555,337.53a43.72,43.72,0,0,1-8.72-11.26,94.66,94.66,0,0,1-5.82-13.06,135.61,135.61,0,0,1-4.16-13.68c-1.18-4.61-2.21-9.27-3.08-13.95q-2.56-14.06-3.86-28.28C528.46,247.82,527.89,238.32,527.85,228.81Z"/><path d="M501.16,155.64a40.45,40.45,0,0,1,5.72,8.4l.61,1.13.53,1.15,1.08,2.32q1,2.36,1.89,4.74a102.22,102.22,0,0,1,4.76,19.82,148.65,148.65,0,0,1,1.34,20.33c-.08,3.39-.24,6.78-.38,10.17-.34,3.38-.64,6.75-1,10.12.11-3.39.3-6.77.45-10.15s.07-6.76,0-10.14a161.74,161.74,0,0,0-1.6-20.16,108.54,108.54,0,0,0-4.44-19.69q-.84-2.38-1.72-4.76l-1-2.32-.49-1.16-.56-1.14A44.07,44.07,0,0,0,501.16,155.64Z"/><path d="M493.89,327.91c-.14,2.94-.19,5.88-.1,8.82s.19,5.88.46,8.8a85.82,85.82,0,0,0,3.14,17.24,41.48,41.48,0,0,0,7.89,15.42,25.61,25.61,0,0,0,6.59,5.63A29.35,29.35,0,0,0,520,387a27.45,27.45,0,0,1-8.43-2.71,26,26,0,0,1-7-5.53c-4.07-4.44-6.56-10-8.33-15.68a69.88,69.88,0,0,1-1.94-8.69,81.65,81.65,0,0,1-1-8.83A96.68,96.68,0,0,1,493.89,327.91Z"/><path d="M506.66,187.46c2,11.78,1.92,23.81,1.29,35.72-.3,6-1,11.91-1.7,17.83l-2.18,17.74c-1.43,11.83-2.65,23.69-3.12,35.58a165.69,165.69,0,0,0,.16,17.83,69.49,69.49,0,0,0,3.19,17.51,66.32,66.32,0,0,1-3.76-17.46,167.31,167.31,0,0,1-.5-17.91c.29-11.95,1.52-23.83,2.86-35.68s3.3-23.63,4.15-35.5c.44-5.93.68-11.88.66-17.83A136.2,136.2,0,0,0,506.66,187.46Z"/><path d="M410.21,252.75a25.88,25.88,0,0,1-.58-3,28.45,28.45,0,0,1-.4-3.06,89.56,89.56,0,0,1-.31-12.37c.11-3.75.44-7.49.84-11.23a2.1,2.1,0,0,1-.91-.34,96.94,96.94,0,0,0-1.1,11.53,67.23,67.23,0,0,0,.58,12.52A36,36,0,0,0,412,258.69c-.34-1-.68-2-1-2.94S410.47,253.75,410.21,252.75Z"/><path d="M566.11,414.4q2.68,4.26,5.07,8.71c.79,1.49,1.58,3,2.31,4.49s1.45,3,2.2,4.54c1,2,1.87,4.11,2.78,6.18h.42l-.57-1.78c-.6-1.58-1.15-3.18-1.8-4.75a93.09,93.09,0,0,0-4.3-9.23,83.07,83.07,0,0,0-5.36-8.66,47.85,47.85,0,0,0-6.63-7.71q1.63,1.95,3.07,4C564.28,411.57,565.21,413,566.11,414.4Z"/><path d="M554.18,417.72a2.21,2.21,0,0,1,.59.24,83.32,83.32,0,0,0-4.93-13.79,51.37,51.37,0,0,0-7.07-11,63.9,63.9,0,0,0-9.48-9c-1.7-1.35-3.46-2.62-5.2-3.9l-2.61-1.92-1.3-1c-.42-.33-.82-.68-1.22-1a33.28,33.28,0,0,1-7.85-10,52.83,52.83,0,0,1-4.48-12,69.46,69.46,0,0,1-2-12.77,59.19,59.19,0,0,0,5.69,25.22,32.34,32.34,0,0,0,8,10.37c.42.35.83.72,1.26,1.07l1.3,1,2.59,1.94c1.73,1.29,3.47,2.58,5.14,3.93a63.79,63.79,0,0,1,9.39,8.74A55.31,55.31,0,0,1,549,404.57a82.58,82.58,0,0,1,4.77,12C553.93,416.94,554.05,417.33,554.18,417.72Z"/><path d="M508.23,300.7c.19,2.7.42,5.4.74,8.08s.61,5.37,1,8A157.77,157.77,0,0,0,513,332.7,93.26,93.26,0,0,0,518,348a51,51,0,0,0,3.66,7.18,39.93,39.93,0,0,0,4.81,6.49,41.92,41.92,0,0,1-9.3-13.29,65.1,65.1,0,0,1-3-7.59c-.86-2.58-1.64-5.19-2.29-7.83a134.72,134.72,0,0,1-2.81-16.05A125.81,125.81,0,0,1,508.23,300.7Z"/><path d="M307.68,119.89a63.36,63.36,0,0,1,11.84.46,72.17,72.17,0,0,1,11.61,2.52l2.82,1c.92.36,1.83.76,2.75,1.14a26.34,26.34,0,0,1,2.69,1.26,27.42,27.42,0,0,1,2.62,1.41,42.49,42.49,0,0,1,9.28,7.37L349,133.13c-.38-.31-.74-.65-1.13-.93l-1.22-.84c-.82-.54-1.59-1.15-2.43-1.65l-2.55-1.46a59.69,59.69,0,0,0-10.82-4.54A80.91,80.91,0,0,0,319.42,121c-1.93-.31-3.88-.57-5.84-.75S309.66,120,307.68,119.89Z"/><path d="M310.24,154.86a18.36,18.36,0,0,0,4.28,1.41c.73.19,1.48.29,2.21.43L319,157a46,46,0,0,0,9-.13,67.47,67.47,0,0,0,8.9-1.49c1.46-.35,2.91-.75,4.38-1.13l4.33-1.33-4.25,1.6c-1.45.44-2.89.89-4.35,1.3a60.6,60.6,0,0,1-9,1.64,43.25,43.25,0,0,1-9.1,0A24.06,24.06,0,0,1,310.24,154.86Z"/><path d="M467.24,134.07a22.87,22.87,0,0,0-12.71,6.41,33.48,33.48,0,0,1-3.26,3,21.67,21.67,0,0,1-3.82,2.15C442,148,436,148.68,430,149c-3,.15-6,.13-9,0s-6-.32-9-.62a93.7,93.7,0,0,0,18,1.5,61.27,61.27,0,0,0,9.06-.74,37,37,0,0,0,8.82-2.43,22.34,22.34,0,0,0,4-2.32,34.76,34.76,0,0,0,3.34-3.14,24.39,24.39,0,0,1,7.24-5,22.89,22.89,0,0,1,4.72-1.48A3,3,0,0,1,467.24,134.07Z"/><path d="M524.73,330.07c.91,2.38,1.81,4.76,2.78,7.11s1.9,4.72,2.92,7.05c2,4.67,4,9.33,6.37,13.84a129.67,129.67,0,0,0,7.42,13.28c.34.53.65,1.09,1,1.61l1.09,1.55c.74,1,1.43,2.11,2.26,3.06s1.54,2,2.4,2.95,1.75,1.84,2.62,2.78a54.83,54.83,0,0,1-10.14-11.45,113.73,113.73,0,0,1-7.71-13.25c-2.26-4.59-4.33-9.26-6.16-14A151.34,151.34,0,0,1,524.73,330.07Z"/><path d="M322.81,87.43a3.06,3.06,0,0,1-.34-.54l-.85-.1-4.71-.46c-1.57-.19-3.15-.17-4.73-.26-3.15-.22-6.32,0-9.48.08l-4.73.43c-1.57.16-3.13.46-4.7.69a60.81,60.81,0,0,0-18,6,39.61,39.61,0,0,0-7.82,5.4,17.64,17.64,0,0,0-5,8,18,18,0,0,1,5.4-7.53,39.64,39.64,0,0,1,7.86-5,62.81,62.81,0,0,1,17.77-5.66c1.54-.24,3.07-.56,4.63-.73l4.66-.48c3.13-.14,6.26-.32,9.39-.24,3.57,0,7.13.19,10.69.5Z"/><path d="M316.25,81.44a106.21,106.21,0,0,0-21.68.58,68.86,68.86,0,0,0-11.32,2.55,48.59,48.59,0,0,0-10.61,4.7,37.17,37.17,0,0,0-8.93,7.4,25.52,25.52,0,0,0-5.53,10.06,26.15,26.15,0,0,1,6-9.68,36.43,36.43,0,0,1,9-7,59.79,59.79,0,0,1,21.64-6.86A111.07,111.07,0,0,1,317,82.42,1.72,1.72,0,0,1,316.25,81.44Z"/><path d="M327.1,82.61a2.14,2.14,0,0,1,.23.64c.58.07,1.17.12,1.74.21,1.91.24,3.82.42,5.72.72l5.7.85Q333.85,83.56,327.1,82.61Z"/><path d="M374.66,112.63c1.78.84,3.57,1.62,5.4,2.31s3.65,1.36,5.52,1.93a69.24,69.24,0,0,0,11.36,2.52,46.19,46.19,0,0,0,11.57.09,35.45,35.45,0,0,0,11.13-3.32,30.57,30.57,0,0,1-5.26,2.67,35.4,35.4,0,0,1-5.73,1.55,40,40,0,0,1-11.86.18,57.89,57.89,0,0,1-22.13-7.93Z"/><path d="M358,93.28a104.75,104.75,0,0,1,17.8-.08,121.9,121.9,0,0,1,17.62,2.68,97.68,97.68,0,0,1,16.94,5.58,79.45,79.45,0,0,1,15.4,8.91L421.94,108l-1.89-1.16-2-1c-1.31-.67-2.61-1.39-3.94-2l-4.07-1.75a102.72,102.72,0,0,0-16.87-5.35,130.53,130.53,0,0,0-17.48-2.87c-1.47-.12-2.95-.27-4.42-.36s-3-.19-4.44-.22C363.89,93.16,360.93,93.17,358,93.28Z"/><path d="M277.53,123.33a11.43,11.43,0,0,1,5.08-2.17,19,19,0,0,1,5.59-.1,32.24,32.24,0,0,1,10.52,3.72l2.43,1.4,2.31,1.58c1.55,1,3,2.09,4.57,3.08a52.6,52.6,0,0,0,9.86,4.74,46.36,46.36,0,0,0,10.64,2.54,52,52,0,0,0,11,0c1.82-.17,3.66-.5,5.54-.57a32.63,32.63,0,0,1,5.59.28,37.64,37.64,0,0,1,10.6,3.29,40.16,40.16,0,0,0-10.67-2.72,32.36,32.36,0,0,0-5.48-.1c-1.82.11-3.62.49-5.48.72a47.66,47.66,0,0,1-22.08-2.37,53.52,53.52,0,0,1-10-4.95c-1.56-1-3.09-2.12-4.59-3.16L300.62,127l-2.34-1.44a31.44,31.44,0,0,0-10.16-3.94,18.85,18.85,0,0,0-5.46-.17A12.06,12.06,0,0,0,277.53,123.33Z"/><path d="M315.34,159.57c2,.8,4,1.6,6.07,2.31s4.06,1.46,6.11,2.12A126,126,0,0,0,340,167.37a60.91,60.91,0,0,0,12.74,1.51,28.86,28.86,0,0,0,6.36-.66,18.13,18.13,0,0,0,6-2.36,16.88,16.88,0,0,1-5.82,2.92,29.55,29.55,0,0,1-6.48,1,52,52,0,0,1-13-1.26,89.8,89.8,0,0,1-12.51-3.68A96.41,96.41,0,0,1,315.34,159.57Z"/><path d="M335.92,180.2a28,28,0,0,1-3.92-5.81,35.46,35.46,0,0,1-1.86-4.18,1.83,1.83,0,0,1-1.22-.27,30.35,30.35,0,0,0,2,5,23,23,0,0,0,4.31,5.92,15.07,15.07,0,0,0,6.31,3.57A19.44,19.44,0,0,1,335.92,180.2Z"/><path d="M414.72,156.85,411,155a35,35,0,0,0-3.74-1.71c-1.27-.52-2.55-1-3.84-1.51s-2.62-.81-3.93-1.23a75.34,75.34,0,0,0-8-1.89c-1.85-.27-3.71-.46-5.57-.59a2.06,2.06,0,0,1,.7,1.18c1.57.14,3.13.32,4.68.57a74.2,74.2,0,0,1,7.92,1.77c1.3.39,2.63.66,3.89,1.16s2.55.93,3.83,1.38a32.46,32.46,0,0,1,3.77,1.55l3.72,1.66c2.45,1.2,4.81,2.56,7.26,3.78C419.4,159.69,417.08,158.23,414.72,156.85Z"/><path d="M376.51,148.15c-.49,0-1,.08-1.46.14a44.25,44.25,0,0,0-15.71,4.6,43.34,43.34,0,0,1,7.77-2.47c1.33-.28,2.64-.6,4-.76l2-.3,2-.17c.6-.05,1.19-.06,1.79-.09A2,2,0,0,1,376.51,148.15Z"/><path d="M328.7,92.57c-2.35.07-4.71.08-7.06.08-6,0-12.06-.33-18.08-.84,6,.78,12,1.22,18.07,1.42,2.4,0,4.81.08,7.22,0A2.09,2.09,0,0,1,328.7,92.57Z"/><path d="M427.79,95A106.82,106.82,0,0,0,411,88.2a104.68,104.68,0,0,0-36-4.4A57,57,0,0,0,366,84.94,90.66,90.66,0,0,0,357,86.77l-8.64,2.72a55.35,55.35,0,0,1-8.73,2.15c-.78.12-1.55.23-2.33.32a2,2,0,0,1,.53.8c.65-.07,1.29-.14,1.93-.23a50.24,50.24,0,0,0,8.88-2.06l8.65-2.67a88.37,88.37,0,0,1,8.83-1.75A57.32,57.32,0,0,1,375.06,85a113.94,113.94,0,0,1,18,.52,107.44,107.44,0,0,1,17.65,3.58,116.93,116.93,0,0,1,32.5,15.5A114.38,114.38,0,0,0,427.79,95Z"/><path d="M359.19,78.27c-1.76-.45-3.5-1-5.29-1.37a46.85,46.85,0,0,0-5.41-.86,52.8,52.8,0,0,0-5.48-.29,42.85,42.85,0,0,0-10.86,1.51,31.5,31.5,0,0,0-8,3.42,1.37,1.37,0,0,1,.15.21,31.64,31.64,0,0,1,3-1.23c.84-.32,1.68-.62,2.55-.86s1.73-.47,2.6-.67A52.27,52.27,0,0,1,343,76.93l2.69,0c.89,0,1.78.13,2.68.18,1.79.08,3.56.42,5.35.64s3.52.7,5.3,1,3.49.93,5.26,1.34C362.62,79.5,360.91,78.88,359.19,78.27Z"/><path d="M373.14,70.44a40.36,40.36,0,0,1,8.06.53c1.34.17,2.65.5,4,.74s2.62.64,3.94,1a105,105,0,0,1,15.18,5.6c1.22.58,2.45,1.15,3.65,1.75l3.58,1.89,1.79.94,1.75,1c1.16.68,2.32,1.37,3.47,2.07,2.28,1.43,4.51,3,6.76,4.43s4.34,3.19,6.47,4.82c-2.29-1.41-4.53-2.9-6.79-4.34s-4.58-2.8-6.9-4.13c-4.68-2.61-9.36-5.24-14.27-7.38a117.21,117.21,0,0,0-14.94-5.81c-1.29-.36-2.57-.75-3.86-1.1s-2.59-.66-3.91-.9A46.34,46.34,0,0,0,373.14,70.44Z"/><path d="M467.36,118.14l-1.65-.49a104,104,0,0,1-11-4.24,101.1,101.1,0,0,1-10.37-5.55c-1.69-1-3.32-2.07-4.94-3.19s-3.22-2.28-4.92-3.34a54.6,54.6,0,0,0-10.85-4.92,102.84,102.84,0,0,0-23.15-4.92c3.89.61,7.76,1.37,11.58,2.35a102.35,102.35,0,0,1,11.27,3.42,59.58,59.58,0,0,1,10.59,5c1.65,1,3.22,2.17,4.84,3.34s3.27,2.25,5,3.28a93.3,93.3,0,0,0,21.68,9.64c.61.18,1.23.33,1.85.49A2.28,2.28,0,0,1,467.36,118.14Z"/><rect class="cls-3" x="31.07" y="31.07" width="707.87" height="397.2"/></g></g></svg>