<svg xmlns="http://www.w3.org/2000/svg" xmlns:xlink="http://www.w3.org/1999/xlink" viewBox="0 0 770 638.15"><defs><style>.cls-1{fill:none;}.cls-2{fill:#b3b3b3;}.cls-3{clip-path:url(#clip-path);}.cls-4{fill:#999;}.cls-5{fill:#fff;}.cls-6{fill:#3fa9f5;}.cls-7{fill:#3183bf;}.cls-8{fill:#ccc;}.cls-9{fill:url(#radial-gradient);}.cls-10{fill:#ff7f18;}.cls-11{fill:url(#radial-gradient-2);}.cls-12{fill:#31c5f0;}.cls-13{fill:url(#linear-gradient);}.cls-14{fill:url(#linear-gradient-2);}.cls-15{fill:url(#linear-gradient-3);}.cls-16{fill:url(#linear-gradient-4);}.cls-17{fill:url(#linear-gradient-5);}.cls-18{fill:url(#linear-gradient-6);}.cls-19{fill:url(#linear-gradient-7);}</style><clipPath id="clip-path"><rect class="cls-1" x="284.03" y="522.58" width="193.05" height="17.38"/></clipPath><radialGradient id="radial-gradient" cx="-326.49" cy="-502.51" r="0.03" gradientTransform="matrix(4292.79, 0, 0, -4100.73, 1401664.43, -2060475.6)" gradientUnits="userSpaceOnUse"><stop offset="0" stop-color="#423325" stop-opacity="0.98"/><stop offset="1" stop-color="#1c0a00"/></radialGradient><radialGradient id="radial-gradient-2" cx="-326.34" cy="-502.52" r="0.03" gradientTransform="matrix(4630.73, 0, 0, -4423.55, 1511551.82, -2222750.03)" gradientUnits="userSpaceOnUse"><stop offset="0" stop-color="#34364e" stop-opacity="0.98"/><stop offset="1" stop-color="#0c0824"/></radialGradient><linearGradient id="linear-gradient" x1="609.24" y1="205.28" x2="726.74" y2="182.44" gradientTransform="translate(0 15.09)" gradientUnits="userSpaceOnUse"><stop offset="0" stop-color="#0f6067"/><stop offset="0.5" stop-color="#05abac"/><stop offset="1" stop-color="#58bec4"/></linearGradient><linearGradient id="linear-gradient-2" x1="691.61" y1="312.3" x2="708.22" y2="122.51" gradientTransform="translate(0 15.09)" gradientUnits="userSpaceOnUse"><stop offset="0" stop-color="#117c83"/><stop offset="0.5" stop-color="#21b5b5"/><stop offset="1" stop-color="#7ed4d4"/></linearGradient><linearGradient id="linear-gradient-3" x1="593.88" y1="125.71" x2="550.12" y2="260.39" gradientTransform="translate(0 15.09)" gradientUnits="userSpaceOnUse"><stop offset="0" stop-color="#9accd3"/><stop offset="0.5" stop-color="#72aeb3"/><stop offset="1" stop-color="#317d7f"/></linearGradient><linearGradient id="linear-gradient-4" x1="497.75" y1="279.75" x2="571.9" y2="255.66" gradientTransform="translate(0 15.09)" gradientUnits="userSpaceOnUse"><stop offset="0" stop-color="#21626e"/><stop offset="0.5" stop-color="#157c84"/><stop offset="1" stop-color="#03a3a5"/></linearGradient><linearGradient id="linear-gradient-5" x1="555.16" y1="173.56" x2="461.1" y2="261.27" gradientTransform="translate(0 15.09)" gradientUnits="userSpaceOnUse"><stop offset="0" stop-color="#0b7c81"/><stop offset="0.5" stop-color="#068d90"/><stop offset="1" stop-color="#16b1b1"/></linearGradient><linearGradient id="linear-gradient-6" x1="644.35" y1="280.6" x2="692.41" y2="241.68" gradientTransform="translate(0 15.09)" gradientUnits="userSpaceOnUse"><stop offset="0" stop-color="#0a8a8f"/><stop offset="0.5" stop-color="#0f7c82"/><stop offset="1" stop-color="#1a5964"/></linearGradient><linearGradient id="linear-gradient-7" x1="717.2" y1="232.6" x2="666.54" y2="200.94" gradientTransform="translate(0 15.09)" gradientUnits="userSpaceOnUse"><stop offset="0" stop-color="#256a77"/><stop offset="0.5" stop-color="#0d9499"/><stop offset="1" stop-color="#06a0a2"/></linearGradient></defs><title>mac_design2</title><g id="Layer_2" data-name="Layer 2"><g id="Design_Mac" data-name="Design Mac"><path class="cls-2" d="M497.61,627c-4.1-2.61-17.33-10.87-22.88-15.65s-7.07-8.6-7.9-17.41-7.68-75-7.68-75H310.85s-6.84,66.25-7.68,75-2.35,12.63-7.9,17.41-18.78,13-22.88,15.65-3.75,3.49-3.75,3.49v1.16c0,.36,0,.36.9,1.82s3.21,1.55,3.21,1.55h224.5s2.31-.09,3.21-1.55.9-1.46.9-1.82v-1.16S501.71,629.6,497.61,627Z"/><g class="cls-3"><path class="cls-4" d="M497.61,627c-4.1-2.61-17.33-10.87-22.88-15.65s-7.07-8.6-7.9-17.41-7.68-75-7.68-75H310.85s-6.84,66.25-7.68,75-2.35,12.63-7.9,17.41-18.78,13-22.88,15.65-3.75,3.49-3.75,3.49v1.16c0,.36,0,.36.9,1.82s3.21,1.55,3.21,1.55h224.5s2.31-.09,3.21-1.55.9-1.46.9-1.82v-1.16S501.71,629.6,497.61,627Z"/></g><rect width="770" height="528.13" rx="21.82" ry="21.82"/><path class="cls-2" d="M0,458H770a0,0,0,0,1,0,0V510a18.17,18.17,0,0,1-18.17,18.17H18.17A18.17,18.17,0,0,1,0,510V458A0,0,0,0,1,0,458Z"/><rect class="cls-5" x="31.07" y="31.07" width="707.87" height="397.2"/><path class="cls-4" d="M501.36,634.41v-3.93c-.14,3.33-9,3.84-9,3.84H277.65s-8.87-.51-9-3.84v3.93s-.69,3.74,9,3.74h214.7C502.05,638.15,501.36,634.41,501.36,634.41Z"/><path d="M400.52,512.22a3.31,3.31,0,0,0-.16-.75,9.78,9.78,0,0,0-.52-1.28c-.39-.82-.82-1.6-1.26-2.38s-.89-1.53-1.32-2.3-.81-1.51-1.18-2.28a.67.67,0,0,0,.25-.22,1,1,0,0,0,.08-.72,1,1,0,0,0-.07-.21l-.06-.19-.25-.77c-.17-.51-.33-1-.51-1.53s-.33-1-.46-1.51c-.07-.25-.13-.51-.18-.76l-.15-.78c-.09-.53-.19-1.06-.31-1.6-.05-.27-.12-.53-.19-.79l-.21-.78c-.29-1-.6-2.08-1-3.1a30.1,30.1,0,0,0-1.29-3,20.24,20.24,0,0,0-1.68-2.79,15.6,15.6,0,0,0-2.14-2.45,11.48,11.48,0,0,0-2.09-1.58,2.25,2.25,0,0,1,0-.58,4.31,4.31,0,0,1,.11-.49c.05-.16.11-.33.15-.5a3.75,3.75,0,0,0,.13-.58c.19,0,.37-.08.54-.1h.2a8.2,8.2,0,0,0,2.21-.39,1.63,1.63,0,0,1,.74-.13c-.41-.77-1.77-.87-2.72-.9h0l-1-.1a3.78,3.78,0,0,0-.31-1l-.14-.24a2,2,0,0,0-.16-.24l-.18-.21-.19-.2a7.23,7.23,0,0,0-1.79-1.21,7.65,7.65,0,0,0-4.22-.74c-.36.05-.71.12-1.07.2s-.69.21-1,.34a8.89,8.89,0,0,0-3.5,2.53,13.71,13.71,0,0,0-2.12,3.73,38.06,38.06,0,0,0-1.4,4,15.49,15.49,0,0,0-.64,4.24,12.18,12.18,0,0,0,.81,4.23,14.87,14.87,0,0,0,2.1,3.73,19.11,19.11,0,0,0,2.94,3.09,12.64,12.64,0,0,0,1.77,1.22,9.65,9.65,0,0,0,2,.86,12,12,0,0,0,2.11.43l.92.08,0,0-.48,1c-.17.34-.33.67-.51,1a1.83,1.83,0,0,1-.31.42,2.49,2.49,0,0,1-.4.34,2.59,2.59,0,0,1-1,.35,3.7,3.7,0,0,0-.54.11.9.9,0,0,0-.49.3,1,1,0,0,0-.26.51.57.57,0,0,0,.07.29,2.34,2.34,0,0,0-.26.43,1.11,1.11,0,0,0-.11.6,1.54,1.54,0,0,0,.19.57l.28.51-.08-.59a1,1,0,0,1,.23-1,2.24,2.24,0,0,1,.47-.27l.13-.1.1-.12c.05-.07.12-.13.18-.2a3.62,3.62,0,0,1,.42-.36,1.49,1.49,0,0,1,.49-.24,1.09,1.09,0,0,1,.26,0,1.47,1.47,0,0,0,.29-.05.35.35,0,0,0,.16-.08l.23.07.23.09.1.07.1.08a3.19,3.19,0,0,0,.42.3,2.94,2.94,0,0,0,.46.25,1.06,1.06,0,0,0,.25.09l.12,0a2.42,2.42,0,0,1-.33.31,2.89,2.89,0,0,1-.69.38,6.15,6.15,0,0,1-.76.25,7.92,7.92,0,0,0-.79.24,1.42,1.42,0,0,0-.69.49,3.35,3.35,0,0,0-.21.36.87.87,0,0,0-.1.42.69.69,0,0,0,.05.24s0,0,0,.08a5.29,5.29,0,0,0-.39.75,2.07,2.07,0,0,0-.1.43,1.37,1.37,0,0,0,0,.45,2,2,0,0,0,.38.79l.42.58-.18-.7a1.5,1.5,0,0,1,.2-1.46,1.47,1.47,0,0,1,.31-.23c.11-.07.24-.13.37-.22a1,1,0,0,0,.18-.17l.07-.09.05-.09a3.92,3.92,0,0,1,.25-.32,5.39,5.39,0,0,1,.59-.58,2.51,2.51,0,0,1,.7-.42l.09,0,.1,0,.21,0a2.75,2.75,0,0,0,.41-.11.72.72,0,0,0,.24-.14,2.14,2.14,0,0,1,.35.06,1.48,1.48,0,0,1,.36.1l.17.07.16.1a7.14,7.14,0,0,0,1.41.66,1.8,1.8,0,0,0,.39.08l.09,0,.09,0a.94.94,0,0,1,.15.06,1.92,1.92,0,0,1,.55.48,4.21,4.21,0,0,1,.43.61l.41.73-.19-.81a4.77,4.77,0,0,0-.28-.83,1.22,1.22,0,0,0-.25-.4l-.27-.31a3.37,3.37,0,0,0-.68-.57,3.42,3.42,0,0,0-.8-.37l-.22-.05-.21,0-.21,0-.19-.05a.94.94,0,0,1-.33-.17.4.4,0,0,1-.14-.28,1,1,0,0,1,.05-.37,3,3,0,0,1,.13-.39l.29-.79c.4-1.07.79-2.13,1.17-3.2a1.55,1.55,0,0,0,.08-.23,9.12,9.12,0,0,0,1.74-.65,8.13,8.13,0,0,0,.81-.47,9.86,9.86,0,0,1,2.18,1.22l.13.1.12.1.24.21.21.24.11.11.1.13c.27.34.51.7.75,1.07a23.12,23.12,0,0,1,1.23,2.31c.37.8.71,1.61,1.07,2.43s.73,1.63,1.16,2.42q.33.6.72,1.17a5.3,5.3,0,0,0,1,1.08,3,3,0,0,0,.35.23,1.21,1.21,0,0,0,.48.12.89.89,0,0,0,.54-.14h0l.13.09a3,3,0,0,0,.35.22,1.55,1.55,0,0,0,.46.13,1,1,0,0,0,.29,0l.16,0a1.19,1.19,0,0,0,.15-.09,1,1,0,0,0,.32-.48A1.6,1.6,0,0,0,400.52,512.22ZM384.67,502c-.2.51-.38,1-.58,1.53s-.39,1-.62,1.5a1.83,1.83,0,0,1-.18.34l-.11.16v0a2.47,2.47,0,0,0-.35-.37,2.14,2.14,0,0,0-.52-.32,1.52,1.52,0,0,0-.28-.09l-.13,0-.12,0a.72.72,0,0,1-.19-.14.34.34,0,0,1-.06-.2,1.52,1.52,0,0,1,.18-.5l.25-.53.84-1.8h.52a9.42,9.42,0,0,0,1.59-.16C384.82,501.61,384.74,501.82,384.67,502Zm-2.56-24.2a1.3,1.3,0,1,1-1.3-1.16A1.24,1.24,0,0,1,382.11,477.84Z"/><rect class="cls-6" x="31.07" y="31.07" width="707.87" height="397.2"/><path class="cls-7" d="M737.82,45.1H31.62a.55.55,0,0,1-.55-.55V36.6H738.93V44A1.1,1.1,0,0,1,737.82,45.1Z"/><path class="cls-8" d="M737.82,39.57H31.62a.55.55,0,0,1-.55-.55v-8H738.93v7.39A1.1,1.1,0,0,1,737.82,39.57Z"/><path class="cls-9" d="M65.72,140.78H251V318.55H65.72Z"/><path class="cls-10" d="M65.72,140.78H251V318.55H65.72ZM57.3,326.86H259.37V132.48H57.3Zm132.35-125.1c0-.67.26-1,1-1h13.22c.68,0,1,.25,1,1V267.3c0,.66-.17,1-1,1h-13c-.84,0-1.09-.42-1.09-1.08V201.76Zm-.92-18.86c0-5.32,3.79-8.47,8.59-8.47,5.13,0,8.58,3.4,8.58,8.47,0,5.48-3.62,8.47-8.75,8.47C192.26,191.37,188.73,188.38,188.73,182.9Zm-37.89,46.19c-2.36-9.22-7.91-29.33-10-39.05h-.17c-1.77,9.72-6.23,26.17-9.76,39.05Zm-23.41,13.45-6.65,24.93c-.17.66-.42.83-1.26.83H107.14c-.84,0-1-.25-.84-1.25l23.91-82.57a26.35,26.35,0,0,0,.84-6.9c0-.58.26-.83.68-.83h17.68c.59,0,.84.17,1,.83l26.77,89.64c.17.66,0,1.08-.67,1.08h-14c-.67,0-1.09-.17-1.26-.75l-6.9-25Z"/><path class="cls-11" d="M292.39,140.78H477.61V318.55H292.39Z"/><path class="cls-12" d="M292.39,140.78H477.61V318.55H292.39ZM284,326.86H486V132.48H284ZM420.19,212.22c-6.65,0-8.92,3.33-8.92,6.07,0,3,1.51,5.06,10.44,9.63,13.22,6.32,17.34,12.38,17.34,21.27,0,13.29-10.27,20.44-24.16,20.44-7.33,0-13.64-1.5-17.26-3.58-.59-.25-.67-.66-.67-1.33V252.51c0-.83.42-1.08,1-.66a31.58,31.58,0,0,0,16.92,4.9c6.65,0,9.43-2.74,9.43-6.48,0-3-1.94-5.65-10.44-10-12-5.65-16.92-11.38-16.92-20.93,0-10.72,8.5-19.61,23.23-19.61,7.24,0,12.3,1.08,15.07,2.33a1.82,1.82,0,0,1,.85,1.66v11.38c0,.67-.42,1.08-1.27.83-3.7-2.32-9.17-3.74-14.65-3.74Zm-72.4,9.89c1.93.17,3.45.17,6.82.17,9.85,0,19.11-3.41,19.11-16.62,0-10.55-6.65-15.87-17.85-15.87-3.37,0-6.57.17-8.08.25ZM332.8,178c0-.58,1.18-1,1.85-1,5.39-.25,13.39-.41,21.72-.41,23.33,0,32.42,12.62,32.42,28.74,0,21.1-15.49,30.15-34.52,30.15-3.2,0-4.29-.16-6.57-.16v31.9c0,.66-.25,1-1,1H333.81c-.67,0-1-.25-1-1V178Z"/><path class="cls-13" d="M653.05,138.21H715.2L632.13,289.56s-14-40.09-20-54.4"/><path class="cls-14" d="M668.38,325.36H715.2V138.21C715.17,236,673.49,325.36,668.38,325.36Z"/><path class="cls-15" d="M632.13,289.56H593.48L508.13,138.21c15.14-1.9,45.37-4.46,60.35-5.66Z"/><path class="cls-16" d="M557.63,229.8c-12.82,49.95-49.54,97-49.5,97,42.54,0,51.7-6.09,51.7-9.31V233.6C559.08,232.36,558.37,231.08,557.63,229.8Z"/><path class="cls-17" d="M508.13,138.21V326.79C531.4,288.86,545,264.05,557,228.68,527.39,177.1,508.13,138.21,508.13,138.21Z"/><polyline class="cls-18" points="665.16 317.95 668.38 325.36 668.38 227.09 665.16 232.4"/><path class="cls-19" d="M668.22,227.28v97.77l.12.31c3.34,0,46.83-105.79,46.83-187.15C715.17,138.21,688.63,192.81,668.22,227.28Z"/></g></g></svg>