<svg id="Layer_1" data-name="Layer 1" xmlns="http://www.w3.org/2000/svg" xmlns:xlink="http://www.w3.org/1999/xlink" viewBox="0 0 108.97 103.64"><defs><style>.cls-1{fill:url(#linear-gradient);}.cls-2{fill:url(#linear-gradient-2);}.cls-3{fill:url(#linear-gradient-3);}.cls-4{fill:url(#linear-gradient-4);}.cls-5{fill:url(#linear-gradient-5);}.cls-6{fill:url(#linear-gradient-6);}.cls-7{fill:url(#linear-gradient-7);}</style><linearGradient id="linear-gradient" x1="53.18" y1="31.73" x2="115.15" y2="19.68" gradientTransform="translate(0 15.09)" gradientUnits="userSpaceOnUse"><stop offset="0" stop-color="#0f6067"/><stop offset="0.5" stop-color="#05abac"/><stop offset="1" stop-color="#58bec4"/></linearGradient><linearGradient id="linear-gradient-2" x1="96.56" y1="88.85" x2="105.42" y2="-12.38" gradientTransform="translate(0 15.09)" gradientUnits="userSpaceOnUse"><stop offset="0" stop-color="#117c83"/><stop offset="0.5" stop-color="#21b5b5"/><stop offset="1" stop-color="#7ed4d4"/></linearGradient><linearGradient id="linear-gradient-3" x1="45.3" y1="-10.69" x2="21.94" y2="61.22" gradientTransform="translate(0 15.09)" gradientUnits="userSpaceOnUse"><stop offset="0" stop-color="#9accd3"/><stop offset="0.5" stop-color="#72aeb3"/><stop offset="1" stop-color="#317d7f"/></linearGradient><linearGradient id="linear-gradient-4" x1="-5.57" y1="71.4" x2="33.65" y2="58.66" gradientTransform="translate(0 15.09)" gradientUnits="userSpaceOnUse"><stop offset="0" stop-color="#21626e"/><stop offset="0.5" stop-color="#157c84"/><stop offset="1" stop-color="#03a3a5"/></linearGradient><linearGradient id="linear-gradient-5" x1="25.09" y1="14.84" x2="-25.09" y2="61.64" gradientTransform="translate(0 15.09)" gradientUnits="userSpaceOnUse"><stop offset="0" stop-color="#0b7c81"/><stop offset="0.5" stop-color="#068d90"/><stop offset="1" stop-color="#16b1b1"/></linearGradient><linearGradient id="linear-gradient-6" x1="71.51" y1="71.95" x2="97.15" y2="51.19" gradientTransform="translate(0 15.09)" gradientUnits="userSpaceOnUse"><stop offset="0" stop-color="#0a8a8f"/><stop offset="0.5" stop-color="#0f7c82"/><stop offset="1" stop-color="#1a5964"/></linearGradient><linearGradient id="linear-gradient-7" x1="110.33" y1="46.42" x2="83.06" y2="29.38" gradientTransform="translate(0 15.09)" gradientUnits="userSpaceOnUse"><stop offset="0" stop-color="#256a77"/><stop offset="0.5" stop-color="#0d9499"/><stop offset="1" stop-color="#06a0a2"/></linearGradient></defs><title>maya_svg</title><path class="cls-1" d="M76.26,3H109L65.26,83.77s-7.37-21.39-10.53-29"/><path class="cls-2" d="M84.33,102.87H109V3C109,55.2,87,102.87,84.33,102.87Z"/><path class="cls-3" d="M65.26,83.77H44.92L0,3C8,2,23.88.64,31.76,0Z"/><path class="cls-4" d="M26.05,51.89C19.3,78.54,0,103.66,0,103.64c22.39,0,27.21-3.25,27.21-5V53.92C26.81,53.26,26.44,52.57,26.05,51.89Z"/><path class="cls-5" d="M0,3V103.64C12.25,83.4,19.39,70.16,25.7,51.29,10.14,23.77,0,3,0,3Z"/><polyline class="cls-6" points="82.64 98.92 84.33 102.87 84.33 50.44 82.64 53.28"/><path class="cls-7" d="M84.25,50.55v52.16l.06.16C86.07,102.87,109,46.43,109,3,109,3,95,32.15,84.25,50.55Z"/></svg>