<svg xmlns="http://www.w3.org/2000/svg" xmlns:xlink="http://www.w3.org/1999/xlink" viewBox="0 0 361.14 295.88"><defs><style>.cls-1,.cls-11,.cls-26{fill:none;}.cls-2{fill:#754c24;}.cls-3{fill:#bca080;}.cls-4{fill:#55351c;}.cls-5{fill:#f73900;}.cls-6{fill:#1c1109;}.cls-7{fill:#fff;}.cls-8{fill:#a3a3a3;}.cls-9{fill:#0a0a0a;}.cls-10{fill:#1a1a1a;}.cls-11{stroke:#3d3d3d;}.cls-11,.cls-26,.cls-27{stroke-miterlimit:10;}.cls-12{fill:#c69c6d;}.cls-13{fill:#694d39;}.cls-14{fill:#3d3d3d;}.cls-15{clip-path:url(#clip-path);}.cls-16{fill:#f75a2c;}.cls-17{fill:#333;}.cls-18{fill:#452b17;}.cls-19{fill:#9c8369;}.cls-20{fill:#bd2c00;}.cls-21{fill:#523519;}.cls-22{opacity:0.25;}.cls-23{opacity:0.4;}.cls-24{opacity:0.3;}.cls-25{opacity:0.5;}.cls-26,.cls-27{stroke:#000;}.cls-27{fill:#ccc;stroke-width:0.75px;}</style><clipPath id="clip-path"><path class="cls-1" d="M297.18,189.65c5.66-3.16,7.16-6.5,7.16-6.5a18.18,18.18,0,0,1-4,12.5c-.06.17-.23.62-.44,1.27,2.37-3.11,5.08-6,7.55-9,1.25-1.5,2.47-3,3.68-4.55a39.9,39.9,0,0,1,1.48-4.3,11.92,11.92,0,0,1,1.67-2.91c1-3.41,2.19-6.72,3.05-10.22a80.43,80.43,0,0,1,3.61-11.87l.1-.21c.5-3.69.8-7.46,1-11.35a11,11,0,0,1,.25-1.7,8.88,8.88,0,0,1-.25-2.64c.28-5.27-2-10.66-2.33-16s-1.79-10.58-2.84-15.92a6.61,6.61,0,0,1-1.16-1.85c-2.92-6.87-5.29-14.11-7.86-21.12a8.64,8.64,0,0,1-.51-2.37,36.14,36.14,0,0,1-1.49-3.38,6.4,6.4,0,0,1-.38-1.71,55,55,0,0,1-1.1-15.53c-.37-5-.22-10.39,1.89-14.81a25.27,25.27,0,0,1,.42-7.26,8,8,0,0,1-1-5.42A2.59,2.59,0,0,1,305,31c-.06-1.74-1.19-3.26-1.88-4.8a3.44,3.44,0,0,1-.24-.75,1.31,1.31,0,0,0-.91.13c-.84.58-1.09.5-2.67-1.83s-6.33-5.34-6.33-5.34c1.41,1.59,1.66,6.25,1.66,6.25-2.16-4.5-15-11.5-15-11.5,2.67,2.5,1.75,8,1.75,8-3.5-5.16-11.83-6.5-11.83-6.5,2.83,3.42-.67,7-.67,7-6.25-7.58-26.33-8.33-23.25-7.25s2.67,5.17,2.67,5.17c-4.5-2.5-9.5-.33-9.5-.33,3.83,2.91,4.83,6.83-1,11.66s1.92,13.5,1.92,13.5c1.16,1.92-6.17,1.59-6.17,1.59,6.33,2.16,5.67,6,5.67,6-5.67-2.17-23-.34-23-.34s7.33,3.5,7.83,7.34-11.17,6-16.33,5-8.67.66-6.67,4.16S186.84,74,186.84,74c7.34,7.83,41.8,13.62,37,17.5-10.36,8.38-5.58,16.5-1.33,17.5s.75,4,2.13,7,4.25.5,5.12,4.37-8.25,7.75-8.25,7.75c9,.13,13.38,4.75,13.25,11s3.17,3.54,3.5,6.88S226,153.32,226,153.32c6,8.17,22.44,7,22.44,7,2.56,4.56-7.61,10.19-7.61,10.19,2,1.16,6.67.66,6.67.66.67,4.5-10,8.5-10,8.5,4.5,2.17,19.33-.16,19.33-.16-2.66,2.33-5,4-3.66,6.16s-2.67,6.34-2.67,6.34c8.5-.5,19-5.34,19-5.34,2.33,1.5-.17,7.17-.17,7.17C285,189,301,162.65,301,162.65,306,174.65,297.18,189.65,297.18,189.65Z"/></clipPath></defs><title>post_bird_svg</title><g id="Kleur"><path class="cls-2" d="M58.32,293.67s62-7,99.34-1.37,116.81,4.61,160.43-19.46c.61-.33,1.82-3.62.36-8.46s-2.19-4.08-5.44-2.91l-3.86,1.42-5.52,1.71-3.79.93-4.1.49a27.57,27.57,0,0,1-4,.12l-4.8-.11-10.49-.33-8.42.7-9.35,1.25-11.38,1.71-21.94,2.75a56.81,56.81,0,0,1-14.75-1.94,155.92,155.92,0,0,0-16.5-3.18l-19-.63-14.93-1.19-13.63-2.06L130,258.3l-15.31-1.56-9.47.34a33.78,33.78,0,0,1-8.81.44c-4.47-.44-17.16-2.88-17.16-2.88l-8.28-1.93-5.8-1.42-2.55-.61L60,250l-.7-.19V250l2.08,1.19,1.74,2.57,1.24,2.85,1,3.48s.61,2.73.74,3.92.38,3.43.43,4.21-7.18,24.82-7.18,24.82"/><path class="cls-3" d="M79.14,189.24,82,188.11l4.44,6.69s11.81,14.44,16.31,18.87,14.38,12.13,14.38,12.13,12.18,9.44,25.18,13.87a233.29,233.29,0,0,0,27.44,7.19s21.56,1.31,27.38.94,32.12-4.31,32.12-4.31,21.75-7.44,25.13-9.5l17.37-10.69,12.31-10.25,15.82-15.94,8.37-13.75L307.51,152l-44.17-43.17L191.68,104,90,149.65,73.84,180.49l5.3,8.75"/><path class="cls-4" d="M221.64,65.74l-86,23.62L97.51,128.61l39.6,14-.06.55L137,145l2,1,3.36.56h.08l.56.09,2.33-.25-2.18.37a4.37,4.37,0,0,1,.67.2c8.05-1.65,16.85-4.16,21.76-7.86,10.63-8,17.13-8,17.13-8s-4.25-2.75-8.25-1.62c0,0,6.37-3.13,18.87-4.13,0,0-4-2.62-7-2.12,0,0,9.25-4.13,16.88-5s4.5-5.13,3.87-5.63c0,0,6.38-7.37,26.63-4s43.12-8.87,43.12-8.87Z"/><path class="cls-4" d="M227.93,95.84a15.55,15.55,0,0,1-2.11,2.65,6,6,0,0,1,.3,3L228.51,99,228,95.8A.08.08,0,0,1,227.93,95.84Z"/><path class="cls-4" d="M299.18,19.65C295.09,14,277.51,5.32,274.09,4.82s-12.25-3-25.25-3.83S209,7.15,209,7.15l-20.08,8.42L159.51,33.4,142.43,45.9,122.18,66.4l-4.06,5.13.33-.21a1.21,1.21,0,0,1,.92-.17l1-.55a1.47,1.47,0,0,1,2,1.79,1.42,1.42,0,0,1-.92,1.81c-.61.2-1.31.51-2,.72l-.2.08-.54.17a7.07,7.07,0,0,1-1.45.82,1.51,1.51,0,0,1-.61.09l-.6.42a22.29,22.29,0,0,1-2,1.51,1.71,1.71,0,0,1-1.26.18l-2,2.55-5.66,8.5-6.84,10.91-9,17.5-14.52,38.4-.37,2.75L67,162.42l-18.59,6.94L23.82,179l-10,4.68L3,190.69a6.85,6.85,0,0,0-2.32,3c-1.09,2.27,4.47,1.93,4.47,1.93l2.56-.19a8.76,8.76,0,0,0,.62,2.34A5.33,5.33,0,0,0,11,199.09a15.93,15.93,0,0,0,2.1-.49s.8-.48.92,0a3.21,3.21,0,0,0,2.22,1.19c.82,0,5.59-.74,5.59-.74l7.25-1.9,4.14-1.35,3.27.27,4.77-.69,6.42-2.64,3.75-2.13L53,192.2l3.54,1.14-5,2s-3.87,2.13-4.31,4.29,4.44.9,5.75.59,6-1.77,6-1.77l7.29-3.05,14.09-6.72s1.43-.57,1-.52-1.16-.53-1.26-.61a5.16,5.16,0,0,1-.59-.57,3.48,3.48,0,0,1-.22-.28c-4.21.66-8.84-3.46-5.71-7.71,3.86-5.24,7.8-10.09,13-14.09s11-7.15,16.6-10.45c2.83-2.18,5.58-4.46,8.31-6.76a6,6,0,0,1,2.43-4.27q8.22-5.92,17-11.08c.27-.18.53-.37.8-.54a4.83,4.83,0,0,1,1.06-.54c1.1-.64,2.18-1.29,3.29-1.91,6.47-3.66,13-8.18,20.06-10.47a4.7,4.7,0,0,1,4.28.57c3.66-2.7,7.42-5.27,11.23-7.75,4.51-2.93,9.07-5.79,13.59-8.72,3.37-2.17,6.7-4.84,10.53-6.1A4.67,4.67,0,0,1,201,98.39c2.08-1.14,4.2-2.21,6.24-3.27,4.85-2.52,9.51-5.29,14.63-7.22a4.63,4.63,0,0,1,5,1.16l-1-5.82,72-43.59,7.5-8.58A50.21,50.21,0,0,0,299.18,19.65Z"/><path class="cls-5" d="M297.18,189.65c5.66-3.16,7.16-6.5,7.16-6.5a18.18,18.18,0,0,1-4,12.5c-.06.17-.23.62-.44,1.27,2.37-3.11,5.08-6,7.55-9,1.25-1.5,2.47-3,3.68-4.55a39.9,39.9,0,0,1,1.48-4.3,11.92,11.92,0,0,1,1.67-2.91c1-3.41,2.19-6.72,3.05-10.22a80.43,80.43,0,0,1,3.61-11.87l.1-.21c.5-3.69.8-7.46,1-11.35a11,11,0,0,1,.25-1.7,8.88,8.88,0,0,1-.25-2.64c.28-5.27-2-10.66-2.33-16s-1.79-10.58-2.84-15.92a6.61,6.61,0,0,1-1.16-1.85c-2.92-6.87-5.29-14.11-7.86-21.12a8.64,8.64,0,0,1-.51-2.37,36.14,36.14,0,0,1-1.49-3.38,6.4,6.4,0,0,1-.38-1.71,55,55,0,0,1-1.1-15.53c-.37-5-.22-10.39,1.89-14.81a25.27,25.27,0,0,1,.42-7.26,8,8,0,0,1-1-5.42A2.59,2.59,0,0,1,305,31c-.06-1.74-1.19-3.26-1.88-4.8a3.44,3.44,0,0,1-.24-.75,1.31,1.31,0,0,0-.91.13c-.84.58-1.09.5-2.67-1.83s-6.33-5.34-6.33-5.34c1.41,1.59,1.66,6.25,1.66,6.25-2.16-4.5-15-11.5-15-11.5,2.67,2.5,1.75,8,1.75,8-3.5-5.16-11.83-6.5-11.83-6.5,2.83,3.42-.67,7-.67,7-6.25-7.58-26.33-8.33-23.25-7.25s2.67,5.17,2.67,5.17c-4.5-2.5-9.5-.33-9.5-.33,3.83,2.91,4.83,6.83-1,11.66s1.92,13.5,1.92,13.5c1.16,1.92-6.17,1.59-6.17,1.59,6.33,2.16,5.67,6,5.67,6-5.67-2.17-23-.34-23-.34s7.33,3.5,7.83,7.34-11.17,6-16.33,5-8.67.66-6.67,4.16S186.84,74,186.84,74c7.34,7.83,41.8,13.62,37,17.5-10.36,8.38-5.58,16.5-1.33,17.5s.75,4,2.13,7,4.25.5,5.12,4.37-8.25,7.75-8.25,7.75c9,.13,13.38,4.75,13.25,11s3.17,3.54,3.5,6.88S226,153.32,226,153.32c6,8.17,22.44,7,22.44,7,2.56,4.56-7.61,10.19-7.61,10.19,2,1.16,6.67.66,6.67.66.67,4.5-10,8.5-10,8.5,4.5,2.17,19.33-.16,19.33-.16-2.66,2.33-5,4-3.66,6.16s-2.67,6.34-2.67,6.34c8.5-.5,19-5.34,19-5.34,2.33,1.5-.17,7.17-.17,7.17C285,189,301,162.65,301,162.65,306,174.65,297.18,189.65,297.18,189.65Z"/><path class="cls-6" d="M102.55,92.8a25.52,25.52,0,0,1,.79-4.56,30.82,30.82,0,0,1,1.88-4.11l3.87-4.91,3.48-3.65s11.13-9.11,25.82-9.52a161.36,161.36,0,0,1,28.47,2l6,1.19,23,7.08L216.72,84l15.58,7.75,22,12.16,20,13.21s19.25,15.19,20.13,16.5,7.18,9.63,7.18,9.63,8.19,15.93,8.38,16.43.87,3.75,2,7.38,1.12,10.56,1.12,10.56l3.13-6.69,3.56-11.62s2.19-22.69,1.44-27.69-4.81-25.19-4.81-25.19L315,102.17s7.81.5,9.06,1.57,3.07,1.75,4.38,6.37,3.87,26.38,3.87,26.38.82,15.68-1.68,26.56-5.94,20.69-10.13,27a170,170,0,0,1-11.25,14.37s-7.5,9.07-9.83,10.44-3.59,3-4.67,1.75-2.87-3.37-5.08-3-7.5,1.67-7.5,1.67l4-4.29,11-11,6.42-7.59a21.3,21.3,0,0,0,2.79-4.66c.54-1.75,1.12-8.71-.25-15a37.66,37.66,0,0,0-3.42-9.84s-6.71-17-17.71-26.16-23.66-18.5-23.66-18.5L223,95.82,207.68,88.9,177.09,78.15l-22.66-5.33-14.57-.93-15.57,1.53L113.7,77.77,109,83.61l-6.49,9.19"/><polygon class="cls-7" points="288.07 61.36 294.97 59.11 304.1 56.22 313.36 55.42 321.67 53.71 321.82 52.99 319.07 51.42 331.26 47.8 334.45 49.11 360.14 64.11 318.64 85.8 303.7 73.92 288.07 61.36"/><polygon class="cls-8" points="307.01 80.96 309.79 81.14 311.17 83.52 313.04 83.74 317.54 94.11 319.98 102.42 315.01 102.17 307.01 80.96"/><path class="cls-9" d="M292.87,59.59l-8-.75a10.62,10.62,0,0,1-2.17-.61,26.63,26.63,0,0,0-2.6-1.06s-.94-.68-1.38-1a4,4,0,0,1-.76-.79,1.18,1.18,0,0,1-.23-.88,1.62,1.62,0,0,1,.13-.47,2.46,2.46,0,0,1,.63-.68,4.87,4.87,0,0,1,1-.48s1.51-.1,2.07-.16,1.26-.1,1.26-.1a45,45,0,0,0,6.54-.75,23,23,0,0,0,2.39-.8s1.85-1.14,2.44-1.64A9.27,9.27,0,0,0,295.52,48s3.8-3.75,6.14-4.4a6.46,6.46,0,0,1,4.14.21l3,1.58,7.92,4.67s4.81,3.12,5.08,3.1-3.43,1.3-3.43,1.3-7.52,1.47-9.54,1.47-5.82.48-5.82.48L295.57,59Z"/><path class="cls-9" d="M147.22,241l4.46,7.87,5,8.5s1.81,2.17.81,4.07-1.56,3.08-1.56,3.08l6.85,1.17s2.69-.34,4.27.85,5.25,4.79,5.5,5.79a46.84,46.84,0,0,1,1.28,6,28.56,28.56,0,0,1-.84,5,6.06,6.06,0,0,0,1.75-2.16c.88-1.61,1.73-2.92,1.75-4.11a20.5,20.5,0,0,0-1-5.79c-.52-1-1.94-3.52-1.94-3.52l3.92,2.37s4.94,2.92,6.17,4.32,3.48,4.64,3.62,5.6a13.44,13.44,0,0,0,.44,1.92c0-.07.48-4.4-.31-6.13a24.91,24.91,0,0,0-2.52-3.94l-6.5-5.43-2.5-1.79-6.71-4.32-4.46-.62a5.86,5.86,0,0,1-1.77-1.44c-.54-.79-4.38-7.83-4.38-7.83l-3-6.5Z"/><path class="cls-9" d="M213.32,246.67s3.88,4.69,4.44,5.75,5.88,9.1,5.88,9.1,2.47,3.84,2.68,4.28a2.07,2.07,0,0,1,0,2.5,31.63,31.63,0,0,1-3.87,3.66l7.66-.29a4.27,4.27,0,0,1,.62,2.29c.13,1.68.48,5.53.48,5.53s.43,2,.79,3.17.87,2.69.87,2.69l1-2.57.14-3.09v-5l-.27-2.66,1.67.25a38.55,38.55,0,0,1,5.94,2.8c1.34,1,4.58,4.67,5.11,6a34.39,34.39,0,0,0,1.55,3.22l-.07-4.43-2.09-5.2-3-3.14,2.29,1s4.63,2.15,6,3.62,4.16,4.28,4.16,4.28-.69-1.8-1.06-3-3.49-4.4-3.49-4.4l-4.65-3.41s-4.19-1.64-6.35-1.73a17,17,0,0,1-5-.6,12.65,12.65,0,0,1-3.87-3.22c-.38-.72-7.16-10.84-7.16-10.84l-5.19-8.13Z"/><circle class="cls-10" cx="254.84" cy="36.82" r="12.33"/><ellipse class="cls-10" cx="254.84" cy="36.82" rx="9.63" ry="9.53"/><path class="cls-4" d="M141.14,113.74l-35.13,10L74,165l-15.5,13.87,11.94,11.56H77.2L80.34,189l.63-.34c-.19-3.14-1.44-5.57,4-8.68,12.75-7.25,18.75-13.13,23.13-19.13s23.37-18.87,40.37-20.5Z"/><ellipse class="cls-11" cx="254.84" cy="36.82" rx="9.63" ry="9.53"/><ellipse class="cls-12" cx="58.26" cy="271.61" rx="8.38" ry="21.75"/><path class="cls-7" d="M262.72,34.38a4.2,4.2,0,0,0-.84-1.89,8.64,8.64,0,0,0-5-3.75,3.86,3.86,0,0,0-1.07-.07,2.2,2.2,0,0,0-2.06,2.19,2.24,2.24,0,0,0,.49,1.39,3,3,0,0,0,1.36.82,5.15,5.15,0,0,1,2.62,1.86,5.31,5.31,0,0,0,.71,1.25,2.19,2.19,0,0,0,3.78-1.53,1.37,1.37,0,0,0,0-.19A.24.24,0,0,0,262.72,34.38Z"/></g><g id="Highlight"><path class="cls-13" d="M258.26,1.8s21.44,4.12,31.5,18.06,10.13,10.69,10.13,10.69l4.31-1.75s-5.13-11.5-11.75-14.94-15.13-8.37-15.13-8.37L259,1.05Z"/><path class="cls-14" d="M319.76,53s-7-4.17-8.83-5.25-6.46-3.54-8.59-3.17-3,1.09-3.54,2.09,1.92,2.7,4.54,1.29S313.72,50,319.76,53Z"/><g class="cls-15"><path class="cls-16" d="M253.18,1s9.33.25,14.75,2.08,15.75,4.17,18.33,6.5,12.83,9.58,12.83,9.58,4.61,8,5.61,12.15S306.57,41,306.57,41l-.25,3.68a4.73,4.73,0,0,0-3.68-1.12,13.52,13.52,0,0,0-4.57,1.87S302.68,10,253.18,1Z"/></g><path class="cls-16" d="M295.34,67s-3.66,18.66,7.5,35,9.17,34.33,8,58.66c0,0,2.11,12.09,2,16.21s3-3.54,4.52-8.87,4-22.5,4-22.5-.33-24.34-4-34.5-8.16-22.17-8.16-22.17L304,74.32,295.34,67"/><path class="cls-17" d="M324.07,103.74s15.77,56.58-9.23,94.41c0,0,8.5-9.75,11.34-18.08a202.7,202.7,0,0,0,5.25-20.25s1.66-25.58.33-33-4.5-19.83-4.5-19.83a16,16,0,0,0-2.08-2.84A6.69,6.69,0,0,0,324.07,103.74Z"/></g><g id="Detail"><path class="cls-18" d="M90.68,129.82a19.94,19.94,0,0,1,4.18-4,33.35,33.35,0,0,1,5-3,41.85,41.85,0,0,1,5.39-2.17c.91-.32,1.86-.55,2.79-.83s1.82-.53,2.72-.85c7.16-2.65,13.48-7.2,19.26-12.18a113.16,113.16,0,0,0,8.33-7.91c1.33-1.39,2.62-2.8,3.87-4.26l1.89-2.18c.66-.71,1.3-1.43,2-2.13a71.1,71.1,0,0,1,8.62-7.73,39.58,39.58,0,0,1,4.9-3.09A15.88,15.88,0,0,1,165,77.65a16.74,16.74,0,0,0-5.32,2.09A38.46,38.46,0,0,0,155,83a70.72,70.72,0,0,0-8.36,7.87c-2.58,2.82-5,5.87-7.63,8.66s-5.43,5.51-8.34,8a85,85,0,0,1-9.28,7A47.6,47.6,0,0,1,111,119.72c-.93.3-1.87.54-2.81.8s-1.85.45-2.76.75a42.8,42.8,0,0,0-5.37,2A27.47,27.47,0,0,0,90.68,129.82Z"/><path class="cls-18" d="M141.89,72a40.28,40.28,0,0,0-5,5.82c-2.31,4.15-5.87,7.29-9.56,10.19-1.87,1.43-3.8,2.78-5.78,4.07s-4,2.55-6,3.7a87.42,87.42,0,0,0,12.08-7.4A49.61,49.61,0,0,0,133,83.81c.4-.44.84-.84,1.23-1.3l1.14-1.37,1-1.48,1-1.46a38.55,38.55,0,0,1,5.09-6A2.21,2.21,0,0,1,141.89,72Z"/><path class="cls-18" d="M150.09,65.86a2.73,2.73,0,0,1,.51.14c.85-.51,1.73-1,2.62-1.43a29.83,29.83,0,0,1,6.62-2.42A31.06,31.06,0,0,0,150.09,65.86Z"/><path class="cls-18" d="M166.68,40.49a15.52,15.52,0,0,1,6.71-1.64,12,12,0,0,1,6.67,1.93c1.91,1.31,3.73,2.72,5.65,4a11.54,11.54,0,0,0,3.06,1.48,9.76,9.76,0,0,0,3.41.26,10.11,10.11,0,0,1-3.47,0,11.68,11.68,0,0,1-3.2-1.39c-2-1.2-3.82-2.62-5.73-3.88a11.71,11.71,0,0,0-3.05-1.45,13.44,13.44,0,0,0-3.34-.51A17,17,0,0,0,166.68,40.49Z"/><path class="cls-18" d="M161.51,108.65c1.6-.86,3.16-1.79,4.7-2.75s3.07-2,4.55-3a52.32,52.32,0,0,0,8.3-7c1.2-1.33,2.34-2.78,3.63-4.08a29.54,29.54,0,0,1,4.21-3.52A20.33,20.33,0,0,1,197,84.49,16.33,16.33,0,0,0,191.8,86a25.67,25.67,0,0,0-4.68,2.71A32.78,32.78,0,0,0,183,92.18c-1.26,1.29-2.35,2.72-3.58,4.1a50.1,50.1,0,0,1-8.45,6.94A79.37,79.37,0,0,1,161.51,108.65Z"/><path class="cls-19" d="M137.84,187.32a29.27,29.27,0,0,0,10.83-3.8,25.71,25.71,0,0,0,4.63-3.41,32.33,32.33,0,0,0,3.88-4.29c-.54.8-1.05,1.64-1.66,2.39a22.45,22.45,0,0,1-2,2.17,23.25,23.25,0,0,1-4.63,3.57,24.54,24.54,0,0,1-5.35,2.36A21.16,21.16,0,0,1,137.84,187.32Z"/><path class="cls-19" d="M217,207.32a7.34,7.34,0,0,0,1.13-1.81c.34-.63.66-1.27,1-1.89a23.37,23.37,0,0,1,2.51-3.51,18.84,18.84,0,0,1,7-5,80.32,80.32,0,0,1,8.16-2.7,13.67,13.67,0,0,0,3.84-1.76,13.23,13.23,0,0,0,3-3,13,13,0,0,1-2.84,3.22A13.24,13.24,0,0,1,237,192.8c-1.36.48-2.74.85-4.09,1.31s-2.68.94-4,1.5a18.91,18.91,0,0,0-6.93,4.76,23,23,0,0,0-2.58,3.38c-.39.59-.75,1.21-1.12,1.82A7.49,7.49,0,0,1,217,207.32Z"/><path class="cls-20" d="M275,67.49a54.12,54.12,0,0,1-3.37,6.56,58.8,58.8,0,0,1-4.2,6.09,41.1,41.1,0,0,1-5.14,5.33A23.79,23.79,0,0,1,256,89.32a28.13,28.13,0,0,0,6-4.14,45.18,45.18,0,0,0,5-5.35,64.73,64.73,0,0,0,4.26-6c.67-1,1.31-2.08,1.92-3.14S274.46,68.58,275,67.49Z"/><path class="cls-20" d="M196.68,74c3.43-.46,6.85-1,10.24-1.62s6.79-1.31,10.12-2.21A69.78,69.78,0,0,0,226.85,67a34.22,34.22,0,0,0,4.62-2.29,17.76,17.76,0,0,0,4-3.19c-2.16,2.75-5.31,4.52-8.44,6a63.73,63.73,0,0,1-9.86,3.38q-5.06,1.27-10.2,2.06C203.58,73.41,200.14,73.82,196.68,74Z"/><path class="cls-20" d="M221.68,81.65q2.69-1.14,5.27-2.48c1.73-.9,3.43-1.83,5.06-2.87a46.1,46.1,0,0,0,4.73-3.37,31.84,31.84,0,0,0,4.1-4.11,23.34,23.34,0,0,1-3.85,4.4,39.09,39.09,0,0,1-4.71,3.5,51.36,51.36,0,0,1-5.16,2.79A42.94,42.94,0,0,1,221.68,81.65Z"/><path class="cls-20" d="M231.84,90.15c1.68-2.24,3.45-4.41,5.28-6.53s3.73-4.17,5.69-6.17A79.18,79.18,0,0,1,249,71.77a34.28,34.28,0,0,1,7-4.62l-1.8,1.08-1.7,1.21c-1.12.84-2.22,1.69-3.26,2.62-2.11,1.82-4.14,3.74-6.09,5.74s-3.88,4-5.76,6.07S233.66,88,231.84,90.15Z"/><path class="cls-20" d="M261.18,185c3-2.69,5.87-5.5,8.68-8.37s5.52-5.84,8-9a68.17,68.17,0,0,0,6.89-9.84,34,34,0,0,0,2.52-5.44,16.46,16.46,0,0,0,1-5.89,16.39,16.39,0,0,1-.8,6,33.26,33.26,0,0,1-2.41,5.55,48.89,48.89,0,0,1-3.2,5.14c-1.15,1.65-2.37,3.26-3.64,4.82-2.57,3.12-5.3,6.08-8.16,8.92S264.29,182.44,261.18,185Z"/><path class="cls-20" d="M243.84,136.82a26.62,26.62,0,0,0,3.08-.61c1-.23,2-.51,3-.84a27.06,27.06,0,0,0,5.67-2.56,16.53,16.53,0,0,0,4.66-4,13.78,13.78,0,0,0,2.57-5.63,12.38,12.38,0,0,1-2.26,5.86,16.27,16.27,0,0,1-4.71,4.23,25.53,25.53,0,0,1-5.82,2.49A28,28,0,0,1,243.84,136.82Z"/><path class="cls-20" d="M298.55,71.65c.08,1.84.22,3.67.4,5.5s.4,3.64.75,5.44A33.78,33.78,0,0,0,303.05,93,21,21,0,0,1,300.58,88a37.94,37.94,0,0,1-1.37-5.36,53.86,53.86,0,0,1-.64-5.5A46.38,46.38,0,0,1,298.55,71.65Z"/><path class="cls-20" d="M260.68,173.32c1.34-.93,2.63-1.93,3.86-3a39.92,39.92,0,0,0,3.53-3.35,29,29,0,0,0,3-3.8,21.24,21.24,0,0,0,2.11-4.37,16.14,16.14,0,0,1-1.78,4.57,25.42,25.42,0,0,1-3,3.94,34.51,34.51,0,0,1-3.64,3.31A29.28,29.28,0,0,1,260.68,173.32Z"/><path class="cls-20" d="M285.89,19.74a21.27,21.27,0,0,1,3.45,2.84,23.28,23.28,0,0,1,2.84,3.49,17.66,17.66,0,0,1,1.89,4.09,12.22,12.22,0,0,1,.44,4.45,15.85,15.85,0,0,0-.8-4.34,20,20,0,0,0-1.95-3.93,27.44,27.44,0,0,0-2.7-3.5A35.71,35.71,0,0,0,285.89,19.74Z"/><path class="cls-20" d="M270,26.32a15.55,15.55,0,0,1,7.88,6.85,14.58,14.58,0,0,1,1.69,5,16.7,16.7,0,0,1,.18,2.65c0,.88-.16,1.76-.25,2.63,0-.89.06-1.76,0-2.63a17.28,17.28,0,0,0-.31-2.59,15.07,15.07,0,0,0-1.75-4.86,15.66,15.66,0,0,0-3.18-4.07A18.89,18.89,0,0,0,270,26.32Z"/><path class="cls-20" d="M228.18,62.15a15.1,15.1,0,0,1,6.49-4.53,29.35,29.35,0,0,1,7.77-1.9c1.32-.21,2.66-.19,4-.28s2.67,0,4,.06,2.65.21,4,.36l3.93.63-4-.38c-1.32-.1-2.65-.15-4-.23s-2.64,0-4,0-2.65.11-3.95.32A31.12,31.12,0,0,0,234.81,58a20.06,20.06,0,0,0-3.56,1.7A11.32,11.32,0,0,0,228.18,62.15Z"/><path class="cls-19" d="M284.51,204.74a97.56,97.56,0,0,1-15.64,14.33c-1.44,1-2.85,2.12-4.33,3.09l-4.47,2.89-4.6,2.67c-.76.47-1.55.87-2.34,1.27l-2.37,1.21-2.39,1.19-2.44,1.05c-1.64.68-3.25,1.44-4.91,2.06a105.63,105.63,0,0,1-10.11,3.31l-2.57.7a24.88,24.88,0,0,1-2.58.63l-5.22,1a48.76,48.76,0,0,1-5.25.74l-5.28.58a132.78,132.78,0,0,0,20.68-4.42c3.41-.93,6.69-2.22,10-3.42,1.64-.63,3.23-1.39,4.85-2.08L248,230.5l2.35-1.2,2.36-1.18c.8-.38,1.58-.78,2.34-1.23l4.59-2.61,4.46-2.84c1.47-1,2.9-2,4.36-3s2.83-2.1,4.24-3.15,2.75-2.22,4.11-3.34A99.58,99.58,0,0,0,284.51,204.74Z"/><path class="cls-19" d="M251,219.24c-7.28,3.45-14.79,6.43-22.38,9.15s-15.34,5-23.17,7a158.11,158.11,0,0,1-23.87,4.07c-8,.66-16.25.53-24.08-1.48a64.44,64.44,0,0,0,12,1.25,92.9,92.9,0,0,0,12-.53,170.41,170.41,0,0,0,23.7-4.28c7.82-1.88,15.52-4.22,23.16-6.77q5.72-1.91,11.38-4T251,219.24Z"/><path class="cls-19" d="M204.76,201c-2.27.6-4.49,1.35-6.7,2.16s-4.38,1.68-6.53,2.62-4.26,1.94-6.36,3S181,211,179,212.09a82.06,82.06,0,0,1-12.84,5.85,37,37,0,0,1-6.87,1.67,21.92,21.92,0,0,1-3.53.17,15.67,15.67,0,0,1-3.48-.54,16.39,16.39,0,0,0,3.48.42,22.85,22.85,0,0,0,3.5-.29,36.91,36.91,0,0,0,6.77-1.79,85.45,85.45,0,0,0,12.72-5.93,121.58,121.58,0,0,1,12.65-6.23A85.61,85.61,0,0,1,204.76,201Z"/><path class="cls-19" d="M178,176.49a20.31,20.31,0,0,1,6.92-6.9,14.22,14.22,0,0,1,4.64-1.73,20,20,0,0,1,5,0,37.58,37.58,0,0,0,9.71-.35,23.49,23.49,0,0,0,9-3.53,20.83,20.83,0,0,1-4.24,2.46,25,25,0,0,1-4.72,1.44,36.33,36.33,0,0,1-9.82.48,19.08,19.08,0,0,0-4.83-.06,14.69,14.69,0,0,0-4.53,1.61,18.61,18.61,0,0,0-3.91,2.88A22.08,22.08,0,0,0,178,176.49Z"/><path class="cls-19" d="M174.76,142a22.28,22.28,0,0,1,6.13-6.26A12.1,12.1,0,0,1,185,134c1.49-.29,2.92-.31,4.37-.5a65.83,65.83,0,0,0,8.62-1.38,27.43,27.43,0,0,0,4.16-1.29,10.46,10.46,0,0,0,3.66-2.3,10.42,10.42,0,0,1-3.57,2.53,26.19,26.19,0,0,1-4.16,1.43,59.29,59.29,0,0,1-8.65,1.5c-1.45.17-2.95.2-4.34.45a12.82,12.82,0,0,0-3.95,1.66,20.37,20.37,0,0,0-3.41,2.67A24.45,24.45,0,0,0,174.76,142Z"/><path class="cls-19" d="M91.76,192.49a62.76,62.76,0,0,0,6.2,3.22c1.05.49,2.12.93,3.19,1.4l3.25,1.25A77.2,77.2,0,0,0,117.83,202c2.27.48,4.59.67,6.89.95l3.48.16c.58,0,1.16.07,1.74.06l1.74,0c1.16,0,2.32,0,3.48-.11l3.46-.37c.58-.06,1.17-.08,1.74-.19l1.71-.31,3.44-.63a60.85,60.85,0,0,1-13.82,2.15l-1.75.09c-.59,0-1.17,0-1.76,0l-3.51-.13c-2.32-.26-4.66-.43-7-.89a73.35,73.35,0,0,1-13.5-3.79A65.29,65.29,0,0,1,91.76,192.49Z"/><path class="cls-19" d="M111.51,169a37.94,37.94,0,0,1,10.37-9.26,22.09,22.09,0,0,1,13.47-3.28c4.63.38,9.25.75,13.88,1,2.31.11,4.63.16,6.94.07a23.68,23.68,0,0,0,6.84-1,24.71,24.71,0,0,1-6.82,1.34c-2.33.15-4.66.16-7,.12-4.65-.1-9.28-.47-13.91-.8a21.7,21.7,0,0,0-13.15,3,36.82,36.82,0,0,0-5.67,3.94A40.65,40.65,0,0,0,111.51,169Z"/><path class="cls-19" d="M292.26,182a69.64,69.64,0,0,1-6.63,7.93,80.37,80.37,0,0,1-7.68,7,60.38,60.38,0,0,1-8.71,5.61,41.91,41.91,0,0,1-9.73,3.5,43.16,43.16,0,0,0,4.88-1.67,44,44,0,0,0,4.67-2.17,64.3,64.3,0,0,0,8.58-5.67,86.1,86.1,0,0,0,7.71-6.83q1.83-1.82,3.56-3.73T292.26,182Z"/><path class="cls-19" d="M222.51,168a5.39,5.39,0,0,1-1.82,3.46,16.46,16.46,0,0,1-3.23,2.35,30.92,30.92,0,0,1-3.64,1.6c-.63.2-1.25.43-1.89.6s-1.28.34-1.92.49c1.23-.5,2.46-.93,3.67-1.45a38.18,38.18,0,0,0,3.54-1.68,17.94,17.94,0,0,0,3.2-2.19,8,8,0,0,0,1.31-1.42A4,4,0,0,0,222.51,168Z"/><path class="cls-19" d="M196.76,144.49c1.19.06,2.39.07,3.58.06s2.38,0,3.57-.06a70.27,70.27,0,0,0,7.1-.57,44.89,44.89,0,0,0,7-1.38,27,27,0,0,0,6.52-2.8,22.7,22.7,0,0,1-6.41,3.17,41.23,41.23,0,0,1-7,1.51,62,62,0,0,1-14.32.07Z"/><path class="cls-19" d="M104,184a47.49,47.49,0,0,0,13.44,1.21,56.52,56.52,0,0,0,13.31-2.12c1.1-.26,2.14-.69,3.22-1l1.6-.53c.53-.19,1-.44,1.56-.65l3.11-1.33,3-1.57,1.5-.78c.5-.27,1-.6,1.44-.89l2.86-1.81a12.24,12.24,0,0,0,1.39-1l1.36-1,2.72-2-2.64,2.12-1.33,1.07a12.28,12.28,0,0,1-1.36,1l-2.83,1.88c-.48.3-.94.64-1.43.92l-1.49.82-3,1.62-3.12,1.36c-.52.22-1,.47-1.56.66l-1.62.55c-1.08.35-2.13.79-3.23,1.06l-3.31.83c-1.11.22-2.23.39-3.35.6s-2.26.26-3.38.4-2.27.15-3.4.19a51.27,51.27,0,0,1-6.79-.27A40.67,40.67,0,0,1,104,184Z"/><path class="cls-18" d="M192.84,20.15A108.07,108.07,0,0,1,212.73,11,113.61,113.61,0,0,1,234,5.86,95.46,95.46,0,0,1,245,5a83.7,83.7,0,0,1,11,.4,78.83,78.83,0,0,1,21.25,5.12,82.23,82.23,0,0,0-10.52-3c-1.76-.44-3.57-.67-5.36-1s-3.61-.51-5.42-.61a95.43,95.43,0,0,0-21.76.64,118.29,118.29,0,0,0-21.22,5q-5.19,1.71-10.21,3.87A94.88,94.88,0,0,0,192.84,20.15Z"/><path class="cls-18" d="M190.51,31.49a29.06,29.06,0,0,1,8.71-3.06,28,28,0,0,1,9.27-.15A27.23,27.23,0,0,1,213,29.43a23.73,23.73,0,0,1,4.18,2A25.88,25.88,0,0,1,221,34.18a14.86,14.86,0,0,1,1.65,1.62l1.58,1.69-1.71-1.56a13.73,13.73,0,0,0-1.74-1.48,25.54,25.54,0,0,0-3.8-2.52,28.67,28.67,0,0,0-4.14-1.9A27.77,27.77,0,0,0,208.38,29a28.74,28.74,0,0,0-9.07,0,33.91,33.91,0,0,0-4.47,1A29.41,29.41,0,0,0,190.51,31.49Z"/><path class="cls-19" d="M97.68,203a35.35,35.35,0,0,1,9.09,6.45c1.37,1.27,2.56,2.75,3.78,4.12a12.59,12.59,0,0,0,4.46,3.12,28.55,28.55,0,0,0,10.78,2.19,36.78,36.78,0,0,0,5.55-.26,16.32,16.32,0,0,0,5.34-1.46,16.19,16.19,0,0,1-5.31,1.7,38.73,38.73,0,0,1-5.59.41,28.32,28.32,0,0,1-11-2.13,12.88,12.88,0,0,1-4.6-3.27c-.66-.68-1.18-1.43-1.81-2.11s-1.25-1.37-1.9-2a39.24,39.24,0,0,0-4.17-3.67A31.09,31.09,0,0,0,97.68,203Z"/><path class="cls-18" d="M126.65,72.8q-2,1.92-3.86,3.91c-1.82,1.91-3.59,3.87-5.32,5.86s-3.38,4.05-5,6.17c3.33-4.09,6.92-7.95,10.61-11.71q2-2.06,4.11-4A3,3,0,0,1,126.65,72.8Z"/><path class="cls-18" d="M146.65,56c-4.31,3-8.43,6.36-12.42,9.81l-.65.58a2.68,2.68,0,0,1,.75.13l.29-.26c2-1.76,4-3.4,6-5.09s4.13-3.26,6.26-4.8c1.07-.77,2.11-1.57,3.19-2.32l3.27-2.23c1.07-.77,2.18-1.47,3.29-2.17L160,47.49A145.3,145.3,0,0,0,146.65,56Z"/><path class="cls-18" d="M171.26,55.49a20.39,20.39,0,0,1,7.33-1,15.94,15.94,0,0,1,3.68.63,13.05,13.05,0,0,1,3.37,1.66,14.23,14.23,0,0,0,3.2,1.7,14.94,14.94,0,0,0,7.19.62A9.72,9.72,0,0,0,199.51,58a12.24,12.24,0,0,1-7.15,1.62,13.24,13.24,0,0,1-3.68-.7,14.44,14.44,0,0,1-3.33-1.73,12.67,12.67,0,0,0-3.22-1.63,17.87,17.87,0,0,0-3.57-.68,23.3,23.3,0,0,0-7.3.62Z"/><path class="cls-18" d="M198.51,38A17,17,0,0,1,205,36.41a12.29,12.29,0,0,1,6.55,1.46c.49.28.94.64,1.41,1l1.31,1c.87.69,1.78,1.32,2.69,1.95a19.94,19.94,0,0,0,2.87,1.65,8,8,0,0,0,3.19.79,8.1,8.1,0,0,1-3.29-.57,18.73,18.73,0,0,1-3-1.55c-1-.58-1.86-1.24-2.76-1.9l-1.33-1c-.45-.3-.88-.63-1.36-.89A12.24,12.24,0,0,0,205,36.79a16.51,16.51,0,0,0-3.28.33A17.93,17.93,0,0,0,198.51,38Z"/><path class="cls-18" d="M220,15a13.34,13.34,0,0,1,5,.32,12.25,12.25,0,0,1,4.57,2.23c1.35,1.1,2.3,2.51,3.5,3.65A14.49,14.49,0,0,0,235,22.8a4.24,4.24,0,0,0,2.26.94,4.08,4.08,0,0,1-2.39-.73,13.81,13.81,0,0,1-2-1.54c-1.29-1.12-2.26-2.54-3.55-3.54a12.41,12.41,0,0,0-4.36-2.25A16.32,16.32,0,0,0,220,15Z"/><path class="cls-18" d="M73.34,164.15a81.83,81.83,0,0,0,7.7-5.34,64.43,64.43,0,0,0,7-6.17,31.09,31.09,0,0,0,5.52-7.42,21.47,21.47,0,0,0,.87-2.12l.44-1.13c.17-.37.39-.72.58-1.07a15.72,15.72,0,0,1,3.21-3.54,42.39,42.39,0,0,1,8-5,94.06,94.06,0,0,1,8.6-3.81c2.92-1.14,5.87-2.19,8.82-3.22l4.44-1.51c.74-.26,1.48-.52,2.21-.8a9.21,9.21,0,0,0,2.09-1,9.26,9.26,0,0,1-2.06,1.1c-.72.31-1.45.6-2.18.88l-4.38,1.68c-2.93,1.09-5.86,2.19-8.74,3.39s-5.75,2.44-8.51,3.87a42.54,42.54,0,0,0-7.84,5,14.93,14.93,0,0,0-3.1,3.35c-.17.33-.39.65-.54,1l-.42,1.06a23.7,23.7,0,0,1-.92,2.2A30.26,30.26,0,0,1,88.44,153,73.06,73.06,0,0,1,73.34,164.15Z"/><path class="cls-20" d="M304.84,88.82A151.37,151.37,0,0,1,311,106.16a157.08,157.08,0,0,1,4.16,17.94,100.31,100.31,0,0,1,1.41,18.39,48.18,48.18,0,0,1-3.57,18,45,45,0,0,0,2.16-8.9,59,59,0,0,0,.64-9.11,107,107,0,0,0-1.62-18.21,174.31,174.31,0,0,0-3.92-17.91q-1.17-4.42-2.54-8.81C306.84,94.61,305.87,91.71,304.84,88.82Z"/><path class="cls-20" d="M286.51,75.65a48.07,48.07,0,0,0-1.07,5.7,42.66,42.66,0,0,0-.4,5.76,35.15,35.15,0,0,0,.53,5.71,20.47,20.47,0,0,0,1.92,5.35c1.85,3.4,3.7,6.82,5.22,10.41s2.79,7.34,2.8,11.24a33.11,33.11,0,0,0-3.3-11c-1.6-3.5-3.44-6.91-5.33-10.28A20.92,20.92,0,0,1,285,92.94a29.36,29.36,0,0,1-.44-5.84A40.78,40.78,0,0,1,286.51,75.65Z"/><path class="cls-21" d="M74.18,259.65a86.49,86.49,0,0,0,9.56,1.92c3.21.5,6.45.86,9.69,1.07s6.49.23,9.74.12,6.46-.51,9.71-.81a84.17,84.17,0,0,1,9.79-.15,81.14,81.14,0,0,1,9.72,1.06,88.75,88.75,0,0,1,9.52,2.21c3.12.93,6.2,2,9.27,3.08a127.46,127.46,0,0,0-18.84-5,78.93,78.93,0,0,0-9.69-1,87.81,87.81,0,0,0-9.73.24c-3.22.27-6.48.64-9.74.73s-6.52,0-9.77-.21A93.39,93.39,0,0,1,74.18,259.65Z"/><path class="cls-21" d="M265.34,285.49c3.49-.5,7-1.11,10.4-1.75s6.89-1.35,10.3-2.18,6.81-1.72,10.15-2.78A84,84,0,0,0,306,275a65.37,65.37,0,0,1-9.7,4.15c-3.33,1.15-6.74,2.05-10.15,2.9s-6.88,1.49-10.35,2.07S268.85,285.17,265.34,285.49Z"/><path class="cls-21" d="M130.51,284.82a28.37,28.37,0,0,1,10.37-2.61,35.28,35.28,0,0,1,10.68,1.06c3.48.91,6.79,2.27,10.2,3.35a101.14,101.14,0,0,0,10.3,2.91,55.55,55.55,0,0,0,10.58,1.38,59.61,59.61,0,0,0,10.66-.81,196.33,196.33,0,0,1,21.38-2c-3.57.2-7.14.53-10.69.92s-7.11.83-10.64,1.36a60,60,0,0,1-10.71.9A56.3,56.3,0,0,1,172,290a104.43,104.43,0,0,1-10.33-3c-3.4-1.11-6.72-2.5-10.16-3.43a35.26,35.26,0,0,0-10.58-1.14A28.37,28.37,0,0,0,130.51,284.82Z"/><path class="cls-18" d="M54.18,182.49c4.56-5.51,10.88-9.32,17.44-12.05,3.33-1.36,6.73-2.34,10-3.73A73.94,73.94,0,0,0,91.07,162a48.12,48.12,0,0,0,8.47-6.25,36.2,36.2,0,0,0,3.56-3.87,46.16,46.16,0,0,1,3.29-4.22,52.44,52.44,0,0,1,8.16-7c1.47-1,3-2,4.51-2.85a31.2,31.2,0,0,1,4.78-2.36,53.4,53.4,0,0,0-9,5.61,51.8,51.8,0,0,0-7.86,7.06c-1.17,1.33-2.1,2.76-3.19,4.24a36,36,0,0,1-3.61,4,49,49,0,0,1-8.59,6.45,74,74,0,0,1-9.64,4.7c-3.3,1.36-6.74,2.38-10,3.6a55,55,0,0,0-9.49,4.68A38,38,0,0,0,54.18,182.49Z"/><path class="cls-18" d="M209.34,99.82a15.84,15.84,0,0,1-2.31,4,21.09,21.09,0,0,1-3.22,3.39,24.94,24.94,0,0,1-8.21,4.46,42.93,42.93,0,0,1-9.19,1.68c-3.06.4-6.11.89-9.13,1.52a180.09,180.09,0,0,0-18,4.49c-2.95.9-5.89,1.85-8.77,3a46,46,0,0,0-8.36,4,41.88,41.88,0,0,1,8.18-4.41c2.85-1.22,5.78-2.26,8.72-3.25a159.53,159.53,0,0,1,18-4.74c3-.6,6.12-1.07,9.21-1.44,1.55-.16,3.09-.33,4.6-.54a19.32,19.32,0,0,0,2.25-.41l1.12-.24,1.1-.32a24.47,24.47,0,0,0,8.13-4.11A19.73,19.73,0,0,0,209.34,99.82Z"/><path class="cls-18" d="M7.43,192.32a1.79,1.79,0,0,1,.15-1.87A6.52,6.52,0,0,1,8.86,189a17.83,17.83,0,0,1,3.24-2.21c2.29-1.27,4.71-2.2,7.08-3.26,4.75-2.06,9.54-4,14.32-6.06s9.59-3.93,14.41-5.84l7.24-2.85c2.43-.92,4.84-1.87,7.28-2.75-2.35,1.09-4.73,2.13-7.09,3.2l-7.13,3.1c-4.75,2.06-9.54,4-14.32,6.06s-9.59,3.94-14.41,5.85c-2.4,1-4.86,1.83-7.16,3a18.3,18.3,0,0,0-3.29,2,6.35,6.35,0,0,0-1.32,1.37A1.7,1.7,0,0,0,7.43,192.32Z"/><path class="cls-18" d="M129,92.74a32.76,32.76,0,0,1-8.12,4.41,56.45,56.45,0,0,1-8.91,2.6,24,24,0,0,0-8.5,3.24,11.54,11.54,0,0,0-3.24,3.18,15,15,0,0,0-1.85,4.19A15.13,15.13,0,0,1,100,106a11.58,11.58,0,0,1,3.22-3.36,16.63,16.63,0,0,1,4.15-2.13,33.08,33.08,0,0,1,4.47-1.29,60.42,60.42,0,0,0,8.87-2.47A42.75,42.75,0,0,0,125,95,26.4,26.4,0,0,0,129,92.74Z"/><path class="cls-18" d="M51.51,197.57c-.14.28-.24.67,0,.9a1.3,1.3,0,0,0,.91.2,8.35,8.35,0,0,0,1.91-.41,34.8,34.8,0,0,0,3.68-1.4c2.42-1,4.84-2.09,7.22-3.21s4.76-2.25,7.09-3.48c1.17-.6,2.32-1.24,3.44-1.93a11.7,11.7,0,0,0,3.08-2.42,11.78,11.78,0,0,1-3,2.63c-1.1.73-2.23,1.41-3.38,2.06-2.31,1.3-4.68,2.46-7.07,3.59s-4.82,2.15-7.28,3.11a34,34,0,0,1-3.76,1.28,8.25,8.25,0,0,1-2,.3,1.37,1.37,0,0,1-1-.28A.8.8,0,0,1,51.51,197.57Z"/><path class="cls-18" d="M67.93,185.32a31.62,31.62,0,0,1,6.91-4.21,27.3,27.3,0,0,1,3.81-1.43,28.75,28.75,0,0,0,3.78-1.35,41.59,41.59,0,0,0,7-3.91c1.12-.74,2.2-1.54,3.24-2.38a24.88,24.88,0,0,0,3-2.72,31.31,31.31,0,0,1-6,5.42,39.32,39.32,0,0,1-7,4,29.7,29.7,0,0,1-3.85,1.33A34.1,34.1,0,0,0,75,181.46a36.49,36.49,0,0,0-3.62,1.74A30.24,30.24,0,0,0,67.93,185.32Z"/><path class="cls-19" d="M206.34,220.65c2.84-.63,5.65-1.4,8.43-2.22s5.54-1.76,8.22-2.85a53.15,53.15,0,0,0,7.81-3.8,27.24,27.24,0,0,0,3.54-2.5,16.48,16.48,0,0,0,3-3.13,20.52,20.52,0,0,1-6.34,6,49.74,49.74,0,0,1-7.82,3.93,81.46,81.46,0,0,1-8.3,2.75A77.8,77.8,0,0,1,206.34,220.65Z"/><path class="cls-19" d="M135.68,194.49a49.37,49.37,0,0,0,8.32.81,44.27,44.27,0,0,0,8.3-.56,32.29,32.29,0,0,0,7.94-2.37c2.55-1.14,5.13-2.24,7.76-3.2a38.94,38.94,0,0,1,8.17-2.11,17.27,17.27,0,0,1,4.25-.08,11.79,11.79,0,0,1,4.11,1.15,14.17,14.17,0,0,0,3.91,1.25,24.82,24.82,0,0,0,4.14.25,38.4,38.4,0,0,0,8.26-1.14,38.28,38.28,0,0,1-8.25,1.48,24.86,24.86,0,0,1-4.22-.15,14.79,14.79,0,0,1-4.07-1.2,14.45,14.45,0,0,0-8.05-.93,38.83,38.83,0,0,0-8,2.13c-2.62.93-5.19,2-7.74,3.13a30.71,30.71,0,0,1-8.11,2.32A46.47,46.47,0,0,1,135.68,194.49Z"/><path class="cls-19" d="M204,171.65q2.63-.85,5.18-1.87a47.85,47.85,0,0,0,5-2.27,24.23,24.23,0,0,0,4.58-3,8.67,8.67,0,0,0,3.07-4.4,8,8,0,0,1-2.82,4.69,22.06,22.06,0,0,1-4.6,3.12,41.45,41.45,0,0,1-5.09,2.18A40.82,40.82,0,0,1,204,171.65Z"/><path class="cls-19" d="M133.26,226.49a61.1,61.1,0,0,0,6.81,1.45c1.15.19,2.3.34,3.45.5s2.31.25,3.46.34a78.57,78.57,0,0,0,13.89-.07c2.32-.13,4.6-.56,6.9-.88,2.26-.51,4.55-.89,6.76-1.6,1.11-.33,2.24-.6,3.34-1l3.26-1.21c.54-.2,1.1-.37,1.63-.61l1.58-.73,3.17-1.45a66.24,66.24,0,0,1-12.87,5.36,68.66,68.66,0,0,1-6.79,1.68c-2.31.34-4.6.78-6.93.93a74.94,74.94,0,0,1-14-.05A67,67,0,0,1,133.26,226.49Z"/><path class="cls-20" d="M279.18,183.49c1.79-1.76,3.54-3.57,5.25-5.4s3.4-3.69,5-5.64a54.54,54.54,0,0,0,4.43-6,22.63,22.63,0,0,0,1.75-3.3,10.46,10.46,0,0,0,.93-3.61,14.59,14.59,0,0,1-2.35,7.11,49.45,49.45,0,0,1-4.37,6.17c-1.62,1.93-3.31,3.8-5.08,5.59S281.1,181.86,279.18,183.49Z"/><path class="cls-20" d="M236.84,153.49c3.5-.48,7-1.06,10.43-1.78a96,96,0,0,0,10.2-2.63,42.81,42.81,0,0,0,9.6-4.21,17.3,17.3,0,0,0,4-3.28,9.82,9.82,0,0,0,2.4-4.6,9.58,9.58,0,0,1-2.14,4.82,17.74,17.74,0,0,1-4,3.52,40.8,40.8,0,0,1-9.67,4.41,83.82,83.82,0,0,1-10.32,2.5A88.94,88.94,0,0,1,236.84,153.49Z"/><path class="cls-20" d="M277,88.49a15.88,15.88,0,0,0-1.2,4.36,16.16,16.16,0,0,0,0,4.5,14.27,14.27,0,0,0,1.25,4.3,39.11,39.11,0,0,0,2.31,3.9,65.61,65.61,0,0,1,4.28,8.08c1.16,2.79,2.23,5.79,1.9,8.86a12.6,12.6,0,0,0-.63-4.48,31,31,0,0,0-1.62-4.23,73.26,73.26,0,0,0-4.36-8,39.46,39.46,0,0,1-2.29-4,13.78,13.78,0,0,1-1.22-4.44A16.18,16.18,0,0,1,277,88.49Z"/><path class="cls-20" d="M304.34,110.15a57.52,57.52,0,0,1,2.85,9.34,81.2,81.2,0,0,1,1.53,9.66,84,84,0,0,1,.32,9.78c0,1.63-.16,3.25-.27,4.88s-.4,3.23-.59,4.84c.27-3.24.49-6.48.48-9.73a92.73,92.73,0,0,0-.44-9.72,89.74,89.74,0,0,0-1.41-9.63A71.72,71.72,0,0,0,304.34,110.15Z"/></g><g id="Schaduw"><path class="cls-22" d="M136,136.49l-6.27,1.87c-5.5,1.75.39,7.92.39,7.92-2,5,10,4.29,10,4.29,4.75,9,18.88.33,18.88.33,3,5.75,11.12-.29,11.12-.29,3.25,4.25,11.09-1.12,11.09-1.12s-3.69.34-4.57.4a25.28,25.28,0,0,1-4.18-.81l-1.25-1-3.72,1.5a15.53,15.53,0,0,1-3.69.38,6.57,6.57,0,0,1-3.19-1.28l-.72-1-4,2a9,9,0,0,1-3.35,1.09c-1.31,0-4-.47-5-1.31a10.55,10.55,0,0,1-1.94-3l-3.81.22s-4.53-.6-4.56-1.85a18.49,18.49,0,0,1,.06-2.12L136,141.49s-1.47-2.16-1.34-3.22A2.88,2.88,0,0,1,136,136.49Z"/><g class="cls-22"><path d="M102.54,178.72l5.22-3.65-5.62,2.79h0l-.21.11-19.84,9.85.13.19-.21.1s.64.84,1.71,2.2l.71,1.09.09-.06c4.59,5.87,14.27,18.14,18.82,22.81,6.09,6.25,14.67,13,30.67,22.09s38.67,10.66,51.42,11.66c8.27.65,22.45-1.19,31.41-2.56C141.77,255.2,106.6,187.18,102.54,178.72Z"/><path d="M216.84,245.34q4-.53,8.17-1.35S221.69,244.6,216.84,245.34Z"/></g><path class="cls-22" d="M74.22,158.9s8.79-25.54,14-38.16,14.75-28,14.75-28-23.94,52.81-17.19,56.81h0L83,152.49s-3.65,3.25-4.72,3.93-4.07,2.48-4.07,2.48"/><path class="cls-23" d="M307.2,183.05a22.9,22.9,0,0,0-.14-3.12c0-.71-.08-1.43-.17-2.19-.18-1.45-.44-2.93-.76-4.4-.36-2.17-.68-3.79-.68-3.79l-1-2.38a95.44,95.44,0,0,0-4.65-11.87l-10.37-14.75L278,130.24l-19.44-14.5-24.12-14.07L202.26,86.61,180.64,79l-25.5-6.5-16.69-.75-16.69,2.12L110.55,80l-4.71,5.25-2.54,5.54-.58,1.92,2-1.83s11.47-36.76,94.13-2.76c80.85,33.25,94.27,61.72,100,71.69.7,1.72,10.46,27-7.16,45.4l11.83-12.72c-.07.11-.13.23-.21.34a7.17,7.17,0,0,0,.81-1l.19-.21.21-.38a16.33,16.33,0,0,0,1.87-4.37A14.69,14.69,0,0,0,307.2,183.05Z"/><path class="cls-24" d="M234.05,274.4s8-2.45,13.38,9.46c0,0-2.54-7-5.75-8.71a49.15,49.15,0,0,0-7.21-3l-.92-.12Z"/><path class="cls-24" d="M254.17,279.55a20.67,20.67,0,0,0-9.25-5.69l-2.06-2.28S251,274.67,254.17,279.55Z"/><path class="cls-24" d="M157.51,264.9s18.54,6.63,14.79,19.67c0,0,2-4.21,1.75-7.54s-4.08-8.25-4.08-8.25l-4.42-3.38Z"/><path class="cls-24" d="M175.26,271s2.1-.22,5,2,6.81,6.41,7.31,9.16c0,0-1.59-5.06-2.59-6.31a37,37,0,0,0-4.75-3.91l-6.63-4.08Z"/><path class="cls-25" d="M151.68,248.9a13.59,13.59,0,0,0,6.71,1.21l-3.13-6.5-8.17-2.08Z"/><path class="cls-25" d="M213.18,246.32l4.75,7s4,.67,5.16-1.21l-4-6.78Z"/><polyline class="cls-24" points="289.89 59.4 283.64 61.57 315.68 104.65 304.01 74.32 288.07 61.36 292.87 59.59"/><path class="cls-24" d="M230.39,272.18l0-.61-.35.06,0,0c-1.21-.83-5.42.21-5.42.21l-.11.31a21,21,0,0,1-4.93-.39c-4.42-1-12.92-2.75-12.92-2.75l-14.91-2.17-13.42-.42,5.75,4.75a44.35,44.35,0,0,1,19.83,1.34c8.83,2.89,23.13,2.55,26.17,2.44a3.91,3.91,0,0,1,.71,2S231.05,273.64,230.39,272.18Z"/><path class="cls-24" d="M314.89,103.11l14.62,14.63s-1.25-8.13-2.62-10.75-5-4.63-5-4.63l-7.25-.62Z"/><path class="cls-23" d="M294.68,202s5.91-2.33,7.91-4.38,6.71-8,6.71-8l3.46-10.29s.25,24-12.08,34.5c0,0-3.17,4.17-5.25,2.83s-2.25-3.91-5.75-3.08-8,1.67-8,1.67l9-9Z"/><polyline class="cls-22" points="52.7 192.24 72.51 180.3 51.47 190.57 52.7 192.24"/><path class="cls-22" d="M14.06,198.56s-.2,1.21,1.89,1.15a18,18,0,0,0,3.44-.41,97.23,97.23,0,0,1,9.15-6.25c4.28-2.47,14.47-8.31,14.47-8.31l-17.37,8.72-10,4.43Z"/><path class="cls-22" d="M37.76,196.07s0-.54,2-1.79,7.92-5.79,7.92-5.79l-14,6.83S34.18,196.24,37.76,196.07Z"/><path class="cls-22" d="M7.89,195.11s-.21,1.88.33,2.46a4.12,4.12,0,0,0,1.25.88s-1.13-1.38,5.46-4,18.79-9.09,18.79-9.09-16.33,7.42-19.38,8.25S7.89,195.11,7.89,195.11Z"/><path class="cls-24" d="M300.22,57.65s17.87.17,21.25-4.25c0,0-7.21,2.3-9.63,2.3s-7.45.41-7.45.41L291.59,56l-3.54-.09S297.34,57.49,300.22,57.65Z"/></g><g id="Outline"><path d="M283.08,55.56c3.13.15,6.26.22,9.39.23s6.26,0,9.39-.11,6.24-.36,9.34-.6A86,86,0,0,0,320.5,54l0,.1a41.75,41.75,0,0,1-9.23,2,82.63,82.63,0,0,1-9.43.4c-6.28,0-12.55-.27-18.8-.82Z"/><path class="cls-18" d="M186.51,148a36.77,36.77,0,0,1-7.76,1.95,16.54,16.54,0,0,1-4,.05,5.52,5.52,0,0,1-3.69-1.82l.4.07a18.43,18.43,0,0,1-3,1.45,12.58,12.58,0,0,1-3.22.81,6.48,6.48,0,0,1-3.38-.42,5.57,5.57,0,0,1-2.48-2.39l.66.13a18.22,18.22,0,0,1-3.65,2.27,11.79,11.79,0,0,1-4.2,1.13,7,7,0,0,1-4.25-1.18,9.52,9.52,0,0,1-2.87-3.32l.5.26a23.85,23.85,0,0,1-2.8.13,15.81,15.81,0,0,1-2.82-.25,5.15,5.15,0,0,1-2.72-1.24,2.39,2.39,0,0,1-.68-1.51,3.71,3.71,0,0,1,.29-1.54l.12.51a9.05,9.05,0,0,1-2.6-3.69,2.66,2.66,0,0,1,.33-2.43l.44-.47c.15-.13.33-.22.5-.34a5.35,5.35,0,0,1,1.06-.49c2.77-.87,5.53-1.62,8.28-2.47s5.49-1.71,8.2-2.67A41.81,41.81,0,0,0,161,127a38.68,38.68,0,0,1-7.71,3.88c-2.67,1.09-5.4,2-8.14,2.93s-5.5,1.74-8.19,2.66a3.55,3.55,0,0,0-1.59,1,1.8,1.8,0,0,0-.18,1.67,8.27,8.27,0,0,0,2.36,3.25l.24.22-.11.3a1.79,1.79,0,0,0,.21,2.06,4.37,4.37,0,0,0,2.23.95,19.73,19.73,0,0,0,5.32.07l.32,0,.18.29a8.57,8.57,0,0,0,2.53,3,6,6,0,0,0,3.67,1,10.79,10.79,0,0,0,3.86-1,16.75,16.75,0,0,0,3.47-2.11l.41-.33.26.46a4.75,4.75,0,0,0,2.06,2,5.79,5.79,0,0,0,3,.43,15.38,15.38,0,0,0,5.93-2l.25-.13.15.2a5,5,0,0,0,3.28,1.69,15.65,15.65,0,0,0,3.93.09A39.41,39.41,0,0,0,186.51,148Z"/><path d="M110,173.86c-7.52,4-15.1,8-22.7,11.87-3.79,2-7.63,3.84-11.45,5.73s-7.66,3.79-11.6,5.48a74,74,0,0,1-12.21,4.11,13.15,13.15,0,0,1-3.3.37,2.29,2.29,0,0,1-1.72-.83,1.48,1.48,0,0,1-.27-1.07,2.42,2.42,0,0,1,.35-.92,8.82,8.82,0,0,1,2.49-2.25,30.43,30.43,0,0,1,2.83-1.59c3.88-1.86,7.84-3.43,11.62-5.39a88.29,88.29,0,0,0,10.84-6.76,80.37,80.37,0,0,1-10.61,7.19c-3.76,2.06-7.72,3.72-11.5,5.65a27.15,27.15,0,0,0-2.71,1.6,8,8,0,0,0-2.22,2,.87.87,0,0,0-.12,1,1.27,1.27,0,0,0,.46.33,1.57,1.57,0,0,0,.63.13,12.5,12.5,0,0,0,3-.37,74.13,74.13,0,0,0,12-4.14c7.8-3.37,15.41-7.29,23.1-11S102.31,177.55,110,173.86Z"/><path d="M89.39,144.61a34.13,34.13,0,0,1-6.35,8,46.21,46.21,0,0,1-8.17,6.21,56.37,56.37,0,0,1-9.27,4.44L56,166.86c-6.37,2.44-12.74,4.89-19.07,7.44s-12.65,5.14-18.85,7.95c-1.54.71-3.11,1.41-4.58,2.21s-2.95,1.69-4.39,2.57-2.88,1.82-4.25,2.8a16.68,16.68,0,0,0-3.66,3.3c-.46.62-.41,1.24.19,1.6a4.34,4.34,0,0,0,2.22.51,21.63,21.63,0,0,0,5-.6,76.77,76.77,0,0,0,9.7-3.06c6.35-2.44,12.59-5.23,18.76-8.14s12.28-6,18.22-9.33A275.36,275.36,0,0,1,18.55,192.3a68.93,68.93,0,0,1-9.78,3.18,22.34,22.34,0,0,1-5.18.65l-.67,0L2.24,196a2.89,2.89,0,0,1-.68-.19,2.2,2.2,0,0,1-.67-.33A1.84,1.84,0,0,1,0,194.13a2.2,2.2,0,0,1,.43-1.49,17.1,17.1,0,0,1,3.88-3.56c1.4-1,2.84-2,4.29-2.86s2.92-1.78,4.43-2.62,3.08-1.54,4.63-2.26c6.25-2.8,12.59-5.36,18.93-7.88s12.72-5,19.15-7.32,13-4.24,18.88-7.72a46.08,46.08,0,0,0,8.24-6A33.6,33.6,0,0,0,89.39,144.61Z"/><path d="M45.84,183.24c-2.18.95-4.34,1.92-6.5,2.9-4.3,2-8.54,4.12-12.77,6.25s-8.36,4.49-12.84,5.79a8.86,8.86,0,0,1-3.37.35,2.69,2.69,0,0,1-1.45-.63,3.59,3.59,0,0,1-.54-.62c-.08-.12-.16-.24-.23-.36a3.45,3.45,0,0,1-.14-.34,3.37,3.37,0,0,1-.06-1.31l-.41,0a3.61,3.61,0,0,0,0,1.39,4.68,4.68,0,0,0,.18.48c.07.14.15.26.23.39a4.23,4.23,0,0,0,.6.74,3.21,3.21,0,0,0,1.72.84,9.35,9.35,0,0,0,3.66-.23,37.35,37.35,0,0,0,6.73-2.47c2.18-1,4.28-2.1,6.39-3.17,4.19-2.2,8.42-4.32,12.65-6.44s8.48-4.2,12.75-6.27C50.21,181.41,48,182.33,45.84,183.24Z"/><path d="M48.56,187.77c-.89.48-1.76,1-2.65,1.45l-2.69,1.39a112.36,112.36,0,0,1-11,4.9c-1.87.74-3.77,1.37-5.69,2s-3.87,1-5.84,1.38c-1,.17-2,.33-3,.42a6.76,6.76,0,0,1-2.85-.08,1.11,1.11,0,0,1-.63-.81l-.23,0h-.16a1.58,1.58,0,0,0,.79,1.24,3.65,3.65,0,0,0,1.6.31c.51,0,1,0,1.53,0,1,0,2-.16,3-.29a56.75,56.75,0,0,0,11.76-3.16,94.23,94.23,0,0,0,11-5.15,110,110,0,0,0,10.26-6.47C52.06,185.78,50.36,186.85,48.56,187.77Z"/><path d="M72.05,180.08C70,181,68,181.84,66,182.74c-4,1.83-8,3.81-11.92,5.82s-7.68,4.4-11.78,5.87a18.79,18.79,0,0,1-6.34,1.35,10.36,10.36,0,0,1-1.84-.13,3.78,3.78,0,0,1-.43.26,10.86,10.86,0,0,0,2.26.36,19,19,0,0,0,6.6-1.12,39.11,39.11,0,0,0,6.13-2.65l5.87-3.05c3.89-2.08,7.83-4,11.78-6s7.94-3.85,11.87-5.87Z"/><path d="M57.17,193a9.75,9.75,0,0,1-5.31-2.4,4,4,0,0,1-.75.43,8.68,8.68,0,0,0,2.7,2,10.6,10.6,0,0,0,2.2.76A3.94,3.94,0,0,1,57.17,193Z"/><path d="M157.27,257.25l-1.56-2.74c-2.16-3.6-4.33-7.19-6.57-10.73L148,242a5.08,5.08,0,0,1-1.07-.53l1.56,2.71L154.85,255l1.59,2.7c.27.46.52.91.75,1.36a1.82,1.82,0,0,1,.18,1.25,11.1,11.1,0,0,1-2.17,4.34,4.84,4.84,0,0,1,.8.3,16.46,16.46,0,0,0,1-1.46,9.35,9.35,0,0,0,1.26-3,2.87,2.87,0,0,0-.24-1.81C157.78,258.17,157.53,257.7,157.27,257.25Z"/><path class="cls-20" d="M279.39,49.61A17.33,17.33,0,0,0,277,51.25a8,8,0,0,0-1.88,2.15,4.06,4.06,0,0,0-.46,2.69,7.48,7.48,0,0,0,1.15,2.65,13.26,13.26,0,0,1-.93-1.17,5,5,0,0,1-.6-1.4,4.14,4.14,0,0,1,.4-3,6.87,6.87,0,0,1,2.09-2.2A10,10,0,0,1,279.39,49.61Z"/><path d="M313,261.47c.69-.25,1.36-.54,2.06-.75a2.51,2.51,0,0,1,1.09-.14,1.5,1.5,0,0,1,.94.55,7,7,0,0,1,1,2c.25.69.48,1.38.66,2.09a14.29,14.29,0,0,1,.49,4.37,9.1,9.1,0,0,1-.35,2.19,3.65,3.65,0,0,1-.49,1,.93.93,0,0,1-.25.23l-.25.12-.48.26a118.72,118.72,0,0,1-15.92,7.32A207,207,0,0,1,267.73,290c-5.74,1.14-11.52,2-17.31,2.79s-11.61,1.35-17.44,1.82c-11.65,1-23.34,1.34-35,1.27a320,320,0,0,1-35-2.17c-2.9-.34-5.8-.81-8.67-1.2s-5.77-.66-8.67-.9c-5.8-.46-11.61-.73-17.44-.87-11.64-.26-23.3,0-34.95.54s-23.29,1.28-34.91,2.4a566.45,566.45,0,0,1,69.88-4.09c5.85.06,11.69.27,17.52.73,2.92.22,5.83.52,8.74.87s5.78.83,8.67,1.17a324.21,324.21,0,0,0,34.84,2,373.47,373.47,0,0,0,69.55-5.52c5.72-1.05,11.42-2.25,17.06-3.7s11.2-3.15,16.68-5.13a120,120,0,0,0,16-7l.49-.25.24-.12a.45.45,0,0,0,.15-.13,3.21,3.21,0,0,0,.45-.93,8.74,8.74,0,0,0,.39-2.11,14.5,14.5,0,0,0-.39-4.3c-.17-.71-.39-1.41-.62-2.09a6.64,6.64,0,0,0-.94-1.95,1.44,1.44,0,0,0-.88-.54,2.6,2.6,0,0,0-1.07.11C314.38,261,313.7,261.23,313,261.47Z"/><path d="M186.87,273.58a7,7,0,0,0-1.4-1.64c-.5-.47-1-.92-1.53-1.36-1-.89-2.08-1.76-3.14-2.62-2.11-1.72-4.28-3.37-6.53-4.92a36.66,36.66,0,0,0-3.5-2.18,9.63,9.63,0,0,0-2-.83c-.68-.17-1.37-.29-2-.41a9,9,0,0,1-1.89-.44,4,4,0,0,1-1.49-1.06,18.64,18.64,0,0,1-2.12-3.34c-1.29-2.38-2.53-4.79-3.78-7.2l-1.9-3.67-.63-.22q1,2.09,2,4.16c1.19,2.44,2.38,4.88,3.62,7.31a16.71,16.71,0,0,0,2.19,3.54,4.84,4.84,0,0,0,1.79,1.29,9.68,9.68,0,0,0,2.06.51c.67.12,1.32.24,2,.41a8.44,8.44,0,0,1,1.76.76,36.6,36.6,0,0,1,3.39,2.16c2.22,1.54,4.34,3.21,6.47,4.89,1.05.85,2.1,1.7,3.13,2.58.51.44,1,.88,1.52,1.33a6.24,6.24,0,0,1,1.25,1.43,8.33,8.33,0,0,1,1.15,3.65,14.62,14.62,0,0,1,.06,1.75,16.86,16.86,0,0,0-2.33-4,14.32,14.32,0,0,0-2.48-2.44c-1-.69-1.93-1.25-2.9-1.85-1.93-1.19-3.89-2.34-5.86-3.47l-.24-.13a3.12,3.12,0,0,1,.23.49c1.88,1.17,3.72,2.38,5.59,3.57.94.62,1.93,1.22,2.8,1.88a13.29,13.29,0,0,1,2.3,2.38,16.65,16.65,0,0,1,2.81,6l.64,2.63.2-2.71C188.25,279.14,188.43,276.09,186.87,273.58Z"/><path d="M176.45,273.28l-.45-1.46c-.19-.47-.43-.92-.64-1.38l-.33-.69-.41-.63-.84-1.26c-.64-.78-1.3-1.53-2-2.27l-2.21-2,2,2.18c.61.78,1.21,1.57,1.79,2.36a16.25,16.25,0,0,1,2.34,5.33,11.24,11.24,0,0,1-.34,5.67A11.42,11.42,0,0,1,174,282a13.81,13.81,0,0,0,.37-5.16,15.74,15.74,0,0,0-.38-1.91c-.18-.63-.44-1.22-.66-1.83a15.78,15.78,0,0,0-2.05-3.27,16.73,16.73,0,0,0-6-4.63,7.62,7.62,0,0,0-5.27-.22,4.5,4.5,0,0,1,.51.08,8.27,8.27,0,0,1,1-.11,7.42,7.42,0,0,1,3.55.72,16.15,16.15,0,0,1,5.61,4.67,15.55,15.55,0,0,1,1,1.51c.33.51.56,1.07.85,1.61s.43,1.13.58,1.71a13.94,13.94,0,0,1,.34,1.78,14.73,14.73,0,0,1-1.15,7.1l-.86,2.1L173,284.6a12.41,12.41,0,0,0,3.26-5.22A11.1,11.1,0,0,0,176.45,273.28Z"/><path d="M227.1,266.57a6.23,6.23,0,0,0-1.19-2.12,16.47,16.47,0,0,1-1.26-1.82c-.4-.66-.8-1.31-1.21-1.94l-4.95-7.63q-2.31-3.41-4.6-6.83c-.38,0-.76,0-1.13,0l4.89,7.44,5,7.56c.42.63.82,1.27,1.21,1.9a17.94,17.94,0,0,0,1.35,1.9,5.55,5.55,0,0,1,1.05,1.79,2,2,0,0,1-.44,1.79,12.47,12.47,0,0,1-3.37,2.79l-.23.13a2.7,2.7,0,0,1,.89.2,12.06,12.06,0,0,0,3.33-2.66A2.84,2.84,0,0,0,227.1,266.57Z"/><path d="M255.81,280.9a12.79,12.79,0,0,0-.51-2.49c-.13-.4-.26-.8-.42-1.19a5.77,5.77,0,0,0-.64-1.14,21.24,21.24,0,0,0-3.41-3.67,19.88,19.88,0,0,0-8.78-4.66,13.54,13.54,0,0,0-2.52-.25,21.32,21.32,0,0,1-2.4-.14,6.86,6.86,0,0,1-4.16-1.7,15.47,15.47,0,0,1-1.53-1.82c-.49-.65-1.06-1.3-1.51-1.93-1-1.29-1.84-2.67-2.74-4l-5.3-8.25-2.76-4.3-.72.23c2.63,4.3,5.28,8.58,8,12.82.9,1.38,1.77,2.75,2.75,4.1.5.71,1,1.29,1.5,1.95a16.89,16.89,0,0,0,1.61,1.94,6.31,6.31,0,0,0,2.23,1.41,10.66,10.66,0,0,0,2.51.55,23.39,23.39,0,0,0,2.5.13,13.2,13.2,0,0,1,2.36.22,18.87,18.87,0,0,1,8.38,4.4,21.22,21.22,0,0,1,3.3,3.47,4.89,4.89,0,0,1,.57,1c.16.37.3.74.43,1.12s.2.68.29,1a39.13,39.13,0,0,0-3.14-3.3,19.12,19.12,0,0,0-2.33-1.85,27.24,27.24,0,0,0-2.6-1.39,52,52,0,0,0-5-2.16,4.85,4.85,0,0,1,.65.55c1.4.61,2.76,1.3,4.1,2,.85.47,1.74.91,2.52,1.44a18.27,18.27,0,0,1,2.21,1.84,40.61,40.61,0,0,1,3.86,4.33l.77,1Z"/><path d="M233.26,269.49c.35,1.36.6,2.74.84,4.13s.37,2.8.45,4.21a25.35,25.35,0,0,1-.18,4.27,28.13,28.13,0,0,1-1,4.14l-.74,2.81-.24-2.91a7.58,7.58,0,0,0-1.13-3.79,6,6,0,0,1-.53-2.27c-.07-.72-.11-1.44-.13-2.15,0-1.42-.09-2.84-.21-4.25a12.75,12.75,0,0,0-.82-4.13,11.64,11.64,0,0,1,1.31,4.07c.22,1.42.35,2.84.49,4.26l.23,2.1a5.83,5.83,0,0,0,.45,1.84,5.84,5.84,0,0,1,.57,1,7.24,7.24,0,0,1,.39,1.07,11.61,11.61,0,0,1,.38,2.21l-1-.1a25,25,0,0,0,1.38-8.14c0-1.38-.05-2.78-.16-4.17S233.39,270.89,233.26,269.49Z"/><path d="M248.33,280.14a12.5,12.5,0,0,0-1.64-4.65,14.54,14.54,0,0,0-3.31-3.59,21.75,21.75,0,0,0-4.08-2.58,27.11,27.11,0,0,1,3.8,2.91,15.34,15.34,0,0,1,3,3.61,12.83,12.83,0,0,1,1.35,4.42,17.92,17.92,0,0,1,.15,2.31,19.73,19.73,0,0,0-1.8-3.4,16.5,16.5,0,0,0-10-7,9.53,9.53,0,0,0-2.11-.37,1.59,1.59,0,0,1,.07.39,11.5,11.5,0,0,1,1.9.48,16,16,0,0,1,5.31,2.69,16.53,16.53,0,0,1,4,4.33,18.88,18.88,0,0,1,2.43,5.38l.5,1.88.44-1.83a7.6,7.6,0,0,0,.17-1.31c0-.42,0-.83,0-1.24A18.27,18.27,0,0,0,248.33,280.14Z"/><path d="M166.22,265.88a7.45,7.45,0,0,0-.75-.37c-.35-.14-.7-.29-1-.45-.14-.07-.26-.16-.39-.24h-.1c-.86-.18-1.74-.27-2.6-.44h0c-2.19-.24-4.38-.49-6.56-.81-1.33-.19-2.66-.43-4-.64s-2.65-.49-4-.8c-2.64-.56-5.17-1.36-7.81-2.14a94,94,0,0,0-16-3.22,83.39,83.39,0,0,0-16.34-.2c-1.36.1-2.72.28-4.07.42l-2,.14c-.66,0-1.34,0-2,0a72.92,72.92,0,0,1-8-.72c-5.36-.74-10.68-1.8-16-3S64,251.07,58.77,249.6c5.19,1.58,10.41,2.83,15.68,4.15S85,256.24,90.39,257.1a69.29,69.29,0,0,0,8.14.84c.69,0,1.37.07,2.06,0l2.07-.11c1.35-.13,2.68-.28,4-.37a82.89,82.89,0,0,1,16.14.4,101.67,101.67,0,0,1,15.81,3.32c2.56.77,5.21,1.62,7.88,2.19,1.33.33,2.67.55,4,.83s2.68.47,4,.67c4.08.6,8.17,1.07,12.26,1.45l-.46-.4A.91.91,0,0,1,166.22,265.88Z"/><path d="M230.21,271.3s-.1-.07-.1-.1l-.06-.25a71.93,71.93,0,0,1-12.18.23,25.21,25.21,0,0,1-3.9-.66c-1.25-.31-2.57-.79-3.85-1.18a72.41,72.41,0,0,0-7.93-2.17,50.16,50.16,0,0,0-8.19-.88c-2.76-.06-5.43-.05-8.14-.14s-5.69-.19-8.54-.33a8.56,8.56,0,0,1,2.45,1.58c2,.09,4,.18,6,.25,2.71.08,5.47.05,8.13.11a49.4,49.4,0,0,1,8,.82,72,72,0,0,1,7.77,2.09c1.31.4,2.55.85,3.93,1.19a26.82,26.82,0,0,0,4.12.68,73.68,73.68,0,0,0,12.7-.31C230.3,272,230.35,271.68,230.21,271.3Z"/><path d="M298.68,265.48a49.58,49.58,0,0,1-8.08.45c-2.7-.05-5.38-.35-8.11-.51a90.74,90.74,0,0,0-16.31.58c-5.4.65-10.76,1.55-16.12,2.35-1.61.25-3.23.49-4.84.72a7.72,7.72,0,0,1,2.08.9l2.94-.48c5.36-.87,10.7-1.84,16.06-2.55a90.06,90.06,0,0,1,16.16-.79c2.69.1,5.41.34,8.14.33a50.47,50.47,0,0,0,8.14-.63c5.4-.85,11-3.06,16-5C309.66,262.68,304.06,264.77,298.68,265.48Z"/><path d="M112.64,78.59c-.2.1-.4.21-.59.33s-.2.18-.16.13a2.66,2.66,0,0,1-1.15.65l-.33.47-3.49,5-3.27,5.1A210.88,210.88,0,0,0,92,111.49c-3.48,7.3-6.54,14.79-9.42,22.33S77,149,74.54,156.68c-.27.83-.52,1.66-.79,2.5.36-.23.73-.45,1.1-.66q4-12.27,8.66-24.33c2.91-7.51,6-15,9.48-22.2a211.43,211.43,0,0,1,11.72-21.08L108,85.85l3.49-4.91,1.75-2.45.42-.54A10.2,10.2,0,0,1,112.64,78.59Z"/><path d="M307.32,40.37a42.91,42.91,0,0,0-2.45-12.08,32.61,32.61,0,0,0-2.69-5.63,29.57,29.57,0,0,0-3.9-4.86,49.21,49.21,0,0,0-9.7-7.57A71.5,71.5,0,0,0,265.72,1.7,95.33,95.33,0,0,0,241.41.19a124.88,124.88,0,0,0-24,4,154.71,154.71,0,0,0-22.89,8.17c-1.84.83-3.67,1.72-5.51,2.57s-3.59,1.86-5.39,2.78c-3.57,1.9-7.21,3.68-10.64,5.85a207.82,207.82,0,0,0-38.73,29.11A205.73,205.73,0,0,0,117.74,70.5L116,72.81a16.3,16.3,0,0,1,3.23-1.88,200.61,200.61,0,0,1,16.09-17.15,207,207,0,0,1,38.57-28.72c3.4-2.14,7-3.91,10.56-5.79,1.79-.91,3.55-1.9,5.36-2.75s3.63-1.72,5.46-2.53a152.18,152.18,0,0,1,22.65-8.06A123.24,123.24,0,0,1,241.52,2,93.8,93.8,0,0,1,265.36,3.5a69.61,69.61,0,0,1,22.25,8.34,47.08,47.08,0,0,1,9.31,7.28,27.87,27.87,0,0,1,3.65,4.56,30.71,30.71,0,0,1,2.5,5.27,43.46,43.46,0,0,1,2.43,15l.29.11.17,0c.49.17,1,.34,1.45.53C307.43,43.23,307.42,41.8,307.32,40.37Z"/><path d="M320.73,121.74a120.31,120.31,0,0,0-6.38-23.5c-2.86-7.46-5.84-14.89-8.47-22.38a2.65,2.65,0,0,1-1.11-.7,23.43,23.43,0,0,1-1.93-2.26q.51,1.71,1.08,3.39C306.58,84,309.6,91.43,312.5,99a117.82,117.82,0,0,1,6.31,23.11A108.71,108.71,0,0,1,320.24,146a83.76,83.76,0,0,1-4.5,23.42,56.63,56.63,0,0,1-2.94,7.14,2.06,2.06,0,0,1,0,.35c-.12,1.56-.41,3.1-.57,4.65A73.87,73.87,0,0,0,317.51,170a86.23,86.23,0,0,0,4.64-23.93A111.23,111.23,0,0,0,320.73,121.74Z"/><path d="M304.89,190.85c.39-1.09.85-2.15,1.25-3.23-5.27,7.34-11.66,14-18,20.41a153.27,153.27,0,0,1-18.45,15.39,132.93,132.93,0,0,1-20.82,11.92l-2.75,1.22c-.91.42-1.83.82-2.77,1.15l-5.63,2.11L232,241.59c-.95.31-1.92.55-2.9.78l-2.91.71a138.85,138.85,0,0,1-23.79,3.38c-16,1.07-32.26.45-47.82-3.56A109.42,109.42,0,0,1,112,221.21c-11.56-9.41-21.23-21-29.54-33.34a1.28,1.28,0,0,1-.9.21c8.26,12.62,18,24.38,29.72,34a110.6,110.6,0,0,0,42.9,22.12c15.72,4.14,32.14,4.83,48.26,3.83a140.79,140.79,0,0,0,24.07-3.31l3-.71c1-.24,2-.47,2.94-.79l5.82-1.79L244,239.3c1-.33,1.89-.74,2.81-1.16l2.79-1.23a134.82,134.82,0,0,0,21.12-12,154.44,154.44,0,0,0,18.69-15.55,189.57,189.57,0,0,0,15.52-17A2.26,2.26,0,0,1,304.89,190.85Z"/><path d="M277.76,54.7a1.62,1.62,0,0,1,.71-1.37,3.49,3.49,0,0,1,1.48-.6,31.12,31.12,0,0,1,3.17-.23,34.17,34.17,0,0,0,6.22-1,16.51,16.51,0,0,0,2.94-1,6.05,6.05,0,0,0,2.36-1.83,16.54,16.54,0,0,1,4.6-4.53A7.88,7.88,0,0,1,302.39,43a7.16,7.16,0,0,1,3.31.44,43.91,43.91,0,0,1,5.74,2.87c1.85,1,3.66,2.14,5.47,3.24l2.7,1.66,1.36.81.67.38.34.17.28.12.95.41-.8.45a11.63,11.63,0,0,1-2.41,1c-.81.23-1.61.44-2.43.6-1.62.35-3.25.57-4.89.77-3.28.38-6.57.5-9.85.56s-6.56,0-9.84-.19-6.55-.39-9.81-.68c3.28.09,6.55.23,9.82.25s6.55,0,9.81-.08,6.53-.35,9.77-.73c1.61-.21,3.22-.44,4.8-.8.79-.16,1.58-.36,2.34-.59a11.75,11.75,0,0,0,2.15-.86l.15.86-.46-.18-.37-.19-.71-.39-1.37-.81-2.72-1.65c-1.8-1.12-3.59-2.22-5.42-3.28a43.72,43.72,0,0,0-5.58-2.84,6.46,6.46,0,0,0-5.73.53,16,16,0,0,0-4.48,4.21,6.55,6.55,0,0,1-2.65,2,17.65,17.65,0,0,1-3.06,1,33.89,33.89,0,0,1-6.33.76c-1.06.06-2.13-.06-3.16.1a3.45,3.45,0,0,0-1.46.51A1.57,1.57,0,0,0,277.76,54.7Z"/><path d="M294.66,59.49c.53-.15,1.06-.26,1.59-.36l0,0c-1.3.07-2.6.1-3.9.1a37.27,37.27,0,0,1-7.75-.72,19.25,19.25,0,0,1-3.72-1.13A7.26,7.26,0,0,1,277.79,55a6.18,6.18,0,0,0,3,2.58A20.21,20.21,0,0,0,284.51,59a37.77,37.77,0,0,0,7.85,1q.66,0,1.32,0A2.81,2.81,0,0,1,294.66,59.49Z"/></g><g id="Post"><path d="M307.6,177.06c-.09-1-.29-1.9-.42-2.86-.09-.47-.14-1-.25-1.43l-.34-1.4c-.25-.93-.44-1.88-.73-2.79l-.9-2.74c-.27-.92-.66-1.8-1-2.69l-1.08-2.66c-.82-1.73-1.58-3.49-2.47-5.18L299,152.79c-.44-.85-.89-1.69-1.42-2.51s-1-1.65-1.58-2.43-1.1-1.58-1.71-2.32a82.13,82.13,0,0,0-7.69-8.54,164.57,164.57,0,0,0-17.52-14.69c-6.14-4.52-12.5-8.71-19-12.68a316.83,316.83,0,0,0-40.57-20.84c-7-3-14.1-5.73-21.32-8.15a201.41,201.41,0,0,0-22-6.17,125.92,125.92,0,0,0-22.63-3.22c-7.62-.36-15.4.16-22.73,2.61a40.53,40.53,0,0,0-5.34,2.2l-2.5,1.48c-.83.49-1.57,1.13-2.35,1.7a22.46,22.46,0,0,0-7,9.13,19.29,19.29,0,0,0-.94,4.29,2.84,2.84,0,0,1,1.08-.55,20.21,20.21,0,0,1,.82-3.37A20.12,20.12,0,0,1,107.45,84c.61-.69,1.2-1.41,1.87-2.05l1-.94a8.21,8.21,0,0,1,1.07-.88c.76-.53,1.47-1.14,2.27-1.61l2.42-1.39a40.08,40.08,0,0,1,5.19-2.07c7.12-2.3,14.75-2.73,22.24-2.29,1.89,0,3.76.29,5.63.48s3.75.36,5.6.73l5.58.94c1.85.35,3.68.81,5.53,1.21a199.27,199.27,0,0,1,21.78,6.2c7.16,2.44,14.21,5.18,21.15,8.17a338.69,338.69,0,0,1,40.31,20.77c6.47,3.92,12.8,8.06,18.9,12.52a161.59,161.59,0,0,1,17.37,14.46,78.38,78.38,0,0,1,7.57,8.33c.6.72,1.12,1.49,1.66,2.25s1.05,1.54,1.54,2.33.95,1.6,1.39,2.43l1.35,2.49c.88,1.66,1.65,3.37,2.48,5.06l1.08,2.6c.36.87.74,1.72,1,2.62l.9,2.66c.3.88.49,1.8.74,2.7l.35,1.36c.11.45.17.91.25,1.37.14.92.35,1.84.44,2.76a26.73,26.73,0,0,1-.85,11,21,21,0,0,1-5.81,9.23l-1,.95c-.35.3-.74.56-1.11.84l-.59.43a2.17,2.17,0,0,1,0,1.38c.42-.29.82-.59,1.23-.88s.8-.55,1.17-.86l1.08-1a22.31,22.31,0,0,0,6.25-9.71A28.14,28.14,0,0,0,307.6,177.06Z"/><path d="M308.74,154.49a108.21,108.21,0,0,0-5.18-9.55,55.34,55.34,0,0,0-6.5-8.81,101.6,101.6,0,0,0-7.63-7.76c-2.65-2.47-5.43-4.79-8.24-7.07a259,259,0,0,0-36.14-23.83,327,327,0,0,0-39.16-18.4c-6.73-2.61-13.55-5-20.48-7a187.75,187.75,0,0,0-21.1-4.93L159,66.25c-1.79-.24-3.6-.36-5.4-.54l-2.7-.26-2.71-.06-2.72-.07-1.36,0-1.36.06a55.8,55.8,0,0,0-21.21,4.29,34.34,34.34,0,0,0-9.2,5.79c-.68.61-1.31,1.26-2,1.89s-1.23,1.34-1.78,2.06-1.1,1.44-1.62,2.17-1.08,1.45-1.58,2.2A17.77,17.77,0,0,0,103,88.68a26.38,26.38,0,0,0-.91,5.35c0,.19,0,.39,0,.59l.27-.1c0-.16,0-.31,0-.47a27.45,27.45,0,0,1,1-5.26A17.58,17.58,0,0,1,105.74,84c.51-.73,1.06-1.44,1.61-2.16s1.08-1.43,1.65-2.11,1.2-1.33,1.79-2,1.29-1.23,2-1.82a33.59,33.59,0,0,1,9.1-5.48,55.71,55.71,0,0,1,20.88-3.92l1.34-.06,1.34.05,2.68.1,2.68.1,2.67.28c1.77.2,3.56.34,5.33.6l5.29.9a187.9,187.9,0,0,1,20.87,5.12c6.86,2.06,13.63,4.46,20.31,7.08a324.94,324.94,0,0,1,38.87,18.45,275.33,275.33,0,0,1,35.9,23.6c2.79,2.25,5.55,4.53,8.16,7a96.41,96.41,0,0,1,7.53,7.6,53.15,53.15,0,0,1,6.33,8.5c1.85,3.11,3.64,6.17,5.15,9.4,3,6.4,5.11,13.36,4.95,20.42a28.55,28.55,0,0,1-7.72,19.08,37.54,37.54,0,0,1-8.36,6.5c-.21.13-.43.24-.65.36,0,.09-.06.18-.1.27a7.65,7.65,0,0,1-1.29,1.78c.89-.44,1.76-.9,2.62-1.4a38.89,38.89,0,0,0,8.71-6.61,30,30,0,0,0,8.33-19.93C313.94,168.3,311.82,161.07,308.74,154.49Z"/><path d="M332.51,130.35c-.49-4.74-1.16-9.45-2.12-14.13-.47-2.33-1-4.65-1.72-7a19.63,19.63,0,0,0-1.31-3.48,7.49,7.49,0,0,0-2.92-2.63,18.34,18.34,0,0,0-7.15-1.72,28.22,28.22,0,0,0-3.05,0,3.13,3.13,0,0,1,.53,1.33c.81,0,1.62,0,2.42.06a17.25,17.25,0,0,1,6.54,1.66,6,6,0,0,1,2.27,2.08,19,19,0,0,1,1.12,3.17c.64,2.24,1.14,4.54,1.61,6.84.92,4.61,1.55,9.28,2,14a127.79,127.79,0,0,1-.32,28.13,86.3,86.3,0,0,1-2.87,13.73,62.45,62.45,0,0,1-5.34,12.89c-.6,1-1.17,2-1.8,3s-1.29,1.92-2,2.87c-1.42,1.89-2.81,3.8-4.25,5.67-2.86,3.75-5.8,7.45-8.87,11-.78.88-1.54,1.78-2.36,2.62s-1.61,1.68-2.45,2.48a23.91,23.91,0,0,1-2.62,2.17c-.88.58-2,1.09-2.37.75a11.65,11.65,0,0,1-1.16-1.07,9.66,9.66,0,0,0-1.53-1.2,6,6,0,0,0-3.92-.9,12.73,12.73,0,0,0-3.56,1.15,20.19,20.19,0,0,1-3.28.93l-.63.09a2.76,2.76,0,0,1-.77,1.64c.56-.06,1.13-.13,1.68-.23a21,21,0,0,0,3.56-.94,11.21,11.21,0,0,1,3.17-1,4.42,4.42,0,0,1,2.86.71,8.1,8.1,0,0,1,1.25,1,9.62,9.62,0,0,0,1.46,1.31,2.65,2.65,0,0,0,1.28.35,3.55,3.55,0,0,0,1.13-.22,7.82,7.82,0,0,0,1.78-.91,25.23,25.23,0,0,0,2.86-2.33c.88-.83,1.74-1.67,2.55-2.55s1.61-1.76,2.41-2.65c3.13-3.59,6.11-7.29,9-11.05,1.46-1.87,2.87-3.78,4.3-5.67.72-.95,1.39-2,2.08-2.95s1.26-2.06,1.89-3.08c4.77-8.41,7.25-17.87,8.43-27.32A130.41,130.41,0,0,0,332.51,130.35Z"/><path d="M318.12,102.26c-.76-2.94-1.65-5.85-2.62-8.73-1.23-3.53-2.55-7-4.13-10.43-.21-.42-.39-.85-.62-1.27a4.33,4.33,0,0,0-.4-.67,1.39,1.39,0,0,0-.15-.19l-.25-.11a3.1,3.1,0,0,0-.39-.09,27.15,27.15,0,0,0-2.82-.21h-.34c.16.16.31.33.46.51a23.61,23.61,0,0,1,2.58.32,1.71,1.71,0,0,1,.29.08l.07,0s0,.07.05.1.18.37.27.55c.2.41.37.85.55,1.27,1.4,3.44,2.69,6.93,3.88,10.44,1,2.8,1.84,5.61,2.68,8.45A2.9,2.9,0,0,1,318.12,102.26Z"/><path d="M318.54,96.07c-1.22-3.53-2.55-7-4.12-10.43-.22-.42-.4-.84-.63-1.27a4.33,4.33,0,0,0-.4-.67,1.3,1.3,0,0,0-.15-.18,1.34,1.34,0,0,0-.24-.12c-.16-.05-.26-.06-.39-.09-.62-.09-1.22-.13-1.82-.16a2.88,2.88,0,0,1,.2.56c.51.06,1,.12,1.49.22a2.81,2.81,0,0,1,.29.08l.07,0a.47.47,0,0,1,.05.1c.07.1.18.37.28.56.19.4.36.84.55,1.26q2.08,5.16,3.87,10.45c.72,2.08,1.39,4.18,2,6.29.37.15.74.32,1.1.49C320.07,100.79,319.33,98.42,318.54,96.07Z"/><path d="M331.32,47.07l-12.55,4,1.05.71,11.38-3.62,27.85,15.78-40.4,21.25L288.81,61.64l18.36-5.84a7.67,7.67,0,0,0-1.37.12,2.74,2.74,0,0,1-1.75-.18l-17.34,5.51,31.83,25.12L361.14,64Z"/><polyline class="cls-26" points="287.76 61.45 327.6 63.9 331.26 47.61"/><path d="M66.64,271.61a50.14,50.14,0,0,1-1.39,12.32,25.26,25.26,0,0,1-2.16,5.85,10.78,10.78,0,0,1-1.89,2.53,4.57,4.57,0,0,1-2.94,1.36,4.65,4.65,0,0,1-3-1.27,10.77,10.77,0,0,1-2-2.51,24.09,24.09,0,0,1-2.39-5.84,51.29,51.29,0,0,1-1.58-12.44,50.19,50.19,0,0,1,1.58-12.43,23.77,23.77,0,0,1,2.39-5.85,10.51,10.51,0,0,1,2-2.5,4,4,0,0,1,6,.08,10.12,10.12,0,0,1,1.89,2.54,25,25,0,0,1,2.17,5.84A50.18,50.18,0,0,1,66.64,271.61Zm0,0a50.21,50.21,0,0,0-1.56-12.27,23.65,23.65,0,0,0-2.33-5.7,10.06,10.06,0,0,0-1.89-2.35,4,4,0,0,0-2.6-1.11,3.94,3.94,0,0,0-2.52,1.2A10.24,10.24,0,0,0,54,253.76a25,25,0,0,0-2.1,5.69,55,55,0,0,0,0,24.32,24.83,24.83,0,0,0,2.1,5.7,10,10,0,0,0,1.77,2.38,3.4,3.4,0,0,0,5.12.08,9.86,9.86,0,0,0,1.89-2.35,23.18,23.18,0,0,0,2.33-5.69A50.29,50.29,0,0,0,66.64,271.61Z"/><path class="cls-2" d="M61.89,271.92a35.67,35.67,0,0,1-.66,7.14,18.07,18.07,0,0,1-1,3.43,6.69,6.69,0,0,1-.91,1.57,2.21,2.21,0,0,1-1.58.93,2.17,2.17,0,0,1-1.61-.9,6.66,6.66,0,0,1-1-1.56A16.67,16.67,0,0,1,54,279.09a35.9,35.9,0,0,1-.74-7.17,35.16,35.16,0,0,1,.74-7.16,16.67,16.67,0,0,1,1.12-3.44,7,7,0,0,1,1-1.56,2.21,2.21,0,0,1,1.62-.9,2.13,2.13,0,0,1,1.58.93,6.63,6.63,0,0,1,.91,1.56,17.47,17.47,0,0,1,1,3.44A35.64,35.64,0,0,1,61.89,271.92Zm0,0a36.12,36.12,0,0,0-.73-7.11,17.47,17.47,0,0,0-1.11-3.39,6.39,6.39,0,0,0-.93-1.5,1.91,1.91,0,0,0-1.42-.81,1.93,1.93,0,0,0-1.39.84,6.86,6.86,0,0,0-.88,1.51,17.92,17.92,0,0,0-1,3.39,38.83,38.83,0,0,0,0,14.15,17.92,17.92,0,0,0,1,3.39,6.49,6.49,0,0,0,.88,1.51,1.93,1.93,0,0,0,1.39.84,1.91,1.91,0,0,0,1.42-.81,6.27,6.27,0,0,0,.93-1.5A16.81,16.81,0,0,0,61.16,279,36.14,36.14,0,0,0,61.89,271.92Z"/><path class="cls-2" d="M58.76,272.11a11.42,11.42,0,0,1-.17,2.26,7.18,7.18,0,0,1-.27,1.11,2.41,2.41,0,0,1-.27.53.73.73,0,0,1-.54.35.77.77,0,0,1-.58-.33,2.31,2.31,0,0,1-.31-.52,5.53,5.53,0,0,1-.36-1.11,12.54,12.54,0,0,1-.25-2.29,11.8,11.8,0,0,1,.25-2.29,5.53,5.53,0,0,1,.36-1.11,2.31,2.31,0,0,1,.31-.52.77.77,0,0,1,.58-.33.72.72,0,0,1,.54.36,2.34,2.34,0,0,1,.27.52,6.41,6.41,0,0,1,.27,1.11A11.47,11.47,0,0,1,58.76,272.11Zm0,0a11.21,11.21,0,0,0-.24-2.24,4.71,4.71,0,0,0-.35-1.06c-.14-.32-.38-.7-.66-.7s-.46.41-.57.73a6.33,6.33,0,0,0-.27,1.06,15.34,15.34,0,0,0,0,4.42,6.1,6.1,0,0,0,.27,1.06c.11.32.31.7.57.73s.52-.38.66-.69a5.07,5.07,0,0,0,.35-1.06A11.31,11.31,0,0,0,58.76,272.11Z"/><path class="cls-27" d="M243,109.56l-10.69-6.5a1,1,0,0,1-.28-1.45l5.85-7.94a1,1,0,0,1,1.26-.3l10.41,5.28a1,1,0,0,1,.4,1.42l-5.57,9.16A1,1,0,0,1,243,109.56Zm.49-2.69,4-6.57a.71.71,0,0,0-.28-1l-7.43-3.79a.7.7,0,0,0-.89.21l-4.18,5.7a.72.72,0,0,0,.2,1l7.63,4.66A.71.71,0,0,0,243.49,106.87Z"/></g></svg>