<svg xmlns="http://www.w3.org/2000/svg" viewBox="0 0 250 203.47"><defs><style>.cls-1{fill:#fff;}</style></defs><title>twitter</title><g id="Layer_2" data-name="Layer 2"><g id="Layer_1-2" data-name="Layer 1"><path class="cls-1" d="M0,180.42c28.08,2.81,53.19-4.08,75.54-21.1a52.21,52.21,0,0,1-29.4-10.41A50.94,50.94,0,0,1,28,123.5c10.89,1.15,16.21,1,22.91-.91a51.3,51.3,0,0,1-29.64-18.25C13.63,94.83,10,83.9,9.93,71.53a54.16,54.16,0,0,0,11.12,4.56,50,50,0,0,0,12,1.85,54.88,54.88,0,0,1-8-6.73A50.55,50.55,0,0,1,11,43.12a51,51,0,0,1,5.78-32.77c.47-.87.74-.83,1.33-.12A145.13,145.13,0,0,0,55.63,42.51,144.23,144.23,0,0,0,96.16,59.15,136.26,136.26,0,0,0,117,62.58c1.71.14,3.43.26,5.14.42.77.07,1-.07.82-1-3-15.17,0-29.13,9.22-41.52A49.45,49.45,0,0,1,165.73.59c14.86-2.16,28.2,1.63,40,10.91a39.55,39.55,0,0,1,4.35,4,1.52,1.52,0,0,0,1.63.51A103.19,103.19,0,0,0,242.58,4.2c.19-.11.39-.2.83-.43A52.43,52.43,0,0,1,221.51,32,86.27,86.27,0,0,0,236,29.17a125.25,125.25,0,0,0,14-4.84,43,43,0,0,1-3.78,5.49,104.19,104.19,0,0,1-20.89,20.42,1.43,1.43,0,0,0-.61,1.46c.15,3.81.16,7.61,0,11.42s-.48,7.36-.92,11a144.25,144.25,0,0,1-4.56,22.65A152.16,152.16,0,0,1,193,148.9a138.64,138.64,0,0,1-50.22,40.67,140,140,0,0,1-38.41,11.89,164.68,164.68,0,0,1-23.26,2,145.34,145.34,0,0,1-80-22.3C.77,181,.48,180.75,0,180.42Z"/></g></g></svg>