<svg xmlns="http://www.w3.org/2000/svg" viewBox="0 0 250 175.87"><defs><style>.cls-1{fill:#fff;}</style></defs><title>youtube</title><g id="Layer_2" data-name="Layer 2"><g id="Layer_1-2" data-name="Layer 1"><path class="cls-1" d="M124.46,175.87c-23.65-.52-43-.88-62.26-1.41-7.3-.2-14.6-.59-21.87-1.27-5.67-.54-11.38-1.18-16.78-3.31A28.75,28.75,0,0,1,6.41,152.32,84.53,84.53,0,0,1,1.83,131C-.23,109.77-.28,88.5.37,67.23.63,58.48,1.55,49.76,2.28,41A61,61,0,0,1,7.76,20.35c4-8.59,10.92-13.7,19.86-16.22,5.84-1.65,11.9-1.77,17.9-2C59.39,1.5,73.26,1,87.14.55q34.1-1,68.19-.19c15.24.35,30.49.9,45.72,1.56a146.62,146.62,0,0,1,18.74,1.69c10.84,1.88,18.85,7.84,23.22,18.18a64.16,64.16,0,0,1,4.93,20.31c.62,8.31,1.6,16.6,1.79,24.91.31,13.71.4,27.43,0,41.14-.27,9.8-1.24,19.6-2.28,29.36A51.78,51.78,0,0,1,241,157.89c-3.74,6.51-9.5,10.61-16.49,13.08a48.54,48.54,0,0,1-13.47,2.25c-9.51.54-19,1.12-28.54,1.38C161.73,175.15,140.93,175.52,124.46,175.87ZM99.29,50v70.38L167,85.32Z"/></g></g></svg>